<svg id="autorenew_black_24dp" xmlns="http://www.w3.org/2000/svg" width="18" height="18" viewBox="0 0 18 18">
  <path id="Path_43849" data-name="Path 43849" d="M0,0H18V18H0Z" fill="none"/>
  <path id="Path_43850" data-name="Path 43850" d="M10,4.75V7l3-3L10,1V3.25a5.989,5.989,0,0,0-5.07,9.195L6.025,11.35A4.4,4.4,0,0,1,5.5,9.25,4.5,4.5,0,0,1,10,4.75Zm5.07,1.3-1.095,1.1A4.493,4.493,0,0,1,10,13.75V11.5l-3,3,3,3V15.25a5.989,5.989,0,0,0,5.07-9.195Z" transform="translate(-1 -0.25)" fill="#fff"/>
</svg>
