<svg id="attach_money_black_24dp" xmlns="http://www.w3.org/2000/svg" width="18" height="18" viewBox="0 0 18 18">
  <path id="Path_43851" data-name="Path 43851" d="M0,0H18V18H0Z" fill="none"/>
  <path id="Path_43852" data-name="Path 43852" d="M10.43,8.925c-1.7-.442-2.25-.9-2.25-1.612,0-.817.757-1.387,2.025-1.387,1.335,0,1.83.637,1.875,1.575h1.657A2.99,2.99,0,0,0,11.33,4.642V3H9.08V4.62A2.927,2.927,0,0,0,6.455,7.327c0,1.732,1.433,2.595,3.525,3.1,1.875.45,2.25,1.11,2.25,1.807,0,.517-.367,1.342-2.025,1.342-1.545,0-2.152-.69-2.235-1.575H6.32a3.142,3.142,0,0,0,2.76,2.873V16.5h2.25V14.887c1.462-.277,2.625-1.125,2.625-2.662C13.955,10.1,12.132,9.368,10.43,8.925Z" transform="translate(-1.58 -0.75)" fill="#003652"/>
</svg>
