<svg id="receipt_long_black_24dp" xmlns="http://www.w3.org/2000/svg" width="18" height="18" viewBox="0 0 18 18">
  <path id="Path_43859" data-name="Path 43859" d="M0,0H18V18H0Z" fill="none"/>
  <path id="Path_43875" data-name="Path 43875" d="M8653.324,16172.763h-8.258a2.066,2.066,0,0,1-2.065-2.063v-2.064h2.065V16159l1.031,1.032,1.031-1.032,1.033,1.032,1.033-1.032,1.032,1.032,1.031-1.032,1.032,1.032,1.033-1.032,1.031,1.032,1.032-1.032v11.7A2.065,2.065,0,0,1,8653.324,16172.763Zm-9.028-3.028v1.117a.73.73,0,0,0,.771.767h6.7a1.4,1.4,0,0,1-.4-.919c-.013-.543,0-.965,0-.965Zm8.34-1.1v2.064a.688.688,0,0,0,1.376,0v-9.634h-7.57v7.569Zm.688-2.752h-1.378v-1.377h1.378v1.376Zm-2.065,0h-4.13v-1.377h4.13v1.376Zm2.065-2.065h-1.378v-1.376h1.378v1.375Zm-2.065,0h-4.13v-1.376h4.13v1.375Z" transform="translate(-8640.195 -16156.882)" fill="#003652"/>
</svg>
