<svg id="contact_support_black_24dp" xmlns="http://www.w3.org/2000/svg" width="18" height="18" viewBox="0 0 18 18">
  <path id="Path_43873" data-name="Path 43873" d="M0,0H18V18H0Z" fill="none"/>
  <path id="Path_43874" data-name="Path 43874" d="M8.269,16.735V14.228a6.618,6.618,0,1,1,6.966-6.61c0,3.448-2.4,6.917-5.97,8.637ZM8.617,2.393a5.224,5.224,0,1,0,0,10.449H9.662v1.6a8.46,8.46,0,0,0,4.179-6.826A5.226,5.226,0,0,0,8.617,2.393Zm-.7,8.011H9.314V11.8H7.921ZM9.314,9.359H7.921c0-2.264,2.09-2.09,2.09-3.483a1.393,1.393,0,1,0-2.786,0H5.831a2.786,2.786,0,1,1,5.573,0C11.4,7.617,9.314,7.792,9.314,9.359Z" transform="translate(0.383 0.132)" fill="#003652"/>
</svg>
