<svg xmlns="http://www.w3.org/2000/svg" width="27" height="27" viewBox="0 0 27 27">
  <path id="inventory_2_FILL0_wght400_GRAD0_opsz48" d="M5.35,28.908V12.3a1.451,1.451,0,0,1-.911-.675A2.2,2.2,0,0,1,4,10.311V6.025a1.962,1.962,0,0,1,.608-1.4A1.918,1.918,0,0,1,6.025,4h22.95a1.937,1.937,0,0,1,1.4.624A1.937,1.937,0,0,1,31,6.025v4.286a2.2,2.2,0,0,1-.439,1.316,1.451,1.451,0,0,1-.911.675V28.908a2.049,2.049,0,0,1-.624,1.434,1.893,1.893,0,0,1-1.4.658H7.375a1.874,1.874,0,0,1-1.417-.658A2.076,2.076,0,0,1,5.35,28.908ZM7.375,12.336V28.975h20.25V12.336Zm21.6-2.025V6.025H6.025v4.286ZM13.45,19.424h8.1V17.4h-8.1ZM7.375,28.975v0Z" transform="translate(-4 -4)" fill="#fff"/>
</svg>
