<svg xmlns="http://www.w3.org/2000/svg" width="28.999" height="29" viewBox="0 0 28.999 29">
  <path id="Path_89139" data-name="Path 89139" d="M24.818,4.226A14.274,14.274,0,0,0,14.6-.006h-.024A14.435,14.435,0,0,0,.154,14.306c0,.037,0,.073,0,.11a15.055,15.055,0,0,0,1.9,7.132L0,28.994l7.652-1.959a14.167,14.167,0,0,0,6.9,1.724A14.536,14.536,0,0,0,29,14.337,14.178,14.178,0,0,0,24.818,4.226M14.6,26.329a11.793,11.793,0,0,1-6.073-1.646l-.474-.235L3.5,25.623,4.68,21.156l-.316-.47a11.823,11.823,0,0,1-1.8-6.26,11.98,11.98,0,1,1,18.3,10.1,11.564,11.564,0,0,1-6.231,1.8m6.942-8.7-.869-.392s-1.264-.549-2.053-.941c-.079,0-.158-.078-.237-.078a1.152,1.152,0,0,0-.553.157c-.168.1-.079.078-1.185,1.332a.435.435,0,0,1-.395.235H16.21a.6.6,0,0,1-.316-.157l-.395-.157a7.673,7.673,0,0,1-2.29-1.489c-.158-.157-.395-.314-.553-.47a8.78,8.78,0,0,1-1.5-1.881l-.079-.157a1.138,1.138,0,0,1-.158-.314A.584.584,0,0,1,11,12.926a4.907,4.907,0,0,1,.553-.627c.237-.235.237-.392.395-.549a.96.96,0,0,0,.158-.784A30.478,30.478,0,0,0,10.84,7.988a.918.918,0,0,0-.553-.392H9.418c-.158,0-.316.078-.474.078l-.079.078c-.158.078-.316.235-.474.314s-.237.314-.395.47a3.977,3.977,0,0,0-.869,2.43,4.612,4.612,0,0,0,.395,1.8L7.6,13a13.07,13.07,0,0,0,2.922,4l.316.314a4.758,4.758,0,0,1,.632.627,14.136,14.136,0,0,0,5.678,2.978c.237.078.553.078.79.157h.79a2.94,2.94,0,0,0,1.185-.314,3.429,3.429,0,0,0,.553-.313l.158-.157c.158-.157.316-.235.474-.392a2.076,2.076,0,0,0,.395-.47,4.468,4.468,0,0,0,.316-1.1v-.549a.993.993,0,0,0-.237-.157" transform="translate(0.003 0.006)" fill="#fff"/>
</svg>
