<svg xmlns="http://www.w3.org/2000/svg" width="14" height="21" fill="none" xmlns:v="https://vecta.io/nano"><path d="M9.583 18.406l3.917-1.021V1.6L9.467.93l-8.09.526h-.013s-.081.001-.169.02c-.101.021-.149.051-.159.06a.44.44 0 0 0-.109.213v15.05a.4.4 0 0 0 .113.203c.127.133.27.243.354.302l8.187 1.101m.026.437l-8.371-1.126s-.27-.17-.507-.417-.23-.49-.23-.49V1.716s.026-.269.231-.479.626-.209.631-.209L9.489.5l4.44.737v16.479l-4.32 1.126zm.12-17.475v16.446z" fill="#fff"/><path d="M9.727 1.367v16.446" stroke="#fff" stroke-width=".5" stroke-linecap="round"/><g fill="#fff"><path d="M6.967 3.714l-.067.253s-.063.294 0 .414.253.166.253.166l-.064 1.356v1.091s.214-.001.271-.613-.043-1.786-.043-1.786l1.151.101.101 2.479c-.01.304.213-.53.239-1.107S8.673 4.87 8.673 4.87s.12-.277.136-.487-.074-.459-.074-.459l-1.687-.126-.08-.083m-.221-.841l.496.507 1.803.134.094.261c.02.056.12.349.099.636a1.96 1.96 0 0 1-.116.49c.05.233.137.717.117 1.186-.014.337-.086.7-.116.84l-.08.323c-.016.053-.031.096-.047.131a.45.45 0 0 1-.413.287.44.44 0 0 1-.311-.131c-.134-.139-.129-.31-.127-.376.006-.181-.041-1.23-.083-2.07l-.28-.024c.023.409.043.973.007 1.354-.031.341-.113.591-.247.761-.17.216-.37.24-.447.24l-.431.003V5.884l.051-1.08a.67.67 0 0 1-.19-.22c-.069-.127-.091-.284-.073-.491.01-.111.03-.204.031-.214v-.01l.004-.01.259-.983v-.001z"/><path d="M4.566 5.043s-.106.227-.14.419-.067.211 0 .349a.51.51 0 0 0 .27.201s-.034.524 0 .917.136.651.136.651l-.53.093-.156.67h.687s.253-.351.273-.763-.191-.884-.191-.884l-.044-.729 1.047-.039.17.173.094 2.243c0 .193.22-.241.24-.763S6.26 6.26 6.26 6.26s.057-.336.039-.58-.117-.4-.117-.4l-1.484-.057-.13-.179m-.084-.843l.437.6 1.503.057.12.193a1.35 1.35 0 0 1 .18.593 3 3 0 0 1-.03.601c.047.227.171.877.154 1.351-.009.227-.051.47-.119.683-.03.096-.064.179-.1.246-.026.047-.051.087-.08.121a.45.45 0 0 1-.353.171c-.117 0-.227-.046-.31-.129-.061-.061-.134-.171-.134-.347l-.083-1.976-.346.013.013.219c.07.174.217.597.197 1.004-.026.523-.32.946-.354.993l-.129.179H3.604l.343-1.473.356-.061-.034-.271c-.02-.236-.019-.51-.013-.709a.75.75 0 0 1-.216-.259.69.69 0 0 1-.056-.526l.019-.089c.043-.239.16-.493.173-.521l.306-.661.001-.003z"/><path d="M1.837 6.523s-.106.227-.14.419-.067.211 0 .349a.51.51 0 0 0 .27.201s-.034.524 0 .917.136.651.136.651l-.53.093-.156.67h.687s.253-.351.273-.763-.191-.884-.191-.884l-.044-.729 1.047-.039.17.173.094 2.243c-.003.159.22-.241.24-.763S3.531 7.74 3.531 7.74s.057-.336.039-.58-.117-.4-.117-.4l-1.484-.057-.13-.179m-.084-.843l.437.6 1.503.057.12.193a1.35 1.35 0 0 1 .18.593c.017.217-.011.47-.03.601.047.227.171.877.154 1.351-.009.231-.053.476-.124.687a1.61 1.61 0 0 1-.103.24c-.13.234-.304.284-.429.284-.117 0-.23-.047-.311-.131-.06-.061-.133-.171-.129-.34l-.083-1.97-.346.013.013.219c.07.174.217.597.197 1.004-.026.523-.32.946-.354.993l-.129.179H.875l.343-1.473.356-.061-.034-.271a6.68 6.68 0 0 1-.013-.709.75.75 0 0 1-.216-.259.69.69 0 0 1-.056-.526l.019-.089c.043-.239.16-.493.173-.521l.306-.661.001-.003z"/></g><path d="M12.296 18v2.5l-.541-.686-.459.459v-2.107" stroke="#fff" stroke-width=".3"/></svg>