<svg xmlns="http://www.w3.org/2000/svg" width="17" height="21" fill="#fff" xmlns:v="https://vecta.io/nano"><path d="M6.498 6.204c-.534 0-1.037.236-1.378.647-.28.341-.415.781-.379 1.238s.24.898.571 1.23l3.409 3.409c.024.024.046.028.052.028s.012 0 .02-.01l.016-.016 3.473-3.493a1.78 1.78 0 0 0 .413-.633c.087-.23.127-.47.115-.714-.024-.502-.256-.962-.655-1.293l-.008-.008a1.69 1.69 0 0 0-1.079-.377c-.508 0-1.008.21-1.376.573l-.9.938-1.035-.996a1.77 1.77 0 0 0-1.263-.522m.002-.605c.611 0 1.224.232 1.69.7l.589.569.484-.504c.883-.883 2.313-1.031 3.282-.232 1.115.926 1.158 2.545.167 3.534l-3.471 3.491c-.252.274-.674.274-.946 0L4.885 9.747c-.883-.883-1.031-2.313-.232-3.282a2.38 2.38 0 0 1 1.843-.867h.002zm2.281-2.537c.107 0 .194-.087.194-.194V1.313c0-.107-.087-.194-.194-.194s-.194.087-.194.194v1.535c0 .113.093.216.194.216zm0 .605c-.442 0-.799-.379-.799-.821V1.313a.8.8 0 0 1 .799-.799.8.8 0 0 1 .799.799V2.87a.8.8 0 0 1-.799.799zm-2.692.109c.02 0 .048-.004.103-.028.044-.032.077-.079.091-.127.018-.069-.006-.109-.016-.123l-.006-.01-.774-1.319c-.042-.069-.115-.113-.184-.113-.026 0-.052.008-.077.022a.24.24 0 0 0-.109.139c-.018.069.006.109.016.123l.006.01.779 1.327c.04.069.117.099.171.099zm0 .605a.81.81 0 0 1-.694-.399l-.779-1.325c-.232-.379-.085-.863.294-1.093S5.77 1.48 6 1.859l.779 1.325c.232.379.085.863-.294 1.093-.127.063-.252.105-.399.105zm5.365-.625c.077 0 .131-.032.171-.099l.785-1.335c.03-.05.022-.103.016-.131-.014-.052-.046-.095-.087-.119l-.01-.006-.01-.006c-.024-.014-.05-.022-.081-.022a.2.2 0 0 0-.169.095l-.008.012-.773 1.317c-.024.046-.03.103-.016.157.008.028.026.077.069.105.063.03.091.034.113.034m0 .603c-.147 0-.274-.042-.399-.105-.379-.21-.504-.716-.294-1.093l.778-1.325c.21-.379.716-.526 1.093-.294.379.21.526.716.294 1.093l-.779 1.325c-.147.252-.399.399-.694.399zm4.714 6.216c-.129 0-.192.111-.222.206-.109.367-.319.853-.545 1.345.101.425.103 1.015-.252 1.7-.085.167-.204.335-.319.496-.236.333-.532.66-.877 1.039l-.178.196-.01.012-.079.079a.89.89 0 0 1-.67.293c-.147 0-.294-.034-.423-.099l-.042-.022-.038-.028a.91.91 0 0 1-.375-.621c-.028-.224.03-.452.161-.633.026-.04.053-.075.077-.099l.006-.014.059-.063c.434-.47.924-1 1.075-1.321l.008-.018c.101-.198.141-.373.111-.492-.016-.065-.056-.121-.119-.165-.03-.014-.065-.024-.093-.024l-.01.004c-.293.446-.68.887-1.055 1.315l-.196.224-.004.004c-.573.645-.984 1.168-1.218 1.551-.248.415-.633 1.567-.714 2.84l-.06 1.608h2.196v-.53c0-.367.182-.718.484-.934l.01-.008a12.78 12.78 0 0 0 2.176-1.874c.375-.446.726-1.43.988-2.773a20.76 20.76 0 0 0 .357-2.85v-.024c.008-.079 0-.19-.063-.256a.21.21 0 0 0-.151-.065m.004-.601c.438 0 .865.351.817.972-.042 1.093-.442 4.754-1.495 5.996-.504.569-1.368 1.347-2.293 1.977a.55.55 0 0 0-.232.442v.736a.4.4 0 0 1-.399.399H9.954c-.232 0-.399-.19-.399-.421l.063-1.829c.085-1.325.484-2.588.799-3.114.294-.484.779-1.073 1.283-1.642l1.2-1.472c.21-.337.631-.337.926-.167.357.232.609.716.232 1.452-.19.399-.674.926-1.178 1.472-.02.042-.062.063-.085.105-.105.127-.085.315.063.422.127.063.294.042.379-.062l.085-.085 1.01-1.178.274-.422c.295-.569.295-1.073.147-1.472l.609-1.472c.135-.436.472-.635.803-.635zm-8.84 9.917l-.04-1.174-.014-.452c-.04-1.267-.446-2.39-.692-2.799-.234-.383-.641-.904-1.214-1.547-.448-.49-.91-1.017-1.25-1.539-.01-.012-.016-.012-.024-.012a.21.21 0 0 0-.097.028c-.085.053-.103.121-.109.143-.018.071-.026.23.111.508.182.341.649.867 1.085 1.339l.058.063.006.014a.84.84 0 0 1 .058.073.85.85 0 0 1 .188.664c-.036.264-.19.5-.417.637a.86.86 0 0 1-.464.135c-.244 0-.478-.101-.662-.284l-.095-.095A15.41 15.41 0 0 1 2.7 14.368l-.012-.016-.196-.296-.089-.139-.018-.028-.016-.03c-.355-.686-.355-1.273-.256-1.7-.179-.383-.42-.932-.543-1.347-.044-.139-.121-.21-.23-.21-.063 0-.123.026-.163.069-.063.067-.071.169-.067.246a23.71 23.71 0 0 0 .365 2.862c.262 1.349.611 2.336.984 2.775.446.522 1.281 1.24 2.18 1.874h.004c.303.22.484.569.484.936v.531h2.188m.22.605H4.929a.4.4 0 0 1-.399-.399v-.736a.55.55 0 0 0-.232-.442c-.926-.652-1.809-1.41-2.293-1.977C.952 15.701.572 12.041.51 10.948c-.063-1.073 1.325-1.325 1.642-.315.105.357.337.906.609 1.472-.147.399-.147.906.147 1.472l.274.422c.274.357.609.756 1.01 1.178l.085.085c.105.105.252.147.379.063.147-.085.19-.294.063-.421-.02-.042-.063-.063-.085-.105-.504-.547-.968-1.073-1.178-1.472-.379-.756-.127-1.24.232-1.452.294-.167.694-.167.926.167.315.484.756.988 1.198 1.472.504.569.988 1.158 1.283 1.642.315.526.736 1.767.779 3.092l.063 1.829c0 .232-.167.421-.399.421z"/></svg>