<svg xmlns="http://www.w3.org/2000/svg" width="70.994" height="10.732" viewBox="0 0 70.994 10.732">
  <path id="Union_28" data-name="Union 28" d="M22544.791,15711.464l.969-2.426-1.984-4.982h.908l1.545,4.082,1.521-4.082h.846l-2.961,7.408Zm-36.965-1.27-3.518-1.82a1.081,1.081,0,0,1-.578-.96,1.055,1.055,0,0,1,.547-.937l1.807.938,2.479,1.284a.278.278,0,0,0,.236,0l2.48-1.284-.564-.293-.229-.116-.27.142-.217.115-.111.055-.105.055-.244.12a1.814,1.814,0,0,1-1.713,0l-.523-.267-.154-.078-1.492-.772-.107-.055-.215-.11-1.025-.529a1.057,1.057,0,0,1-.541-.694.656.656,0,0,1-.031-.17c0-.03-.006-.067-.006-.1a1.083,1.083,0,0,1,.578-.96l3.518-1.818a1.867,1.867,0,0,1,1.713,0l3.518,1.818a1.089,1.089,0,0,1,.576.96c0,.03-.006.067-.006.1a.879.879,0,0,1-.029.17,1.069,1.069,0,0,1-.541.694l-.754.388.227.117.527.274a1.073,1.073,0,0,1,.576.955,1.087,1.087,0,0,1-.576.96l-3.518,1.82a1.891,1.891,0,0,1-1.713,0Zm.736-6.759-2.264,1.175-.215.107.713.372.215.108.137.067.213.116.221.11.98.51a.252.252,0,0,0,.119.025.23.23,0,0,0,.117-.025l.984-.51.105-.055.111-.056.211-.116.141-.067.215-.108.713-.372-.215-.107-2.266-1.175a.255.255,0,0,0-.119-.028A.247.247,0,0,0,22508.563,15703.436Zm61.359,4.179h.844c.041.486.463.852,1.158.852.643,0,1.006-.328,1.006-.742,0-1.119-2.914-.468-2.914-2.342,0-.771.713-1.4,1.807-1.4a1.66,1.66,0,0,1,1.855,1.582h-.812a.953.953,0,0,0-1.072-.877c-.6,0-.955.292-.955.7,0,1.192,2.852.542,2.887,2.342,0,.827-.705,1.454-1.795,1.454A1.8,1.8,0,0,1,22569.922,15707.614Zm-14.051-1.045a2.365,2.365,0,0,1,2.43-2.592,2.278,2.278,0,0,1,2.359,2.4c0,.19-.01.335-.021.5h-3.936a1.565,1.565,0,0,0,1.6,1.582,1.355,1.355,0,0,0,1.385-.925h.879a2.227,2.227,0,0,1-2.264,1.637A2.4,2.4,0,0,1,22555.871,15706.569Zm.844-.36h3.1a1.459,1.459,0,0,0-1.553-1.526A1.537,1.537,0,0,0,22556.715,15706.209Zm-7.967,1.405h.846c.043.486.461.852,1.152.852.648,0,1.006-.328,1.006-.742,0-1.119-2.906-.468-2.906-2.342,0-.771.713-1.4,1.807-1.4a1.658,1.658,0,0,1,1.854,1.582h-.814a.954.954,0,0,0-1.07-.877c-.6,0-.957.292-.957.7,0,1.192,2.854.542,2.891,2.342,0,.827-.709,1.454-1.795,1.454A1.8,1.8,0,0,1,22548.748,15707.614Zm-26.281-1.064a2.557,2.557,0,1,1,5.111,0,2.517,2.517,0,0,1-2.594,2.628A2.462,2.462,0,0,1,22522.467,15706.55Zm1.27,0c0,1.009.578,1.5,1.248,1.5a1.341,1.341,0,0,0,1.3-1.5,1.325,1.325,0,0,0-1.285-1.508C22524.338,15705.042,22523.736,15705.527,22523.736,15706.55Zm15.426.834h.867a1.169,1.169,0,0,0,1.3,1.064,1.106,1.106,0,0,0,1.254-1.064c0-1.729-3.383-.627-3.383-3.006a1.837,1.837,0,0,1,2.076-1.771,1.877,1.877,0,0,1,2.066,1.644h-.893a1.151,1.151,0,0,0-1.217-.931,1.048,1.048,0,0,0-1.2,1.034c0,1.648,3.377.621,3.377,2.993a1.89,1.89,0,0,1-2.08,1.807A1.916,1.916,0,0,1,22539.162,15707.384Zm-23.482-1.509a3.142,3.142,0,0,1,3.2-3.278,2.871,2.871,0,0,1,2.912,2.014h-1.445a1.558,1.558,0,0,0-1.467-.827,1.894,1.894,0,0,0-1.906,2.092,1.914,1.914,0,0,0,1.961,2.116,1.713,1.713,0,0,0,1.777-1.479h-2.158v-.985h3.395v1.119a3.076,3.076,0,0,1-3.061,2.5A3.136,3.136,0,0,1,22515.68,15705.875Zm52.762,3.218v-2.848c0-1.027-.541-1.558-1.346-1.558-.824,0-1.395.548-1.395,1.632v2.773h-.8v-2.848c0-1.027-.541-1.558-1.35-1.558-.826,0-1.391.548-1.391,1.632v2.773h-.818v-5.037h.818v.729a1.757,1.757,0,0,1,1.551-.82,1.857,1.857,0,0,1,1.807,1.118,1.819,1.819,0,0,1,1.736-1.118,1.932,1.932,0,0,1,2,2.159v2.969Zm-13.594,0c-.873,0-1.367-.365-1.367-1.382v-4.922h.82v1.267h1.283v.692h-1.283v2.963c0,.5.178.677.686.677h.6v.705Zm-17.635,0v-2.811c0-.82-.439-1.26-1.1-1.26-.686,0-1.123.439-1.123,1.26v2.811h-1.26V15704h1.26v.639a1.82,1.82,0,0,1,1.5-.712,1.939,1.939,0,0,1,1.986,2.179v2.986Zm-5.725,0V15704h1.254v5.092Zm-3.383,0V15704h1.256v.791a1.721,1.721,0,0,1,1.525-.864v1.35h-.332c-.744,0-1.193.3-1.193,1.279v2.536Zm3.248-6.448a.769.769,0,1,1,.771.754A.743.743,0,0,1,22531.354,15702.645Z" transform="translate(-22503.23 -15701.231)" fill="#fff" stroke="rgba(0,0,0,0)" stroke-width="1"/>
</svg>
