<svg xmlns="http://www.w3.org/2000/svg" width="21" height="21" fill="none" xmlns:v="https://vecta.io/nano"><g clip-path="url(#A)"><path d="M.75 6.813l1.374-1.12 2.808-2.205c.446-.341.945-.604 1.496-.735 1.032-.227 1.96.21 2.493 1.164.341.612.49 1.286.612 1.96l.901 4.646c.175.612.359 1.225.691 1.776.367.595.761.682 1.242.201a11.53 11.53 0 0 0 1.225-1.461c.499-.7.936-1.444 1.242-2.248.131-.35.201-.717.175-1.085-.044-.7-.429-1.085-1.146-1.129-.464-.026-.919.044-1.365.175l-.324.096.367-.927c.429-.971 1.015-1.829 1.881-2.467.822-.595 1.75-.884 2.747-.945.56-.035 1.12-.035 1.662.131 1.015.297 1.575 1.015 1.785 2.021.254 1.225.096 2.406-.385 3.552-.472 1.146-1.111 2.187-1.828 3.193-1.234 1.715-2.572 3.36-4.121 4.812-.884.831-1.837 1.575-2.966 2.056a4.34 4.34 0 0 1-1.374.341c-.77.061-1.382-.262-1.872-.822-.674-.761-1.102-1.662-1.391-2.633L4.993 9.525c-.21-.674-.472-1.339-.91-1.907a1.94 1.94 0 0 0-.324-.332c-.245-.192-.507-.262-.796-.087l-1.277.752L.75 6.848v-.035z" fill="#fff"/></g><defs><clipPath id="A"><path fill="#fff" transform="translate(.75 .5)" d="M0 0h20v20H0z"/></clipPath></defs></svg>