<svg xmlns="http://www.w3.org/2000/svg" width="21" height="21" fill="none" xmlns:v="https://vecta.io/nano"><g clip-path="url(#A)"><path d="M17.867 3.417A9.86 9.86 0 0 0 10.819.5h-.014a9.96 9.96 0 0 0-9.952 9.869v.076c.021 1.724.469 3.414 1.31 4.917L.75 20.5l5.276-1.352c1.462.793 3.097 1.207 4.759 1.186 5.483-.034 9.924-4.462 9.966-9.945a9.76 9.76 0 0 0-2.883-6.972zm-7.048 15.248a8.11 8.11 0 0 1-4.186-1.138l-.324-.165-3.138.807.814-3.083-.221-.324a8.18 8.18 0 0 1-1.241-4.317 8.27 8.27 0 0 1 8.207-8.317 8.27 8.27 0 0 1 8.317 8.207c.021 2.876-1.462 5.552-3.904 7.069-1.283.814-2.772 1.248-4.296 1.241m4.779-5.986l-.6-.269s-.869-.379-1.414-.648c-.055 0-.11-.055-.165-.055-.131 0-.262.041-.379.11s-.055.055-.814.917c-.055.103-.159.165-.276.165h-.048c-.083-.014-.159-.048-.221-.11l-.276-.11a5.33 5.33 0 0 1-1.579-1.028c-.11-.11-.276-.214-.379-.324-.4-.386-.752-.821-1.034-1.296l-.055-.11a.9.9 0 0 1-.11-.214c-.014-.09 0-.186.055-.269a4.5 4.5 0 0 1 .379-.434c.166-.159.166-.269.276-.379a.68.68 0 0 0 .11-.538c-.255-.697-.545-1.386-.876-2.055a.62.62 0 0 0-.379-.269h-.6c-.11 0-.221.055-.324.055l-.055.055c-.11.055-.221.166-.324.214-.11.055-.166.214-.269.324a2.75 2.75 0 0 0-.6 1.676c0 .428.097.848.269 1.241l.055.159a8.95 8.95 0 0 0 2.014 2.759l.221.214a3.23 3.23 0 0 1 .434.434c1.131.973 2.469 1.676 3.917 2.055.165.055.379.055.545.11h.545c.283-.014.566-.09.814-.214.131-.062.262-.131.379-.214l.11-.11c.11-.11.221-.165.324-.269a1.56 1.56 0 0 0 .276-.324c.103-.241.179-.496.221-.759v-.379a.69.69 0 0 0-.165-.11z" fill="#fff"/></g><defs><clipPath id="A"><path fill="#fff" transform="translate(.75 .5)" d="M0 0h20v20H0z"/></clipPath></defs></svg>