<svg xmlns="http://www.w3.org/2000/svg" width="80" height="22.659" viewBox="0 0 80 22.659">
  <path id="Path_89148" data-name="Path 89148" d="M89.1,91.525c0,2.159-1.373,3.166-3.831,3.166h-4.7V92.532h4.7a1.5,1.5,0,0,0,.94-.215.915.915,0,0,0,.289-.648,1.093,1.093,0,0,0-.289-.719,1.258,1.258,0,0,0-.868-.216c-2.24-.073-5.059.071-5.059-3.095,0-1.44.939-3.023,3.469-3.023H88.6v2.159H84.116a1.72,1.72,0,0,0-.939.143,1.029,1.029,0,0,0-.361.792.785.785,0,0,0,.506.72,3.709,3.709,0,0,0,.94.143h1.3a4.112,4.112,0,0,1,2.819.792A3.1,3.1,0,0,1,89.1,91.525Zm-10.19-2.159a4.112,4.112,0,0,0-2.819-.792h-1.3a3.72,3.72,0,0,1-.939-.143.783.783,0,0,1-.506-.72.842.842,0,0,1,.361-.792,1.718,1.718,0,0,1,.939-.143H79.13V84.616H74.288c-2.6,0-3.47,1.583-3.47,3.023,0,3.166,2.819,3.022,5.06,3.095a1.255,1.255,0,0,1,.866.216,1.1,1.1,0,0,1,.29.719.913.913,0,0,1-.29.648,1.649,1.649,0,0,1-.939.215h-4.7v2.159h4.7c2.456,0,3.83-1.007,3.83-3.166a3.1,3.1,0,0,0-.722-2.159ZM69.662,92.6H63.954V90.59h5.564V88.575H63.954V86.7h5.708V84.617H61.569V94.692h8.093V92.6Zm-10.7-7.484a6.088,6.088,0,0,0-2.963-.5H50.44V94.691H52.9v-3.67h2.6c.866,0,1.373.073,1.735.432a3.2,3.2,0,0,1,.434,2.015v1.223h2.384V92.748a3.31,3.31,0,0,0-.361-1.871,2.818,2.818,0,0,0-1.228-.864A2.773,2.773,0,0,0,60.2,87.35,2.258,2.258,0,0,0,58.967,85.121Zm-13.731-.5H37.5L34.4,87.927l-2.963-3.311H21.677V94.691h9.612L34.4,91.38l2.963,3.311h4.7V91.309h3.035c2.1,0,4.192-.576,4.192-3.383,0-2.735-2.169-3.311-4.048-3.311Zm11.779,4.175a3.014,3.014,0,0,1-1.156.143l-2.963.073V86.7h2.963a1.967,1.967,0,0,1,1.156.216.915.915,0,0,1,.506.864A1.256,1.256,0,0,1,57.016,88.791Zm-11.779.5h-3.18V86.7h3.18c.868,0,1.445.36,1.445,1.224A1.308,1.308,0,0,1,45.236,89.294Zm-9.323.359L39.671,85.7v8.132ZM30.06,92.6h-6V90.59h5.348V88.575H24.061V86.7h6.071l2.674,2.951L30.06,92.6Zm64.215-10.5H90.807l-4.553-7.557v7.557H81.34l-.94-2.231H75.341L74.4,82.107H71.583a5.242,5.242,0,0,1-3.54-1.152,5.253,5.253,0,0,1-1.229-3.814,5.188,5.188,0,0,1,1.3-3.958A4.918,4.918,0,0,1,71.8,72.032h2.312v2.159H71.8a2.562,2.562,0,0,0-1.879.576,3.252,3.252,0,0,0-.651,2.3,3.591,3.591,0,0,0,.651,2.375,2.418,2.418,0,0,0,1.662.5h1.084l3.469-7.916h3.614l4.047,9.5v-9.5h3.758l4.264,6.981V72.032h2.456V82.107h0ZM65.585,72.032H63.129V82.107h2.456Zm-5.131.432a5.838,5.838,0,0,0-2.89-.432H52V82.107h2.385V78.437h2.6a2.484,2.484,0,0,1,1.807.432,3.045,3.045,0,0,1,.361,1.943v1.3h2.456V80.092a2.678,2.678,0,0,0-.433-1.8,3.023,3.023,0,0,0-1.156-.863,2.858,2.858,0,0,0,1.735-2.663,2.491,2.491,0,0,0-1.3-2.3Zm-10.19,7.557H44.627V78.005h5.565V75.919H44.627v-1.8h5.637V72.033H42.17V82.108h8.094V80.021Zm-9.9-7.989H36.389l-2.963,6.837-3.18-6.837h-3.9v9.5l-4.119-9.5H18.611L14.275,82.107h2.6l.939-2.231h5.059l.939,2.231h4.914V74.191l3.541,7.916h2.1l3.541-7.916v7.916h2.457V72.032h0Zm39.17,5.685-1.663-3.958-1.662,3.958ZM58.575,76.135a2.217,2.217,0,0,1-1.228.216H54.383V74.12h2.963a3.2,3.2,0,0,1,1.228.144,1.069,1.069,0,0,1,.434.935A.99.99,0,0,1,58.575,76.135ZM18.683,77.717l1.662-3.958,1.662,3.958Z" transform="translate(-14.275 -72.032)" fill="#003652" fill-rule="evenodd"/>
</svg>
