<svg xmlns="http://www.w3.org/2000/svg" width="40.851" height="32" viewBox="0 0 40.851 32">
  <path id="Path_89194" data-name="Path 89194" d="M13204.012,9573h-7.768a16.43,16.43,0,0,1-11.469-4.671,15.935,15.935,0,0,1-3.492-5.043,15.312,15.312,0,0,1-1.281-6.151,16.654,16.654,0,0,1,1.289-6.545,15.359,15.359,0,0,1,3.511-5.1,16.5,16.5,0,0,1,11.516-4.487h7.619a17.761,17.761,0,0,1,6.376,1.175,17.1,17.1,0,0,1,5.4,3.311,15.558,15.558,0,0,1,5.138,11.649,14.408,14.408,0,0,1-1.388,6.149,16.359,16.359,0,0,1-3.725,5.045,17.606,17.606,0,0,1-5.376,3.411A16.832,16.832,0,0,1,13204.012,9573Zm-7.791-29.9a14.107,14.107,0,0,0-9.935,4.069,13.869,13.869,0,0,0-3.011,4.414,13.781,13.781,0,0,0,3.011,15.231,13.985,13.985,0,0,0,4.466,2.976,14.238,14.238,0,0,0,10.94,0,14.033,14.033,0,0,0,7.478-7.392,13.768,13.768,0,0,0,0-10.815,14.038,14.038,0,0,0-7.478-7.39A14.117,14.117,0,0,0,13196.221,9543.105Zm3.186,22.114v-16.437a8.862,8.862,0,0,1,4.115,3.175,8.71,8.71,0,0,1,0,10.083,8.939,8.939,0,0,1-4.113,3.179Zm-6.377-.006v0a8.877,8.877,0,0,1-4.1-3.176,8.686,8.686,0,0,1,0-10.076,8.875,8.875,0,0,1,4.1-3.177v16.431Z" transform="translate(-13180.002 -9541.002)" fill="#003652"/>
</svg>
