<svg xmlns="http://www.w3.org/2000/svg" width="80" height="14.183" viewBox="0 0 80 14.183">
  <path id="Path_89150" data-name="Path 89150" d="M2.834,80.867H6.5a13.558,13.558,0,0,1,1.989.156c3.232.466,5.781,2.176,5.781,6.713,0,4.507-2.549,6.247-5.781,6.682a13.653,13.653,0,0,1-1.989.124H2.834Zm74.529,5.812c1.026-.124,1.864-.56,1.864-1.865,0-1.243-.838-1.585-1.864-1.74H75.5v3.668h.87C76.71,86.741,77.052,86.71,77.363,86.679Zm0-5.78c2.424.093,4.662.591,4.662,3.7a3.06,3.06,0,0,1-2.735,3.17c.715.093,1.15.808,1.4,1.43l2.145,5.345H79.85l-1.616-4.289a1.687,1.687,0,0,0-1.865-1.4H75.5v5.688H72.826V80.867h2.89c.528,0,1.119,0,1.647.031Zm-24.9,4.071a7.537,7.537,0,0,1,.466,2.735,7.9,7.9,0,0,1-.466,2.735,6.562,6.562,0,0,1-6.5,4.351c-4.289,0-7.024-2.922-7.024-7.086a6.664,6.664,0,0,1,7.024-7.055A6.537,6.537,0,0,1,52.468,84.97Zm0-2.89,4.725,12.463h.994l5.253-13.675h-2.8l-2.8,7.21-2.983-7.21H52Zm11.655-1.212h7.956v2.207H66.827V86.43h4.786v2.113H66.827V92.4h5.284v2.144H64.124V80.867ZM8.49,83.291a4.618,4.618,0,0,0-1.46-.218H5.507V92.4H7.03a4.653,4.653,0,0,0,1.46-.248,4.779,4.779,0,0,0,0-8.858Zm6.838-2.424h2.7V94.542h-2.7ZM26.7,84.5A7.492,7.492,0,0,0,23.72,83.2c-.963-.124-1.989.155-1.989,1.523,0,2.362,5.905,1.367,5.905,5.936,0,2.983-2.362,4.444-5.066,4.133a6.77,6.77,0,0,1-3.45-1.367v-2.8a13.075,13.075,0,0,0,3.294,1.647c1.15.187,2.393-.156,2.393-1.4,0-2.642-5.874-1.554-5.874-6.061,0-3.046,2.3-4.165,4.662-4.165A4.532,4.532,0,0,1,26.7,81.892V84.5Zm11.561,8.671a5.353,5.353,0,0,1-3.388,1.461c-4.2.28-6.993-2.051-6.993-6.682,0-4.662,2.455-7.4,6.993-7.148a5.891,5.891,0,0,1,3.326,1.15v2.611a7.236,7.236,0,0,0-3.326-1.243c-2.766-.093-4.2,1.647-4.2,4.444s1.336,4.351,4.2,4.227a7.192,7.192,0,0,0,3.388-1.429Z" transform="translate(-2.834 -80.649)" fill="#003652" fill-rule="evenodd"/>
</svg>
