<svg xmlns="http://www.w3.org/2000/svg" width="40" height="40" viewBox="0 0 40 40">
  <g id="Group_4864" data-name="Group 4864" transform="translate(13440.56 8883.482)">
    <path id="Subtraction_20" data-name="Subtraction 20" d="M33.642,40H25.714V37.415a7.4,7.4,0,0,1-2.223,1.858A5.752,5.752,0,0,1,20.785,40H12.857V37.415a7.4,7.4,0,0,1-2.223,1.858A5.752,5.752,0,0,1,7.928,40H0V6.535A7.18,7.18,0,0,1,.494,3.848,5.954,5.954,0,0,1,1.866,1.786,6.072,6.072,0,0,1,3.948.466,7.3,7.3,0,0,1,6.571,0h7.714V2.226A6.046,6.046,0,0,1,16.509.575,7.27,7.27,0,0,1,19.428,0h7.714V2.226A6.046,6.046,0,0,1,29.366.575,7.269,7.269,0,0,1,32.285,0H40V33.608a6.4,6.4,0,0,1-1.973,4.408A6.338,6.338,0,0,1,33.642,40ZM32.285,1.437a5.944,5.944,0,0,0-2.039.342,4.68,4.68,0,0,0-1.631,1,5.019,5.019,0,0,0-1.473,3.761V38.564h6.5a5.051,5.051,0,0,0,3.321-1.427,4.84,4.84,0,0,0,1.607-3.528V1.437Zm-12.857,0a5.944,5.944,0,0,0-2.039.342,4.68,4.68,0,0,0-1.631,1,5.019,5.019,0,0,0-1.473,3.761V38.564h6.5a5.051,5.051,0,0,0,3.321-1.427,4.84,4.84,0,0,0,1.607-3.528V1.437Zm-12.857,0a5.944,5.944,0,0,0-2.039.342,4.68,4.68,0,0,0-1.631,1A5.019,5.019,0,0,0,1.429,6.535V38.564h6.5a5.051,5.051,0,0,0,3.321-1.427,4.841,4.841,0,0,0,1.607-3.528V1.437Z" transform="translate(-13440.56 -8883.482)" fill="#003652"/>
    <path id="Path_89186" data-name="Path 89186" d="M50.059,71.242h6.468a5.182,5.182,0,0,0,4.9-4.952V34.137H55.176a4.814,4.814,0,0,0-5.117,5.1Z" transform="translate(-13489.171 -8916.172)" fill="#003652" fill-rule="evenodd" opacity="0.1"/>
    <path id="Path_89187" data-name="Path 89187" d="M82.627,71.242h6.535a5.21,5.21,0,0,0,4.955-4.952V34.137H87.8a4.841,4.841,0,0,0-5.171,5.1Z" transform="translate(-13508.978 -8916.172)" fill="#003652" fill-rule="evenodd" opacity="0.2"/>
    <path id="Path_89188" data-name="Path 89188" d="M115.195,71.242h6.5a5.193,5.193,0,0,0,4.925-4.952V34.137h-6.281a4.825,4.825,0,0,0-5.139,5.1Z" transform="translate(-13528.623 -8916.172)" fill="#003652" fill-rule="evenodd" opacity="0.3"/>
    <path id="Path_89189" data-name="Path 89189" d="M52.3,75.586H50.489A4.5,4.5,0,0,0,55.222,79.1c2.461,0,5.79-1.375,5.79-3.981v-4.7H56.886v4.7c0,1.375-.676,2.551-2.2,2.551A2.3,2.3,0,0,1,52.3,75.586Z" transform="translate(-13489.171 -8938.149)" fill="#003652" fill-rule="evenodd"/>
    <path id="Path_89191" data-name="Path 89191" d="M107.531,76.512a2.048,2.048,0,0,1-2.171,1.954H96.646V70.5h8.713a2.026,2.026,0,0,1,0,4.053A2.048,2.048,0,0,1,107.531,76.512Zm-7.57-2.389h2.823a1.375,1.375,0,1,0,0-2.75H99.96v2.75Zm2.9,3.474a1.375,1.375,0,0,0,0-2.75h-2.9V77.6h2.9Zm-8.4-.506v1.375H87.888a3.981,3.981,0,1,1,0-7.961H94.46v1.448a23.108,23.108,0,0,0-4.053-.579c-1.737,0-2.736,1.375-2.736,3.112s1,3.112,2.736,3.112A21.629,21.629,0,0,0,94.46,77.09Z" transform="translate(-13509.784 -8938.146)" fill="#003652" fill-rule="evenodd"/>
  </g>
</svg>
