<svg xmlns="http://www.w3.org/2000/svg" width="40" height="31.119" viewBox="0 0 40 31.119">
  <g id="mastercard-2" transform="translate(0 0.001)">
    <path id="Path_43868" data-name="Path 43868" d="M140.7,1321.455v.08h.075a.08.08,0,0,0,.04-.01.036.036,0,0,0,.015-.031.034.034,0,0,0-.015-.03.073.073,0,0,0-.04-.01H140.7Zm.075-.057a.139.139,0,0,1,.09.026.086.086,0,0,1,.031.071.081.081,0,0,1-.025.062.122.122,0,0,1-.072.03l.1.114h-.077l-.092-.113h-.03v.113h-.064v-.3h.14Zm-.02.407a.238.238,0,0,0,.1-.02.265.265,0,0,0,.08-.054.253.253,0,0,0,.054-.08.259.259,0,0,0,0-.2.263.263,0,0,0-.054-.08.254.254,0,0,0-.08-.054.249.249,0,0,0-.1-.019.262.262,0,0,0-.1.019.254.254,0,0,0-.082.054.259.259,0,0,0-.053.28.24.24,0,0,0,.053.08.254.254,0,0,0,.082.054.252.252,0,0,0,.1.02m0-.58a.336.336,0,0,1,.235.1.322.322,0,0,1,.071.357.336.336,0,0,1-.071.1.358.358,0,0,1-.105.07.326.326,0,0,1-.13.026.331.331,0,0,1-.131-.026.311.311,0,0,1-.176-.177.322.322,0,0,1,.071-.357.314.314,0,0,1,.106-.07.331.331,0,0,1,.131-.026m-30.621-1.165a.994.994,0,1,1,1,1.051.985.985,0,0,1-1-1.051m2.657,0v-1.642h-.714v.4a1.244,1.244,0,0,0-1.037-.481,1.726,1.726,0,0,0,0,3.447,1.245,1.245,0,0,0,1.037-.481v.4h.713v-1.642Zm24.115,0a.994.994,0,1,1,1,1.051.985.985,0,0,1-1-1.051m2.658,0v-2.96h-.714v1.718a1.244,1.244,0,0,0-1.037-.481,1.726,1.726,0,0,0,0,3.447,1.244,1.244,0,0,0,1.037-.481v.4h.714Zm-17.915-1.085a.815.815,0,0,1,.831.8h-1.7a.845.845,0,0,1,.872-.8m.014-.64a1.725,1.725,0,0,0,.048,3.447,1.994,1.994,0,0,0,1.345-.46l-.35-.529a1.565,1.565,0,0,1-.955.343.911.911,0,0,1-.982-.8H123.2c.007-.089.014-.178.014-.274a1.575,1.575,0,0,0-1.559-1.723m8.617,1.723a.994.994,0,1,1,1,1.051.985.985,0,0,1-1-1.051m2.657,0v-1.64h-.713v.4a1.245,1.245,0,0,0-1.037-.481,1.726,1.726,0,0,0,0,3.447,1.245,1.245,0,0,0,1.037-.481v.4h.714v-1.642Zm-6.688,0a1.658,1.658,0,0,0,1.751,1.724,1.715,1.715,0,0,0,1.18-.391l-.343-.577a1.442,1.442,0,0,1-.86.3,1.053,1.053,0,0,1,0-2.1,1.446,1.446,0,0,1,.86.3l.343-.577a1.718,1.718,0,0,0-1.18-.391,1.658,1.658,0,0,0-1.751,1.723m9.2-1.723a.969.969,0,0,0-.865.481v-.4h-.707v3.282h.715v-1.84c0-.543.233-.845.7-.845a1.159,1.159,0,0,1,.446.082l.22-.673a1.516,1.516,0,0,0-.509-.09m-19.13.343a2.454,2.454,0,0,0-1.338-.343c-.832,0-1.367.4-1.367,1.051,0,.535.4.865,1.132.968l.337.048c.391.055.576.158.576.343,0,.254-.26.4-.748.4a1.748,1.748,0,0,1-1.092-.343l-.335.557a2.367,2.367,0,0,0,1.421.426c.948,0,1.5-.446,1.5-1.071,0-.577-.432-.879-1.147-.982l-.336-.049c-.309-.04-.557-.1-.557-.322,0-.24.233-.384.625-.384a2.12,2.12,0,0,1,1.023.281l.309-.577Zm9.209-.343a.966.966,0,0,0-.864.481v-.4h-.707v3.282h.714v-1.84c0-.543.233-.845.7-.845a1.159,1.159,0,0,1,.446.082l.22-.673a1.516,1.516,0,0,0-.509-.09m-6.09.083h-1.167v-1h-.721v1h-.666v.652h.666v1.5c0,.761.3,1.215,1.14,1.215a1.677,1.677,0,0,0,.893-.254l-.206-.611a1.319,1.319,0,0,1-.632.186c-.357,0-.473-.22-.473-.549v-1.483h1.167Zm-10.67,3.283v-2.06a1.222,1.222,0,0,0-1.291-1.3,1.271,1.271,0,0,0-1.154.584,1.2,1.2,0,0,0-1.085-.584,1.085,1.085,0,0,0-.961.488v-.406h-.714v3.282h.72v-1.82a.768.768,0,0,1,.8-.872c.474,0,.714.309.714.865v1.827h.722v-1.82a.774.774,0,0,1,.8-.872c.487,0,.72.309.72.865v1.826Z" transform="translate(-101.489 -1290.762)" fill="#003652"/>
    <path id="Path_43869" data-name="Path 43869" d="M1929.891,977.7v-.48h-.125l-.145.329-.144-.329h-.125v.48h.089v-.361l.135.312h.092l.135-.313v.362h.088Zm-.793,0v-.4h.16v-.081h-.409v.081h.16v.4h.088Z" transform="translate(-1890.278 -957.679)" fill="#003652"/>
    <path id="Subtraction_11" data-name="Subtraction 11" d="M12763,10024.077h0a12.353,12.353,0,1,1,4.727-9.719,12.307,12.307,0,0,1-4.727,9.719Z" transform="translate(-12743 -10002)" fill="#003652" opacity="0.6"/>
    <path id="Path_43871" data-name="Path 43871" d="M15.278,12.361A12.341,12.341,0,0,1,20,2.642,12.362,12.362,0,1,0,20,22.08a12.341,12.341,0,0,1-4.721-9.719" fill="#003652" opacity="0.8"/>
    <path id="Path_43872" data-name="Path 43872" d="M1020.11,12.361a12.361,12.361,0,0,1-20,9.719,12.363,12.363,0,0,0,0-19.438,12.361,12.361,0,0,1,20,9.719" transform="translate(-980.11 0)" fill="#003652"/>
  </g>
</svg>
