<svg xmlns="http://www.w3.org/2000/svg" width="65.074" height="21.112" viewBox="0 0 65.074 21.112">
  <g id="Group_4866" data-name="Group 4866" transform="translate(0.002 -0.002)">
    <path id="Union_4" data-name="Union 4" d="M7213.148,13965.626l.789-4.578c2.173,1.745,8.763,2.24,8.763-.525s-7.347-2.836-7.347-8.1c0-5.6,6.26-6.751,8.893-6.751a15.307,15.307,0,0,1,4.778.891l-.757,4.378c-2.275-1.252-7.445-1.55-7.445.757s7.41,2.8,7.41,8.1c0,5.106-5.468,6.982-9.089,6.982A14.852,14.852,0,0,1,7213.148,13965.626Zm-21.315.8-4.613-17.719a19.772,19.772,0,0,0-5.556-2.331v0h0l.1-.344h8.371a2.275,2.275,0,0,1,2.52,1.837l1.784,9.17.6,3.021,5.062-14.028h5.713l-8.448,20.4Zm50.03,0-.62-3.028h-6.751l-1.108,3.028h-5.535l7.918-18.875a2.441,2.441,0,0,1,2.454-1.519h4.266l4.252,20.394Zm-5.843-7.214h4.361l-1.57-7.631Zm-31.452,7.214,3.316-20.394h5.311l-3.319,20.394Z" transform="translate(-7181.666 -13945.666)" fill="#fff"/>
  </g>
</svg>
