<svg xmlns="http://www.w3.org/2000/svg" width="48" height="48" style="shape-rendering:geometricPrecision;text-rendering:geometricPrecision;image-rendering:optimizeQuality;fill-rule:evenodd;clip-rule:evenodd"><path fill="#f7a022" d="M-.5-.5h48v48h-48v-48Z" style="opacity:1"/><path fill="#fffcf9" d="M21.5 6.5c2.825-.42 4.991.58 6.5 3l13 24c.825 2.2.325 4.034-1.5 5.5a256.237 256.237 0 0 1-32 0c-1.825-1.466-2.325-3.3-1.5-5.5a267.566 267.566 0 0 1 15.5-27Z" style="opacity:1"/><path fill="#f79f1e" d="M22.5 16.5c1.287 1.371 1.953 3.205 2 5.5l-1 5.5a31.121 31.121 0 0 1-1-11Z" style="opacity:1"/><path fill="#f9af47" d="M22.5 30.5c3.36.703 3.694 2.036 1 4-2.142-.937-2.476-2.27-1-4Z" style="opacity:1"/></svg>