<svg xmlns="http://www.w3.org/2000/svg" width="169.222" height="100" viewBox="0 0 169.222 100">
  <g id="Group_4445" data-name="Group 4445" transform="translate(-876.043 -93)">
    <path id="Path_43877" data-name="Path 43877" d="M.36,311.081c1.237-5.088,4.365-7.856,9.735-8.539a17.407,17.407,0,0,1,9.071.931c3.84,1.6,5.624,4.551,5.873,8.478.038.592-.169.768-.778.759-2.087-.031-4.174-.023-6.261,0-.492,0-.664-.127-.724-.631-.288-2.425-1.623-3.731-3.858-3.862-2.742-.16-4.4.9-4.905,3.422a15.559,15.559,0,0,0,.04,6.548c.545,2.385,2.154,3.4,4.837,3.264,2.455-.125,3.79-1.29,4.121-3.691.083-.6.354-.7.905-.7,1.921.026,3.844.041,5.764-.006.729-.018.882.225.859.877a8.983,8.983,0,0,1-6.825,8.658,18.932,18.932,0,0,1-10.773-.067A9.806,9.806,0,0,1,.41,318.908a27.381,27.381,0,0,1-.367-3.97A24.817,24.817,0,0,1,.36,311.081Z" transform="translate(876 -149.338)" fill="#003652"/>
    <path id="Path_43878" data-name="Path 43878" d="M175.735,316.992c0,3.794-.027,7.588.021,11.381.011.855-.27,1.041-1.071,1.019q-2.986-.082-5.976,0c-.8.022-1.086-.16-1.065-1.017.061-2.473,0-4.948.036-7.422.011-.729-.116-1.05-.965-1.026-2.256.065-4.516.055-6.772,0-.8-.018-1.092.166-1.072,1.023.059,2.473,0,4.948.036,7.422.012.74-.135,1.043-.97,1.018-2.123-.063-4.25-.038-6.374-.01-.585.008-.808-.138-.807-.766q.029-11.728,0-23.456c0-.644.247-.763.821-.756,2.158.026,4.317.032,6.474,0,.652-.01.862.191.853.843-.033,2.441.012,4.883-.028,7.323-.012.708.139.98.922.962q3.484-.08,6.972,0c.8.019.921-.28.91-.973-.037-2.408.016-4.817-.032-7.224-.015-.75.206-.954.95-.936,2.058.05,4.118.058,6.175,0,.824-.024.984.268.977,1.015-.033,3.86-.015,7.719-.015,11.579" transform="translate(754.838 -151.397)" fill="#003652"/>
    <path id="Path_43879" data-name="Path 43879" d="M376.279,28.881A34.053,34.053,0,0,0,365.63,7.9,47.619,47.619,0,0,0,354.1,0h-.393c-.077.438.2.762.361,1.117a10.482,10.482,0,0,1-1.266,11.373c-1.345,1.772-2.829,3.421-4.294,5.087a29.824,29.824,0,0,0-5.5,8c-5.026,11.984,3.559,21.785,11.48,23.794a18.52,18.52,0,0,0,2.764.534s0,0,0,0a17.6,17.6,0,0,0,3.715-.01,1.688,1.688,0,0,0,.306-.027l0,0a24.906,24.906,0,0,0,3.065-.741c5.9-2.266,10.109-6.184,11.714-12.581a21.316,21.316,0,0,0,.225-7.667m-9.094,17.758c-1.027.894-2.3,1.4-3.3,2.319l-.33.106c.026-.023.053-.045.078-.069a9.311,9.311,0,0,0,4.335-8.212c-.072-6.768-4.863-12.944-10.786-15.725-.27-.127-.582-.258-.834-.035-.276.245-.1.575.013.835.959,2.3.236,4.2-1.266,5.975a35.734,35.734,0,0,0-3.5,4.308,9.272,9.272,0,0,0-1.456,6.568,8.613,8.613,0,0,0,4.188,6.1c.084.055.166.112.248.169a.542.542,0,0,1-.117-.04.585.585,0,0,1-.218-.181,13.976,13.976,0,0,1-5.982-4.888,12.683,12.683,0,0,1-2-8.367,24.421,24.421,0,0,1,3.7-11.575,28.451,28.451,0,0,1,10.521-9.845,11.762,11.762,0,0,1,1.87-1.017,1.755,1.755,0,0,1,.01.219,2.448,2.448,0,0,1-.16.472,8,8,0,0,0,1.091,8.124c1,1.37,2.133,2.618,3.24,3.892a24.408,24.408,0,0,1,3.836,5.3,12.61,12.61,0,0,1-3.189,15.566" transform="translate(601.484 93)" fill="#ffce00"/>
    <path id="Path_43880" data-name="Path 43880" d="M475.672,466.951c0,1-.007,2,.018,3,.012.458-.128.626-.6.658-1.974.13-1.972.149-1.972-1.855,0-2.064.019-4.128-.012-6.192-.009-.609.176-.828.778-.795,1.006.057,2.215-.292,2.967.166.777.472.611,1.862.941,2.826.2.589.316,1.21.54,2.1.42-1.646.791-3.009,1.106-4.386.118-.516.335-.727.861-.7.814.036,1.631.021,2.446.005.422-.008.676.084.67.6-.032,2.727-.045,5.455-.064,8.182a.4.4,0,0,1-.178.075c-1.236.087-1.851.131-2.159-.161s-.271-.639-.319-2.168c-.03-.944-.071-1.7-.1-2.161a34.809,34.809,0,0,0-1.112,3.692.983.983,0,0,1-.32.622,1.311,1.311,0,0,1-.887.147c-.615-.033-1.295.217-1.484-.8-.206-1.1-.59-2.173-.9-3.257l-.2-.509q-.008.461-.017.922" transform="translate(495.769 -277.689)" fill="#003652"/>
    <path id="Path_43881" data-name="Path 43881" d="M169.42,466.594c0,1.4-.02,2.471.008,3.541.014.518-.154.686-.669.708-1.915.081-1.914.1-1.914-1.841,0-2.019.026-4.04-.014-6.058-.015-.74.117-1.021.943-1.061a2.622,2.622,0,0,1,2.548,1.244c.713,1.025,1.581,1.935,2.557,3.1,0-1.313.042-2.372-.014-3.426-.039-.723.211-.908.886-.9,1.706.024,1.706-.009,1.706,1.756,0,2.121-.018,4.241.011,6.362.008.6-.149.778-.758.832a2.739,2.739,0,0,1-2.818-1.3,35.853,35.853,0,0,0-2.473-2.963" transform="translate(741.918 -277.875)" fill="#003652"/>
    <path id="Path_43882" data-name="Path 43882" d="M749.642,470.376a5.959,5.959,0,0,1-2.4-.371,2.54,2.54,0,0,1-1.238-.922,1.75,1.75,0,0,1-.374-1.572c.2-.528.811-.211,1.233-.235.6-.034,1.261-.229,1.555.686.16.5,1.62.6,2.064.222.516-.436.151-.706-.246-.838-.649-.216-1.322-.356-1.987-.52a4.456,4.456,0,0,1-1.455-.558,2.462,2.462,0,0,1,.2-4.288,5.776,5.776,0,0,1,5.02-.043,2.138,2.138,0,0,1,1.024.887,1.4,1.4,0,0,1,.254,1.212c-.19.451-.689.211-1.046.222-.683.022-1.355.153-1.863-.644-.307-.482-1.019-.274-1.55-.073a.366.366,0,0,0-.237.395.652.652,0,0,0,.553.494c.914.242,1.847.424,2.744.719a2.218,2.218,0,0,1,1.726,2.137,2.627,2.627,0,0,1-1.5,2.658,4.051,4.051,0,0,1-1.7.432c-.261.005-.522,0-.783,0" transform="translate(276.797 -277.383)" fill="#003652"/>
    <path id="Path_43883" data-name="Path 43883" d="M664.719,465.221c0,.763.016,1.526,0,2.289a3.214,3.214,0,0,1-2.5,3.266,6.584,6.584,0,0,1-3.481.017,3.17,3.17,0,0,1-2.614-3.166c-.073-1.655-.02-3.316-.027-4.975,0-.319.012-.612.437-.611.653,0,1.305,0,1.958,0,.524,0,.415.391.415.71,0,1.459-.027,2.92.011,4.378.03,1.133.492,1.656,1.376,1.709a1.429,1.429,0,0,0,1.613-1.562c.033-1.426.059-2.855-.01-4.278-.04-.826.258-.995,1-.978,1.822.039,1.823,0,1.823,1.808v1.393" transform="translate(348.707 -278.019)" fill="#003652"/>
    <path id="Path_43884" data-name="Path 43884" d="M299.494,465.991c0,1.8.542,2.477,1.839,2.328a1.375,1.375,0,0,0,1.2-.869c.114-.264.01-.723.516-.7a6.873,6.873,0,0,1,2.034.1c.235.085.132.414.1.631a2.981,2.981,0,0,1-1.87,2.561,5.985,5.985,0,0,1-4.581-.022,3.154,3.154,0,0,1-1.842-2.052,6.328,6.328,0,0,1-.063-3.777,3.32,3.32,0,0,1,2.358-2.418,6.016,6.016,0,0,1,4.03.127,2.878,2.878,0,0,1,1.311,1c.462.657,1.007,1.534.567,2.15-.425.6-1.453.17-2.213.214-.227.013-.332-.181-.371-.388a1.386,1.386,0,0,0-1.785-1.216c-1.008.17-1.231.951-1.234,1.841,0,.164,0,.328,0,.492" transform="translate(637.644 -277.489)" fill="#003652"/>
    <path id="Path_43885" data-name="Path 43885" d="M471.558,316.531c.049-.247.193-.247.308-.3a5.956,5.956,0,0,0,2.69-8.814c-1.5-2.311-3.821-2.986-6.4-3-4.993-.02-9.986.015-14.979-.026-.85-.007-1.1.183-1.1,1.075.04,7.189.022,14.378.022,21.568,0,2.347,0,2.35,2.35,2.347,5.026-.007,10.052.05,15.076-.049a6.582,6.582,0,0,0,6.459-5.464c.486-3.83-.933-6.2-4.429-7.345m-11.472-6.57c.239,0,.61-.005,1.065-.015,2.025-.043,2.8.015,4.03.022,1.433.008,2.18.721,2.183,2.068,0,1.4-.691,2.074-2.135,2.082-.688,0-1.376,0-2.225,0l-2.928.01Zm6.142,13.59c-2.008.056-3.719.029-5.6.026-.26,0-.467,0-.57,0q.015-2.108.029-4.216h.689c2.268,0,2.092.008,2.653.008.917,0,1.835-.024,2.751.007a1.767,1.767,0,0,1,1.753,1.956c.031,1.308-.59,2.184-1.7,2.216" transform="translate(512.664 -151.399)" fill="#003652"/>
    <path id="Path_43886" data-name="Path 43886" d="M763.367,312.146c-1.231-4.528-5.071-7.3-10.322-7.6-4.024-.225-8.05-.053-12.074-.147-.835-.02-.965.286-.959,1.02.032,3.825.015,7.65.015,11.476,0,3.891.008,7.783-.01,11.674,0,.55.067.836.735.829,3.894-.04,7.79-.01,11.684-.063a14.46,14.46,0,0,0,4.367-.791,9.533,9.533,0,0,0,6.579-6.924,17.935,17.935,0,0,0-.015-9.478m-7.724,7.137a4.275,4.275,0,0,1-4.411,4.083c-.791.038-1.587-.032-2.376.023-.641.045-.772-.215-.762-.8.031-1.913.011-3.826.011-5.74,0-1.88.018-3.761-.011-5.641-.008-.561.17-.76.733-.731.791.04,1.586-.014,2.377.018a4.229,4.229,0,0,1,4.43,4.042,20.8,20.8,0,0,1,.008,4.741" transform="translate(281.253 -151.401)" fill="#003652"/>
    <path id="Path_43887" data-name="Path 43887" d="M609.778,328.834q-4.271-11.885-8.539-23.771a.828.828,0,0,0-.925-.636c-2.561.025-5.124.034-7.685,0a1,1,0,0,0-1.1.813q-2.915,8.2-5.875,16.375c-.907,2.522-1.817,5.043-2.774,7.7,1.832,0,3.541.02,5.25-.008.932-.015,2.05.371,2.747-.161.656-.5.639-1.661.877-2.542a.869.869,0,0,1,1.014-.763c1.685.044,3.372.009,5.058.018.873,0,1.932-.266,2.568.138.694.44.625,1.645.93,2.5a1.985,1.985,0,0,1,.112.376.471.471,0,0,0,.54.438h7.9a4.171,4.171,0,0,0-.1-.472M594.2,320.208l-.554-.01q.083-.254.165-.509,1.364-4.227,2.473-8.4l2.586,8.916q-2.306.041-4.671,0" transform="translate(407.542 -151.423)" fill="#003652"/>
    <path id="Path_43888" data-name="Path 43888" d="M313.7,304.942c-.186-.519-.531-.489-.923-.489-2.568,0-5.136.015-7.7-.012a.876.876,0,0,0-.99.684q-4.215,11.8-8.479,23.585c-.209.578-.131.742.491.73,1.657-.033,3.315-.011,4.973-.011,2.389,0,2.389,0,3.071-2.291a3.875,3.875,0,0,0,.15-.469c.089-.551.378-.734.939-.727q3.558.046,7.118,0a.813.813,0,0,1,.944.728c.181.734.41,1.456.622,2.182.1.327.208.589.645.586,1.685-.011,7.234-.009,7.234-.009a.693.693,0,0,0,.409-.283.915.915,0,0,0,0-.546s-5.911-16.414-8.5-23.656m-3.049,15.351c-1.268-.027-2.536-.009-3.805-.009-.332,0-.7.042-.536-.506q1.2-4.051,2.4-8.1l.214.028c.755,2.624,1.49,5.255,2.28,7.868.189.626.016.733-.548.721" transform="translate(638.508 -151.441)" fill="#003652"/>
    <path id="Path_43889" data-name="Path 43889" d="M80.687,461.988c-1.88-.925-4.8-.582-6.063.738a3.809,3.809,0,0,0-.659.968c-1.656,3.452.386,6.765,4.164,6.773,2.842.006,4.352-1.214,4.7-3.8a4.338,4.338,0,0,0-2.139-4.682m-2.84,6.33c-1.186-.167-1.675-1.219-1.436-3.087a1.7,1.7,0,0,1,1.948-1.621c1.109.11,1.617.859,1.616,2.385,0,1.732-.724,2.521-2.129,2.323" transform="translate(817.021 -277.467)" fill="#003652"/>
    <path id="Path_43890" data-name="Path 43890" d="M391.991,470.14c-.793-2.179-1.543-4.373-2.322-6.557-.67-1.878-.268-1.5-2.072-1.546a8.005,8.005,0,0,1-.977-.007c-.553-.069-.816.19-.995.714-.857,2.513-1.727,5.022-2.629,7.518-.219.606-.1.8.506.741.226-.023.456,0,.684,0,.746-.011,1.627.262,1.755-.978.031-.3.33-.273.558-.274.619,0,1.239.018,1.857-.007a.617.617,0,0,1,.743.594.714.714,0,0,0,.889.675,7.714,7.714,0,0,1,1.465,0c.778.079.76-.257.538-.867m-5.423-2.512q.206-.7.425-1.413.244-.8.493-1.572.077.271.154.544.343,1.219.666,2.426l-1.737.014" transform="translate(568.268 -278.019)" fill="#003652"/>
    <path id="Path_43891" data-name="Path 43891" d="M579.566,463.927a2.654,2.654,0,0,0-2.661-1.858c-1.334-.048-2.671.015-4.006-.03-.625-.021-.772.232-.755.833.036,1.225.011,2.452.011,3.679,0,.95-.022.721,0,3.781,0,.3,0,.545.007.706q1.206-.023,2.443,0l.272,0q.013-.613.022-1.232.011-.78.017-1.55a9.028,9.028,0,0,0,1.555-.045c1.109-.128,1.934-.17,2.507-.848a3.356,3.356,0,0,0,.585-3.435m-2.837,1.835c-.223.284-.581.322-1.024.36a3.135,3.135,0,0,1-.8-.034l0-1.8a3.106,3.106,0,0,1,.849-.05c.421.034.752.066.967.331a.909.909,0,0,1,.174.578.935.935,0,0,1-.165.613" transform="translate(416.169 -278.037)" fill="#003652"/>
  </g>
</svg>
