<svg xmlns="http://www.w3.org/2000/svg" width="18" height="18" viewBox="0 0 18 18">
  <path id="account_circle_FILL0_wght700_GRAD0_opsz48" d="M6.367,16.237a12.168,12.168,0,0,1,2.6-1.364,7.944,7.944,0,0,1,2.771-.476,7.871,7.871,0,0,1,2.813.5,12.893,12.893,0,0,1,2.58,1.343,7.892,7.892,0,0,0,1.248-2.231,7.148,7.148,0,0,0,.36-2.295,6.9,6.9,0,0,0-7-7,6.9,6.9,0,0,0-7,7,7.052,7.052,0,0,0,.36,2.284A7.985,7.985,0,0,0,6.367,16.237Zm5.373-3.744A2.963,2.963,0,0,1,8.715,9.469a2.98,2.98,0,0,1,3.025-3.025,2.91,2.91,0,0,1,2.157.878,2.964,2.964,0,0,1,.867,2.168,2.962,2.962,0,0,1-3.025,3Zm0,8.207a8.675,8.675,0,0,1-3.479-.709,9.087,9.087,0,0,1-4.8-4.8,8.9,8.9,0,0,1,0-6.959A9.139,9.139,0,0,1,5.394,5.365,9.289,9.289,0,0,1,8.26,3.419a8.777,8.777,0,0,1,6.959,0,9.223,9.223,0,0,1,4.812,4.812,8.777,8.777,0,0,1,0,6.959,9.289,9.289,0,0,1-1.946,2.866,9.138,9.138,0,0,1-2.866,1.935A8.675,8.675,0,0,1,11.739,20.7Zm0-1.988a7.406,7.406,0,0,0,2.1-.3,6.939,6.939,0,0,0,2.083-1.079,9.344,9.344,0,0,0-2.094-1.089,6.275,6.275,0,0,0-2.094-.349,6.184,6.184,0,0,0-2.083.349,9.439,9.439,0,0,0-2.083,1.089,6.977,6.977,0,0,0,2.073,1.079A7.3,7.3,0,0,0,11.739,18.712Zm0-7.741a1.481,1.481,0,0,0,1.079-.412,1.452,1.452,0,0,0,.423-1.089,1.5,1.5,0,1,0-3,0,1.452,1.452,0,0,0,.423,1.089A1.481,1.481,0,0,0,11.739,10.97ZM11.739,9.469ZM11.761,17.316Z" transform="translate(-2.75 -2.7)" fill="#fff"/>
</svg>
