<svg xmlns="http://www.w3.org/2000/svg" width="75.161" height="100" viewBox="0 0 75.161 100">
  <g id="us-army" transform="translate(-34.593 -14.173)">
    <path id="Path_43895" data-name="Path 43895" d="M107.945,16.013a5.954,5.954,0,0,0-4.385-1.84H40.817a5.9,5.9,0,0,0-4.385,1.84A5.9,5.9,0,0,0,34.593,20.4v59a6.229,6.229,0,0,0,6.224,6.194H103.56a6.178,6.178,0,0,0,6.194-6.194v-59A5.875,5.875,0,0,0,107.945,16.013Z" fill-rule="evenodd"/>
    <path id="Subtraction_10" data-name="Subtraction 10" d="M66.976,67.464H4.233a4.057,4.057,0,0,1-3.005-1.225A4.109,4.109,0,0,1,0,63.233v-59a4.147,4.147,0,0,1,1.227-3A4.051,4.051,0,0,1,4.233,0H66.976a3.975,3.975,0,0,1,2.975,1.227,4.165,4.165,0,0,1,1.256,3v59a4.121,4.121,0,0,1-1.258,3.006A3.975,3.975,0,0,1,66.976,67.464ZM4.233,1.993A2.248,2.248,0,0,0,1.965,4.231v59a2.248,2.248,0,0,0,2.268,2.238H66.976a2.245,2.245,0,0,0,1.592-.643,2.2,2.2,0,0,0,.646-1.595v-59a2.211,2.211,0,0,0-.646-1.595,2.245,2.245,0,0,0-1.592-.643Z" transform="translate(36.585 16.166)" fill="#ffce00"/>
    <path id="Subtraction_11" data-name="Subtraction 11" d="M46,53.419h0L28.4,40.724,11.1,53.113,17.727,32.78,0,20.3H21.682L28.488,0l6.688,20.3h21.5L39.5,32.568,46,53.417ZM28.4,37.626h0l13.154,9.507L36.707,31.524l12.85-9.2h-16.1l-5-15.209-5.09,15.209H7.116l13.247,9.354L15.426,46.887,28.4,37.627Z" transform="translate(44.527 22.606)" fill="#ffce00"/>
    <path id="Path_43900" data-name="Path 43900" d="M93.489,67.259l9.721-6.931H91.066L87.295,48.86,83.461,60.328H71.195l10,7.054L77.481,78.851l9.751-6.992,9.936,7.177-3.68-11.776Z" transform="translate(-14.339 -13.589)" fill="#fff" fill-rule="evenodd"/>
    <path id="Path_43901" data-name="Path 43901" d="M40.817,134.721a6.28,6.28,0,0,0-6.224,6.224V155.2a6.28,6.28,0,0,0,6.224,6.194H103.56a5.957,5.957,0,0,0,4.385-1.839,5.857,5.857,0,0,0,1.81-4.355v-14.26a5.877,5.877,0,0,0-1.81-4.385,5.955,5.955,0,0,0-4.385-1.839Z" transform="translate(0 -47.226)" fill-rule="evenodd"/>
    <path id="Path_43902" data-name="Path 43902" d="M39.1,139.223a4.1,4.1,0,0,0-1.227,3v14.26a4.19,4.19,0,0,0,4.232,4.2h62.743a3.981,3.981,0,0,0,2.975-1.227,4.057,4.057,0,0,0,1.257-2.975v-14.26a4.123,4.123,0,0,0-1.257-3A3.983,3.983,0,0,0,104.843,138H42.1A4.045,4.045,0,0,0,39.1,139.223Z" transform="translate(-1.283 -48.509)" fill="#ffce00" fill-rule="evenodd"/>
    <path id="Path_43903" data-name="Path 43903" d="M43.365,141.273a2.2,2.2,0,0,0-1.594.644,2.227,2.227,0,0,0-.675,1.594v14.26a2.16,2.16,0,0,0,.675,1.564,2.109,2.109,0,0,0,1.594.673h62.743a2.158,2.158,0,0,0,1.594-.673,2.134,2.134,0,0,0,.644-1.564v-14.26a2.2,2.2,0,0,0-.644-1.594,2.251,2.251,0,0,0-1.594-.644Z" transform="translate(-2.548 -49.792)" fill-rule="evenodd"/>
    <path id="Path_43904" data-name="Path 43904" d="M87.983,151.869V148.65l-1.9-1.779H81.206V159.2h2.822v-4.937h1.2V159.2h2.76v-4.937l-1.441-1.2,1.441-1.2Zm-39.375-5v10.518l1.9,1.81H53.7l1.84-1.81V146.871H52.686v10H51.459v-10Zm36.616,2.3v2.791h-1.2v-2.791Zm13.032-2.3H94.914l-.921,5.949h-.245l-1.012-5.949H89.424V159.2H92v-7.82h.123l1.2,7.82h1.043l1.2-7.82h.122v7.82h2.575V146.871Zm5.03,4.447h-.031l-1.012-4.447H99.421l2.422,7.144V159.2h2.852v-5.183l2.454-7.144h-2.823l-1.041,4.447ZM59.34,159.2v-2.393H56.489V159.2Zm9.016-2.393V159.2h2.821v-2.393Zm-.981-8.157-1.993-1.779H62.377l-1.84,1.779v3.71l1.963,1.778,2.024.153v2.577H63.359v-1.625H60.537v2.146l1.84,1.81H65.5l1.871-1.81v-3.742l-1.932-1.778-2.085-.184v-2.514h1.165v1.656h2.852V148.65h0Zm10.856-1.779H74.122L72.4,159.2h2.76l.245-2.3h1.625l.246,2.3h2.76l-1.809-12.328ZM75.594,154.6l.429-5.121H76.3l.521,5.121Z" transform="translate(-5.49 -51.985)" fill="#fff" fill-rule="evenodd"/>
  </g>
</svg>
