<svg xmlns="http://www.w3.org/2000/svg" width="20" height="24" viewBox="0 0 20 24">
  <path id="android-3_1_" data-name="android-3 (1)" d="M5.921,16.1a1.633,1.633,0,0,1-1.464,1.752A1.633,1.633,0,0,1,2.993,16.1V10.362A1.633,1.633,0,0,1,4.458,8.61a1.632,1.632,0,0,1,1.464,1.752Zm17.072,0a1.633,1.633,0,0,1-1.465,1.752A1.632,1.632,0,0,1,20.064,16.1V10.362A1.633,1.633,0,0,1,21.528,8.61a1.633,1.633,0,0,1,1.465,1.752Zm-6.8-13.029.939-1.718a.268.268,0,0,0-.05-.363.259.259,0,0,0-.329.147l-.961,1.758a7.749,7.749,0,0,0-5.685.009L9.144,1.135A.258.258,0,0,0,8.814.988a.269.269,0,0,0-.05.363l.944,1.726A5.369,5.369,0,0,0,6.421,7.8a4.682,4.682,0,0,0,.041.608h13A4.542,4.542,0,0,0,19.5,7.8,5.372,5.372,0,0,0,16.2,3.068Zm-6.2,3a.583.583,0,1,1,.572-.583A.577.577,0,0,1,9.992,6.066Zm5.969,0a.583.583,0,1,1,.572-.583A.577.577,0,0,1,15.961,6.066ZM6.42,8.991v9.769h.005a1.68,1.68,0,0,0,1.714,1.48h9.642a1.681,1.681,0,0,0,1.714-1.48H19.5V8.991H6.42Zm5.6,11.2v3.022a1.633,1.633,0,0,1-1.465,1.752A1.632,1.632,0,0,1,9.1,23.213v-3.02Zm4.88,0v3.024a1.633,1.633,0,0,1-1.465,1.752,1.633,1.633,0,0,1-1.465-1.752V20.19Z" transform="translate(-2.993 -0.966)" fill="#fff"/>
</svg>
