<svg xmlns="http://www.w3.org/2000/svg" width="20" height="24" viewBox="0 0 20 24">
  <path id="apple-13_5_" data-name="apple-13 (5)" d="M20.722,44.683a5.009,5.009,0,0,1,2.657-4.544,5.7,5.7,0,0,0-4.5-2.39c-1.886-.15-3.948,1.109-4.7,1.109-.8,0-2.625-1.056-4.06-1.056C7.151,37.851,4,40.187,4,44.94a13.455,13.455,0,0,0,.765,4.351c.68,1.966,3.135,6.789,5.7,6.708,1.339-.032,2.285-.959,4.028-.959,1.69,0,2.566.959,4.06.959,2.582-.038,4.8-4.42,5.452-6.392a5.319,5.319,0,0,1-3.278-4.924Zm-3.007-8.8A5.076,5.076,0,0,0,18.989,32a5.619,5.619,0,0,0-3.608,1.87,5.151,5.151,0,0,0-1.36,3.852A4.449,4.449,0,0,0,17.714,35.885Z" transform="translate(-4 -32)" fill="#fff"/>
</svg>
