<svg xmlns="http://www.w3.org/2000/svg" width="24" height="24" viewBox="0 0 24 24">
  <path id="language_FILL1_wght400_GRAD0_opsz48" d="M92,200a11.76,11.76,0,0,1-4.71-.945,12.118,12.118,0,0,1-3.81-2.565,11.87,11.87,0,0,1-2.55-3.825A12.033,12.033,0,0,1,80,187.94a11.815,11.815,0,0,1,.93-4.7,11.957,11.957,0,0,1,2.55-3.795,11.711,11.711,0,0,1,3.81-2.535,12.58,12.58,0,0,1,9.42,0,11.711,11.711,0,0,1,3.81,2.535,11.957,11.957,0,0,1,2.55,3.795,11.815,11.815,0,0,1,.93,4.7,12.033,12.033,0,0,1-.93,4.725,11.87,11.87,0,0,1-2.55,3.825,12.118,12.118,0,0,1-3.81,2.565A11.76,11.76,0,0,1,92,200Zm0-1.74a9.985,9.985,0,0,0,1.755-2.475,14.9,14.9,0,0,0,1.155-3.315H89.12a15.215,15.215,0,0,0,1.125,3.24A10.224,10.224,0,0,0,92,198.26Zm-2.55-.36a14.342,14.342,0,0,1-1.29-2.46,17.972,17.972,0,0,1-.9-2.97h-4.5a10.759,10.759,0,0,0,2.64,3.345A13.181,13.181,0,0,0,89.45,197.9Zm5.13-.03a12.011,12.011,0,0,0,3.885-2.07,10.744,10.744,0,0,0,2.775-3.33H96.77a21.732,21.732,0,0,1-.915,2.94A13.617,13.617,0,0,1,94.58,197.87Zm-12.42-7.2h4.77q-.09-.81-.105-1.455t-.015-1.275q0-.75.03-1.335t.12-1.3h-4.8a8.747,8.747,0,0,0-.285,1.29,10.513,10.513,0,0,0-.075,1.35,11.623,11.623,0,0,0,.075,1.4A8.456,8.456,0,0,0,82.16,190.67Zm6.63,0h6.45q.12-.93.15-1.515t.03-1.215q0-.6-.03-1.155t-.15-1.485H88.79q-.12.93-.15,1.485t-.03,1.155q0,.63.03,1.215T88.79,190.67Zm8.25,0h4.8a8.457,8.457,0,0,0,.285-1.335,11.623,11.623,0,0,0,.075-1.4,10.513,10.513,0,0,0-.075-1.35,8.748,8.748,0,0,0-.285-1.29H97.07q.09,1.05.12,1.6t.03,1.035q0,.66-.045,1.245T97.04,190.67Zm-.3-7.17h4.5a9.72,9.72,0,0,0-2.715-3.45,10.345,10.345,0,0,0-3.975-1.95,13.075,13.075,0,0,1,1.275,2.4A19.511,19.511,0,0,1,96.74,183.5Zm-7.62,0h5.82a11.7,11.7,0,0,0-1.11-3.075A12.273,12.273,0,0,0,92,177.8a6.6,6.6,0,0,0-1.62,2.13A19.371,19.371,0,0,0,89.12,183.5Zm-6.36,0h4.53a16.886,16.886,0,0,1,.84-2.9,14.242,14.242,0,0,1,1.29-2.475,9.9,9.9,0,0,0-6.66,5.37Z" transform="translate(-80 -176)" fill="#fff"/>
</svg>
