<svg xmlns="http://www.w3.org/2000/svg" width="97.038" height="132.956" viewBox="0 0 97.038 132.956">
  <g id="Chassidic_Story" data-name="Chassidic Story" transform="translate(-1879.847 10412.536)">
    <path id="Path_89098" data-name="Path 89098" d="M1824.48-11375.522l3.7-3.329s-4.688-4.853-6.249-8.353,0-5.652,0-5.652l-1.43-1.988-2.732-6.514s-2.171-8.5-1.13-13.769,8.063-10.049,13.913-10.561,8.993-.6,14.778,2.043a18.507,18.507,0,0,1,8.366,8.518l4.224,8.206v4.157l5.368,7.919a18.122,18.122,0,0,1,4.378,3.437,10.265,10.265,0,0,1,2.035,4.2,8.053,8.053,0,0,1,3.578,1.286,12.3,12.3,0,0,1,2.873,3.249l8.525,14.865,9.143,19.647a36.594,36.594,0,0,1,3.36,7.672,38.224,38.224,0,0,1,1.258,8.392s-2.062,9.209-4.025,15.095a33.743,33.743,0,0,1-3.827,8.438l-5.018,6.831s-3.037,2.972-6.557,3.308-7.521-1.957-7.521-1.957-3.128-.734-3.823-2.779,1.034-5.4,1.034-5.4a6.311,6.311,0,0,0,1-3.331,7.27,7.27,0,0,0-.511-2.96l-1.524,2.122-12.623-1.109,8.245-15.254-1.856-3,.805-3.335-1.785-2.722,6.362-5.909,9.338-7.457,4.9-7.881a36.668,36.668,0,0,0,0-7.775c-.51-2.759-1.177-2.856-2.045-3.257s-.5-1.2-1.428-1.6a3.982,3.982,0,0,0-2.276,0s-5.732,6.454-7.64,6.159,1.474-4.324,1.034-6.159-2.058-1.882-2.793-1.186-5.976,7.855-5.976,7.855l-2.011,5.263-2.877,5.793-3.913,9.163-1.826,1.085-3.975,2.552-5.215,8.393v-6.618l-11.935-12.74,6.793-1.834-4.422-2.28-4.729-13.842Z" transform="translate(76.944 1014.983)" fill="none" stroke="#304b45" stroke-width="3"/>
    <path id="Path_89099" data-name="Path 89099" d="M1862.679-11361.558a21.88,21.88,0,0,1,1.9-2.456s1.747-3.917,3.323-5.223a2.247,2.247,0,0,1,2.99,0l2.175,1.928s2.078,1.373,1.762,1.373-1-.57-3.032-1.373-2.281-.29-3.894.192-3.323,3.1-3.323,3.1" transform="translate(62.837 999.843)" fill="none" stroke="#304b45" stroke-width="3"/>
    <path id="Path_89100" data-name="Path 89100" d="M1846.861-11371.458s6.828,5.254,7.365,4.229c.8-1.541,3.91-6.247,5.733-7.788,2.633-2.223,3.4.8,5.488,0s.9-2.918,2.865-3.216a9.4,9.4,0,0,1,4.473.9" transform="translate(65.763 1002.125)" fill="none" stroke="#304b45" stroke-width="3"/>
    <path id="Path_89101" data-name="Path 89101" d="M1850.326-11389.761a11.886,11.886,0,0,1,3.5-2.466,6.5,6.5,0,0,1,3.534-.214" transform="translate(66.042 1005.983)" fill="none" stroke="#304b45" stroke-width="3"/>
    <path id="Path_89102" data-name="Path 89102" d="M1867.033-11397.025a11.989,11.989,0,0,1,2.86-1.962,4.113,4.113,0,0,1,2.476-.218" transform="translate(61.527 1007.792)" fill="none" stroke="#304b45" stroke-width="3"/>
    <path id="Path_89103" data-name="Path 89103" d="M1855.142-11385.8a4.044,4.044,0,0,1,1.349-1.151,3.818,3.818,0,0,1,1.726-.252" transform="translate(64.74 1004.534)" fill="none" stroke="#304b45" stroke-width="3"/>
    <path id="Path_89104" data-name="Path 89104" d="M1868.613-11391.035a3.14,3.14,0,0,1,1.1-1.183,2.029,2.029,0,0,1,1.4,0" transform="translate(61.098 1005.918)" fill="none" stroke="#304b45" stroke-width="3"/>
    <path id="Path_89105" data-name="Path 89105" d="M1917.777-10340.559l7.116,16.028,13.488,13.014" transform="translate(-9.837 -19.001)" fill="none" stroke="#304b45" stroke-width="3"/>
    <path id="Path_89106" data-name="Path 89106" d="M1977.559-10300.8s3.315,11.355,2.778,15.558-4.642,10.9-4.642,10.9l-2.931.712s6.577-1.278,11.124,0a13.676,13.676,0,0,1,7.057,5.116" transform="translate(-24.699 -29.72)" fill="none" stroke="#304b45" stroke-width="3"/>
    <path id="Path_89107" data-name="Path 89107" d="M1898.566-10334.026s-16.877,13.515-17.148,16.23.849,21.5,6.183,35.532,15.157,20.594,15.157,20.594a27.779,27.779,0,0,0,8.449,4.021c4.283,1.007,7.472-1.605,9.917-3.437s8.274-9.663,8.274-9.663" transform="translate(0 -23.611)" fill="none" stroke="#304b45" stroke-width="3"/>
    <path id="Path_89108" data-name="Path 89108" d="M1899.533-10387.356s.6-9.913,6.333-16.767a19.978,19.978,0,0,1,14.012-6.912" transform="translate(-4.906 -0.001)" fill="none" stroke="#304b45" stroke-width="3"/>
  </g>
</svg>
