<svg xmlns="http://www.w3.org/2000/svg" width="89.997" height="93.811" viewBox="0 0 89.997 93.811">
  <path id="Chassidus" d="M-1433.8,14038.024a60,60,0,0,1,8.9-3.736,63.018,63.018,0,0,1,11.709-2.647,60.164,60.164,0,0,1,7.475-.477c1.4,0,2.813.053,4.188.159a48.685,48.685,0,0,1,8.026,1.265v45.35a75.43,75.43,0,0,0-7.846-.611c-.71-.021-1.435-.028-2.152-.028a84.646,84.646,0,0,0-10.614.678,88.8,88.8,0,0,0-12.748,2.573c-2.343.657-4.669,1.414-6.941,2.262Zm-13.335,42.524a88.8,88.8,0,0,0-12.748-2.573,84.588,84.588,0,0,0-10.61-.678c-.721,0-1.446.007-2.159.028a75.432,75.432,0,0,0-7.843.611v-45.346a48.578,48.578,0,0,1,8.026-1.269c1.375-.106,2.785-.159,4.188-.159a60.21,60.21,0,0,1,7.475.477l.265.036a62.578,62.578,0,0,1,11.444,2.611,60,60,0,0,1,8.9,3.736v44.786C-1442.466,14081.963-1444.795,14081.206-1447.138,14080.549Zm12.953-50.385c-.481-.919-.912-2.365-1-2.449l-1.265-3.058-1.484,4.248a5.849,5.849,0,0,1-1.053,1.612,3.011,3.011,0,0,0-.746.862,17.236,17.236,0,0,1-2.322-3.062,8,8,0,0,1-1.163-3.661c-.11-2.312.979-4.468,2.244-6.959a31.1,31.1,0,0,0,2.541-6.086,16.184,16.184,0,0,0,.551-3.488c6.9,7.535,9.963,13.494,9.108,17.745a7.145,7.145,0,0,1-2.138,3.768,13.437,13.437,0,0,1-2.941,2.114A3.615,3.615,0,0,0-1434.185,14030.164ZM-1417,14019h0Zm-47,0h0Zm46.091-19.093-4.948,4.952Zm-38.181,0,4.948,4.952ZM-1437,13992v0Z" transform="translate(1481.999 -13990.5)" fill="none" stroke="#304b45" stroke-linecap="round" stroke-linejoin="round" stroke-width="3"/>
</svg>
