<svg xmlns="http://www.w3.org/2000/svg" width="60" height="49" viewBox="0 0 60 49">
  <path id="Path_89858" data-name="Path 89858" d="M57.07,87.172h-.546a4.712,4.712,0,0,1,0-6.939h.546a2.931,2.931,0,0,0,2.071-.847A2.848,2.848,0,0,0,60,77.344a2.913,2.913,0,0,0-2.93-2.888H54.377a8.7,8.7,0,0,0,.878-.755,8.374,8.374,0,0,0,2.523-6.033,8.605,8.605,0,0,0-7.892-8.425,2.672,2.672,0,0,0,.2-1.014,2.729,2.729,0,0,0-2.745-2.707h-.465a4.21,4.21,0,0,1,0-6.159h.465a2.753,2.753,0,0,0,1.942-.793,2.675,2.675,0,0,0,.8-1.914,2.729,2.729,0,0,0-2.745-2.706H14.683a8.628,8.628,0,0,0-8.729,8.465,8.374,8.374,0,0,0,2.523,6.033,8.705,8.705,0,0,0,.878.755h-3.6a2.729,2.729,0,0,0-2.746,2.706,2.67,2.67,0,0,0,.8,1.914,2.749,2.749,0,0,0,1.942.793h.464a4.209,4.209,0,0,1,0,6.161H5.757a2.729,2.729,0,0,0-2.746,2.706,2.677,2.677,0,0,0,.8,1.916,2.758,2.758,0,0,0,.648.474A9.123,9.123,0,0,0,2.746,90.24a9.386,9.386,0,0,0,6.632,2.709H57.07a2.932,2.932,0,0,0,2.071-.847A2.849,2.849,0,0,0,60,90.061,2.913,2.913,0,0,0,57.07,87.172Zm1.172-9.828a1.139,1.139,0,0,1-.344.817,1.172,1.172,0,0,1-.828.339H50.042V76.189H57.07A1.165,1.165,0,0,1,58.242,77.344ZM9.72,57.222a6.665,6.665,0,0,1-2.008-4.8,6.88,6.88,0,0,1,6.971-6.737H47.34a.981.981,0,0,1,.987.973.963.963,0,0,1-.288.688.992.992,0,0,1-.7.286H19.247a.867.867,0,1,0,0,1.733h25.4a5.919,5.919,0,0,0,0,6.159H14.569a3.122,3.122,0,0,1-2.235-.93,3.033,3.033,0,0,1-.889-2.225,3.162,3.162,0,0,1,3.2-3h1.088a.867.867,0,1,0,0-1.733H14.643a4.919,4.919,0,0,0-4.956,4.7A4.741,4.741,0,0,0,11.076,55.8a4.878,4.878,0,0,0,3.492,1.452H47.34a.982.982,0,0,1,.987.974.96.96,0,0,1-.289.688.989.989,0,0,1-.7.286H14.569A6.862,6.862,0,0,1,9.72,57.222ZM5.058,62.6a.96.96,0,0,1-.289-.688.982.982,0,0,1,.988-.973h43.29a6.882,6.882,0,0,1,6.973,6.738,6.665,6.665,0,0,1-2.008,4.8,6.842,6.842,0,0,1-3.97,1.924V72.43a4.863,4.863,0,0,0,2.612-1.373,4.743,4.743,0,0,0,1.389-3.479,4.917,4.917,0,0,0-4.954-4.7H5.757a.988.988,0,0,1-.7-.286Zm3.4,2.019H49.088a3.16,3.16,0,0,1,3.2,3,3.035,3.035,0,0,1-.889,2.227,3.116,3.116,0,0,1-1.354.806V68.84a.873.873,0,0,0-.879-.867H31.779a.867.867,0,1,0,0,1.733h5.932v1.07H8.455a5.919,5.919,0,0,0,0-6.161Zm31.014,5.091h8.815V81.991l-4-2.045a.89.89,0,0,0-.808,0l-4,2.045V69.706Zm-33.712,2.8H37.711v1.947H5.757a.992.992,0,0,1-.7-.284.965.965,0,0,1-.29-.69A.982.982,0,0,1,5.757,72.509ZM57.9,90.877a1.172,1.172,0,0,1-.828.339H9.378a7.627,7.627,0,0,1-5.389-2.2,7.412,7.412,0,0,1-2.232-5.337A7.647,7.647,0,0,1,9.5,76.189H37.711V78.5H9.46A5.317,5.317,0,0,0,4.1,83.576a5.127,5.127,0,0,0,1.5,3.76,5.272,5.272,0,0,0,3.774,1.569H41.415a.867.867,0,1,0,0-1.733H9.378a3.516,3.516,0,0,1-2.516-1.047,3.42,3.42,0,0,1-1-2.508,3.56,3.56,0,0,1,3.6-3.384H37.711v3.183a.864.864,0,0,0,.422.74.89.89,0,0,0,.861.029l4.882-2.494,4.882,2.494a.889.889,0,0,0,.861-.029.864.864,0,0,0,.422-.74V80.233h4.22a6.414,6.414,0,0,0,0,6.939H44.931a.867.867,0,1,0,0,1.733H57.07a1.165,1.165,0,0,1,1.172,1.155A1.139,1.139,0,0,1,57.9,90.877Z" transform="translate(0 -43.949)" fill="#003652"/>
</svg>
