<svg xmlns="http://www.w3.org/2000/svg" width="59.998" height="40" viewBox="0 0 59.998 40">
  <path id="Union_479" data-name="Union 479" d="M21367.113,12262.929a3.287,3.287,0,0,1-3.271-3.3v-25.37a.88.88,0,1,1,1.76,0v25.37a1.524,1.524,0,0,0,1.512,1.529h5.633a1.522,1.522,0,0,0,1.514-1.529v-33.409a1.521,1.521,0,0,0-1.514-1.525h-5.633a1.523,1.523,0,0,0-1.512,1.525v3.9a.88.88,0,1,1-1.76,0v-3.9a3.286,3.286,0,0,1,3.271-3.293h5.633a3.284,3.284,0,0,1,3.273,3.293v33.409a3.285,3.285,0,0,1-3.273,3.3Zm-16.48,0a3.285,3.285,0,0,1-3.271-3.3v-26.337a3.288,3.288,0,0,1,3.271-3.3h5.633a3.292,3.292,0,0,1,3.273,3.3v26.337a3.289,3.289,0,0,1-3.273,3.3Zm-1.512-29.635v26.337a1.522,1.522,0,0,0,1.512,1.529h5.633a1.526,1.526,0,0,0,1.514-1.529v-26.337a1.525,1.525,0,0,0-1.514-1.525h-5.633A1.521,1.521,0,0,0,21349.121,12233.294Zm-14.158,29.635a3.287,3.287,0,0,1-3.271-3.3v-19.741a3.285,3.285,0,0,1,3.271-3.292h5.633a3.287,3.287,0,0,1,3.273,3.292v19.741a3.289,3.289,0,0,1-3.273,3.3Zm-1.512-23.039v19.741a1.522,1.522,0,0,0,1.512,1.529h5.633a1.526,1.526,0,0,0,1.514-1.529v-19.741a1.525,1.525,0,0,0-1.514-1.524h-5.633A1.521,1.521,0,0,0,21333.451,12239.89Zm-14.158,23.039a3.287,3.287,0,0,1-3.271-3.3v-11.874a3.29,3.29,0,0,1,3.271-3.3h5.633a3.287,3.287,0,0,1,3.268,3.3v1.93a.877.877,0,1,1-1.754,0v-1.93a1.52,1.52,0,0,0-1.514-1.524h-5.633a1.521,1.521,0,0,0-1.518,1.524v11.874a1.527,1.527,0,0,0,1.518,1.529h5.633a1.526,1.526,0,0,0,1.514-1.529v-5.813a.877.877,0,1,1,1.754,0v5.813a3.284,3.284,0,0,1-3.268,3.3Z" transform="translate(-21316.021 -12222.929)"/>
</svg>
