<svg xmlns="http://www.w3.org/2000/svg" width="59.998" height="62" viewBox="0 0 59.998 62">
  <path id="Union_480" data-name="Union 480" d="M21323.885,12284.929a3.5,3.5,0,0,1-3.5-3.486v-.214h-.863a3.5,3.5,0,0,1-3.5-3.485v-5.307a3.494,3.494,0,0,1,3.5-3.481h.863v-.917a.912.912,0,0,1,1.824,0v13.4a1.677,1.677,0,0,0,1.674,1.671h22.553a1.672,1.672,0,0,0,1.674-1.671v-20.664a3.478,3.478,0,0,1-1.674.421h-1.25v.972a1.7,1.7,0,0,1,1.545,1.692v.923a1.7,1.7,0,0,1-1.7,1.7h-4.635a1.7,1.7,0,0,1-1.7-1.7v-.923a1.7,1.7,0,0,1,1.545-1.692v-.972h-10.16v.972a1.7,1.7,0,0,1,1.545,1.692v.923a1.7,1.7,0,0,1-1.7,1.7h-4.635a1.7,1.7,0,0,1-1.7-1.7v-.923a1.7,1.7,0,0,1,1.545-1.692v-.972h-1.25a3.489,3.489,0,0,1-1.674-.421v3a.912.912,0,0,1-1.824,0v-11.445a3.494,3.494,0,0,1,3.5-3.485h7.146v-1.506a4.128,4.128,0,0,1,8.256,0v1.506h5.863v-8.125a3.87,3.87,0,0,1,3.873-3.855h5.387v-4.953a2.444,2.444,0,0,1-1.545-2.269v-1.458a5.278,5.278,0,0,1,5.283-5.258h4.871a5.278,5.278,0,0,1,5.285,5.258v1.458a2.444,2.444,0,0,1-1.545,2.269v4.953h5.387a3.87,3.87,0,0,1,3.873,3.855v5.738a.912.912,0,1,1-1.824,0v-5.738a2.043,2.043,0,0,0-2.049-2.034h-23.123a2.043,2.043,0,0,0-2.049,2.034v8.168a3.491,3.491,0,0,1,2.967,3.442v16.623h.857a3.3,3.3,0,0,1,.521.038v-27.027a.912.912,0,0,1,1.824,0v27.887a3.451,3.451,0,0,1,1.158,2.584v5.307a3.48,3.48,0,0,1-.2,1.163h18.043a2.048,2.048,0,0,0,2.049-2.039v-26.115a.912.912,0,0,1,1.824,0v26.115a3.869,3.869,0,0,1-3.873,3.854h-1.664v1.628a2.5,2.5,0,0,1-5.006,0v-1.628h-9.785v1.628a2.5,2.5,0,0,1-5,0v-1.121h-.746v.214a3.5,3.5,0,0,1-3.5,3.486Zm43.422-2.579a.676.676,0,0,0,1.352,0v-1.628h-1.352Zm-14.795-1.569v1.569a.676.676,0,0,0,1.352,0v-1.628h-1.244C21352.586,12280.743,21352.549,12280.759,21352.512,12280.78Zm-2.57-1.367h.857a1.676,1.676,0,0,0,1.68-1.67v-5.307a1.672,1.672,0,0,0-1.68-1.666h-.857Zm-32.1-6.977v5.307a1.678,1.678,0,0,0,1.68,1.67h.863v-8.643h-.863A1.674,1.674,0,0,0,21317.844,12272.437Zm22.678-7.768h4.389v-.688h-4.389Zm-15.107,0h4.389v-.688h-4.389Zm16.652-2.5h1.3v-11.5h-1.3Zm-15.107,0h1.3v-11.5h-1.3Zm18.229-2.781h1.25a1.672,1.672,0,0,0,1.674-1.666v-5.387a1.673,1.673,0,0,0-1.674-1.671h-1.25Zm-15.105,0h10.16v-8.724h-10.16Zm-7.871-7.053v5.387a1.673,1.673,0,0,0,1.674,1.666h1.25v-8.724h-1.25A1.674,1.674,0,0,0,21322.211,12252.332Zm10.648-4.991v1.506h4.6v-1.506a2.3,2.3,0,0,0-4.6,0Zm24.92-19.154v1.458a2.444,2.444,0,0,1-1.545,2.269v4.953h8.7v-4.953a2.444,2.444,0,0,1-1.545-2.269v-1.458a.37.37,0,0,0-.371-.368h-4.871A.369.369,0,0,0,21357.779,12228.187Zm5.24-2.184a2.189,2.189,0,0,1,2.2,2.184v1.458a.633.633,0,0,0,1.266,0v-1.458a3.454,3.454,0,0,0-3.461-3.443h-4.871a3.456,3.456,0,0,0-3.459,3.443v1.458a.633.633,0,0,0,1.266,0v-1.458a2.189,2.189,0,0,1,2.193-2.184Zm-35.416,53.843a2.2,2.2,0,0,1-2.205-2.2V12271a2.2,2.2,0,0,1,2.205-2.2h15.117a2.2,2.2,0,0,1,2.205,2.2v6.651a2.2,2.2,0,0,1-2.205,2.2Zm-.381-8.851v6.651a.383.383,0,0,0,.381.384h15.117a.383.383,0,0,0,.381-.384V12271a.387.387,0,0,0-.381-.385H21327.6A.387.387,0,0,0,21327.223,12271Zm40.8,2.882v-31.911a.912.912,0,0,1,1.824,0v31.911a.912.912,0,0,1-1.824,0Zm-5.568,0v-31.911a.912.912,0,0,1,1.824,0v31.911a.912.912,0,0,1-1.824,0Zm-5.568,0v-31.911a.912.912,0,0,1,1.824,0v31.911a.912.912,0,0,1-1.824,0Z" transform="translate(-21316.021 -12222.929)"/>
</svg>
