<svg xmlns="http://www.w3.org/2000/svg" xmlns:xlink="http://www.w3.org/1999/xlink" width="110" height="110" viewBox="0 0 110 110">
  <defs>
    <clipPath id="clip-path">
      <rect id="Rectangle_3404" data-name="Rectangle 3404" width="110" height="110" transform="translate(1047 2903)" fill="#fff" stroke="#707070" stroke-width="1"/>
    </clipPath>
  </defs>
  <g id="Geulah" transform="translate(-1047 -2903)" clip-path="url(#clip-path)">
    <g id="noun-shofar-3819306" transform="translate(1249.488 2554.761) rotate(30)" fill="none">
      <path d="M86.445,418.606c8.8-3.82,18.805.6,29.609,5.365,2.525,1.115,5.094,2.249,7.7,3.3a106.99,106.99,0,0,1-11.179-8.356,77.212,77.212,0,0,0-12.059-8.669,20.043,20.043,0,0,0-18.909-.64,44.357,44.357,0,0,0-9.67,6.34l-.05.041c-2.3,1.9-4.538,3.979-6.733,6.061-10.24,9.711-17.3,15.258-24.364,15.91a15.24,15.24,0,0,1-1.8.059c15.347,5.644,27.807-4.544,40.42-14.862l.716-.585a26.383,26.383,0,0,1,6.319-3.966Zm51.7,14.892a3.669,3.669,0,0,1,0,2.831,2.418,2.418,0,0,1-1.826,1.689,39.972,39.972,0,0,1-7.009-1.689,53.88,53.88,0,0,1-8.548-3.524c-4.844-2.264-6.613-2.853-10.83-5.533s-5.393-3.67-9.46-5.867a16.236,16.236,0,0,0-8.871-2.359c-3.095.206-6.465,1.615-10.406,4.836l-.716.585c-15.069,12.327-29.925,24.477-49.832,11.1-4.037-2.19-8.43-5.872-13.652-11.158-1.426-1.008-1.943-3.2-1.619-5.991a27.643,27.643,0,0,1,3.251-9.484.854.854,0,0,1,.056-.1,27.636,27.636,0,0,1,6.167-7.9c2.313-1.924,4.572-2.666,6.229-1.769a3.547,3.547,0,0,1,1.6,1.96c6.252,10.65,11.6,17.184,17.36,19.531,5.863,2.388,12.315.408,20.827-6.009a45.963,45.963,0,0,1,10.048-6.577,21.625,21.625,0,0,1,20.4.693,78.606,78.606,0,0,1,12.33,8.854c5.755,4.718,12.636,10.471,21.221,13.684C135.226,431.43,138.146,433.5,138.146,433.5ZM31.184,401.9c-.2-.341-1.318-1.416-2.008-.481s-.751,4.219-.751,4.219a27.38,27.38,0,0,1-2.445,6.662h0a23.406,23.406,0,0,1-3.56,5.555c-2.058,2.557-5.406,3.007-4.671,4.671s2.942.485,4.712-.987a25.975,25.975,0,0,0,5.785-7.461h0a25.978,25.978,0,0,0,3.086-8.926,8.166,8.166,0,0,0-.147-3.252Z" stroke="none"/>
      <path d="M 29.52960968017578 398.7816772460938 C 28.13147735595703 398.7817993164062 26.50511932373047 399.5531005859375 24.85122680664062 400.9285888671875 C 22.74113464355469 402.6834411621094 20.52072143554688 405.4555358886719 18.68437194824219 408.8333740234375 C 18.6636962890625 408.8664245605469 18.64466857910156 408.9007568359375 18.6285400390625 408.9367370605469 C 16.80213928222656 412.3224792480469 15.6939697265625 415.6974487304688 15.37765502929688 418.4210510253906 C 15.05352783203125 421.2142639160156 15.57073974609375 423.4041442871094 16.99690246582031 424.4122009277344 C 22.21902465820312 429.6982727050781 26.61155700683594 433.3804016113281 30.64894104003906 435.5703430175781 C 36.81275939941406 439.7112426757812 42.48916625976562 441.4044799804688 47.84071350097656 441.4044799804688 C 59.77278900146484 441.4044799804688 70.07747650146484 432.977294921875 80.48094177246094 424.4672546386719 L 81.19668579101562 423.8821716308594 C 85.13775634765625 420.6606140136719 88.50732421875 419.2513732910156 91.60227966308594 419.0458679199219 C 94.68699645996094 418.8410949707031 97.55458068847656 419.8283081054688 100.473388671875 421.4053039550781 C 104.5397033691406 423.6022033691406 105.7156677246094 424.5917053222656 109.9329528808594 427.2718200683594 C 114.1502532958984 429.9518737792969 115.9186706542969 430.5406799316406 120.7631225585938 432.8050842285156 C 125.6075897216797 435.0694885253906 125.4216842651367 435.0261535644531 129.3108062744141 436.3294372558594 C 133.199951171875 437.6327209472656 136.3196258544922 438.0182800292969 136.3196258544922 438.0182800292969 C 136.3196258544922 438.0182800292969 137.5166473388672 437.9095153808594 138.1457977294922 436.3294372558594 C 138.7749328613281 434.7494201660156 138.1457977294922 433.4982604980469 138.1457977294922 433.4982604980469 C 138.1457977294922 433.4982604980469 135.2257690429688 431.4299011230469 134.8701934814453 431.2967224121094 C 126.2853927612305 428.0834045410156 119.403923034668 422.3304138183594 113.6489410400391 417.6124572753906 C 109.648811340332 414.3330078125 105.7930679321289 411.1723022460938 101.3190307617188 408.7582702636719 C 93.83724975585938 404.7217712402344 87.11962127685547 405.2456359863281 80.91561126708984 408.0652770996094 C 77.40135955810547 409.6621704101562 74.07064819335938 411.9942626953125 70.86770629882812 414.6423034667969 C 62.35595703125 421.0589294433594 55.90383911132812 423.0392761230469 50.04086303710938 420.6512756347656 C 44.27708435058594 418.3044738769531 38.93313598632812 411.7700500488281 32.68074035644531 401.1200866699219 C 32.34793853759766 400.2330932617188 31.81697845458984 399.5591125488281 31.08053588867188 399.1600646972656 C 30.608154296875 398.9042358398438 30.08716583251953 398.7816467285156 29.52960968017578 398.7816772460938 M 31.18406677246094 401.8999938964844 L 31.18406677246094 401.8999328613281 C 31.43959045410156 402.7124633789062 31.48466491699219 403.8313598632812 31.33126831054688 405.1521301269531 C 31.03688812255859 407.6896667480469 29.98501586914062 410.8652954101562 28.24539184570312 414.0781860351562 L 28.2449951171875 414.07861328125 C 26.50506591796875 417.2922058105469 24.42141723632812 419.9079895019531 22.45982360839844 421.5396423339844 C 20.69049072265625 423.0113220214844 18.48280334472656 424.1907653808594 17.74807739257812 422.5267944335938 C 17.01339721679688 420.8628234863281 20.36128234863281 420.4121398925781 22.41912841796875 417.85546875 C 24.47695922851562 415.2987976074219 24.23985290527344 415.5129699707031 25.97946929931641 412.3001098632812 L 25.97944641113281 412.3001098632812 C 27.71937561035156 409.0864562988281 28.42465209960938 405.6377258300781 28.42465209960938 405.6377258300781 C 28.42465209960938 405.6377258300781 28.48584747314453 402.35302734375 29.17570495605469 401.4186096191406 C 29.86557006835938 400.4841613769531 30.98392486572266 401.5592956542969 31.18406677246094 401.8999938964844 M 123.7576675415039 427.2718200683594 C 121.1477203369141 426.2201843261719 118.5783233642578 425.0859680175781 116.0534820556641 423.9712829589844 C 105.2499694824219 419.201904296875 95.24412536621094 414.7858276367188 86.44495391845703 418.6061096191406 L 86.44442749023438 418.6053771972656 C 84.46221160888672 419.4460754394531 82.37030029296875 420.7356872558594 80.12503051757812 422.5711975097656 L 79.40926361083984 423.1563415527344 C 66.79566955566406 433.4743957519531 54.3355712890625 443.6620483398438 38.98879241943359 438.0182800292969 C 39.59003448486328 438.0338439941406 40.19124603271484 438.0149230957031 40.79372406005859 437.9591369628906 C 47.86161041259766 437.3070983886719 54.91806793212891 431.7601013183594 65.15821075439453 422.0492248535156 C 67.35340881347656 419.9676818847656 69.59286499023438 417.8919372558594 71.89150238037109 415.9882202148438 C 71.908447265625 415.9750061035156 71.92499542236328 415.9613342285156 71.94112396240234 415.9472961425781 C 75.04488372802734 413.381591796875 78.25564575195312 411.13134765625 81.61070251464844 409.6068420410156 C 87.36179351806641 406.9936218261719 93.58770751953125 406.5073547363281 100.5194702148438 410.2469177246094 C 104.8613891601562 412.58935546875 108.6485443115234 415.6943054199219 112.5783996582031 418.9158630371094 C 116.0348510742188 421.7496032714844 119.5995941162109 424.6717834472656 123.7576675415039 427.2718200683594 M 29.52931976318359 395.7817077636719 C 29.52937316894531 395.7817077636719 29.52937316894531 395.7817077636719 29.52937316894531 395.7817077636719 C 30.59925079345703 395.7815856933594 31.60181427001953 396.0306701660156 32.5091552734375 396.5220642089844 C 33.78693389892578 397.2144470214844 34.77567291259766 398.3428039550781 35.38278198242188 399.7966918945312 C 41.62136077880859 410.3901062011719 46.49543762207031 415.9685668945312 51.17217254638672 417.8727722167969 C 52.42159271240234 418.3816528320312 53.67344665527344 418.6289367675781 54.99961090087891 418.6289367675781 C 58.75352478027344 418.6289367675781 63.33670806884766 416.5540466308594 69.00893402099609 412.2865600585938 C 72.82975769042969 409.1332397460938 76.31904602050781 406.8587646484375 79.67452239990234 405.3340454101562 C 83.36655426025391 403.6560363769531 86.91177368164062 402.8403015136719 90.51255798339844 402.8403015136719 C 94.59713745117188 402.8403015136719 98.71221160888672 403.9430847167969 102.7434844970703 406.1180114746094 C 107.4730987548828 408.6699523925781 111.3968353271484 411.8867797851562 115.5509567260742 415.29248046875 L 116.0274505615234 415.6832580566406 C 121.6574096679688 420.3016967773438 128.0385589599609 425.5363464355469 135.9218444824219 428.4870910644531 C 136.2598876953125 428.6137084960938 136.6423645019531 428.7569580078125 139.8798522949219 431.0502014160156 L 140.4900665283203 431.4824523925781 L 140.8260192871094 432.1505126953125 C 141.0322265625 432.5606384277344 142.0065765380859 434.7430114746094 140.9329528808594 437.4392700195312 C 139.9656829833984 439.8685607910156 137.9894866943359 440.87890625 136.5910949707031 441.0059814453125 L 136.2708282470703 441.0350646972656 L 135.9516448974609 440.9956359863281 C 135.8120422363281 440.9783630371094 132.4852294921875 440.5571594238281 128.3575897216797 439.1739807128906 C 124.6081771850586 437.9175109863281 124.3781433105469 437.809814453125 120.5353927612305 436.0106811523438 C 120.2154312133789 435.8609008789062 119.8693237304688 435.6988525390625 119.4927749633789 435.5228271484375 C 118.4386138916016 435.0300903320312 117.5179748535156 434.6113586425781 116.7057189941406 434.2419128417969 C 113.7442474365234 432.8949279785156 111.7877807617188 432.0050659179688 108.3238983154297 429.8038024902344 C 106.9982299804688 428.9613342285156 105.9715042114258 428.2853393554688 105.0656661987305 427.68896484375 C 103.0632858276367 426.3706359863281 101.7404327392578 425.4996643066406 99.04739379882812 424.0447082519531 C 96.48944854736328 422.6626892089844 94.38081359863281 422.0190124511719 92.41133880615234 422.0190124511719 C 92.20863342285156 422.0190124511719 92.00337219238281 422.0258178710938 91.80128479003906 422.0392456054688 C 89.15734100341797 422.2148132324219 86.30968475341797 423.577392578125 83.09535980224609 426.2048950195312 L 82.37964630126953 426.7899475097656 C 77.19195556640625 431.0334777832031 71.82686614990234 435.422119140625 66.25970458984375 438.7102355957031 C 63.18331909179688 440.5272216796875 60.30126953125 441.8664855957031 57.44886779785156 442.8045959472656 C 54.22090148925781 443.8662109375 50.98826599121094 444.4044799804688 47.84072113037109 444.4044799804688 C 44.76994323730469 444.4044799804688 41.66475677490234 443.8948669433594 38.6114501953125 442.8898315429688 C 35.46660614013672 441.8546752929688 32.26463317871094 440.2563781738281 29.09276580810547 438.1387939453125 C 25.0328369140625 435.9119567871094 20.55221557617188 432.2632751464844 15.01799011230469 426.6775207519531 C 13.87319946289062 425.77685546875 13.0498046875 424.4582214355469 12.62826538085938 422.8440856933594 C 12.26808166503906 421.4648742675781 12.19049072265625 419.8604125976562 12.39764404296875 418.0752563476562 C 12.76846313476562 414.8824768066406 14.03140258789062 411.1553344726562 15.95578002929688 407.5726928710938 C 15.99385070800781 407.4962768554688 16.03488159179688 407.42041015625 16.07861328125 407.3455505371094 C 18.02725219726562 403.7752075195312 20.45997619628906 400.6786804199219 22.9329833984375 398.6220092773438 C 25.19892883300781 396.7374877929688 27.41828155517578 395.7818603515625 29.52937316894531 395.7817077636719 L 29.52931976318359 395.7817077636719 Z M 103.852165222168 415.88623046875 C 102.3100738525391 414.7866821289062 100.7387237548828 413.77392578125 99.09506225585938 412.8871765136719 C 96.17266845703125 411.3105773925781 93.36383056640625 410.544189453125 90.50807189941406 410.544189453125 C 88.01266479492188 410.544189453125 85.50827026367188 411.1309814453125 82.85179138183594 412.3381042480469 C 80.11380767822266 413.5822143554688 77.17625427246094 415.5140075683594 73.87232971191406 418.2431945800781 C 73.84251403808594 418.2685241699219 73.81230163574219 418.2934875488281 73.78191375732422 418.31787109375 C 71.48850250244141 420.2187805175781 69.27415466308594 422.2806396484375 67.22242736816406 424.2261657714844 C 61.23637390136719 429.9028015136719 57.12592315673828 433.3877258300781 53.47819519042969 435.8786926269531 C 53.47377014160156 435.8817138671875 53.46954345703125 435.8846130371094 53.46511840820312 435.8876342773438 C 61.69062042236328 433.7743835449219 69.41745758056641 427.4538879394531 77.50979614257812 420.8342590332031 L 78.22628784179688 420.2485656738281 C 80.64900970458984 418.2679748535156 82.95403289794922 416.8270568847656 85.27304840087891 415.843505859375 L 87.498046875 414.8998413085938 L 87.57761383056641 415.0123291015625 C 89.51493072509766 414.4443664550781 91.56739807128906 414.1575012207031 93.70658874511719 414.157470703125 C 97.03642272949219 414.1574096679688 100.4120941162109 414.8263549804688 103.852165222168 415.88623046875 Z" stroke="none" fill="#003652"/>
    </g>
  </g>
</svg>
