<svg xmlns="http://www.w3.org/2000/svg" width="80" height="80" viewBox="0 0 80 80">
  <g id="Halacha" transform="translate(-24.667 -24.669)">
    <g id="Path_89092" data-name="Path 89092" transform="translate(-348.452 -387.835)" fill="none">
      <path d="M395.39,466.5l23.984-7.981,11.6-20L407.6,446.7Zm17.729-16.612a2.62,2.62,0,1,1-2.62,2.62A2.626,2.626,0,0,1,413.119,449.883Z" stroke="none"/>
      <path d="M 402.2754211425781 461.0425415039062 L 411.6416015625 457.9258117675781 C 409.27685546875 457.2809448242188 407.5283508300781 455.1269836425781 407.4996337890625 452.5673522949219 L 402.2754211425781 461.0425415039062 M 418.5476989746094 453.9582214355469 L 424.3075866699219 444.0222778320312 L 415.1029968261719 447.2450256347656 C 417.2255859375 448.048583984375 418.7387084960938 450.1024780273438 418.7387084960938 452.5031127929688 C 418.7387084960938 453.0061950683594 418.6723022460938 453.4939270019531 418.5476989746094 453.9582214355469 M 395.3900146484375 466.4955139160156 L 407.5951843261719 446.6951293945312 L 430.9701232910156 438.510986328125 L 419.3740844726562 458.5144653320312 L 395.3900146484375 466.4955139160156 Z M 413.1189575195312 449.8834228515625 C 411.6771545410156 449.8834228515625 410.499267578125 451.061279296875 410.499267578125 452.5031127929688 C 410.499267578125 453.9449157714844 411.6771545410156 455.1228332519531 413.1189575195312 455.1228332519531 C 414.560791015625 455.1228332519531 415.7387084960938 453.9449157714844 415.7387084960938 452.5031127929688 C 415.7387084960938 451.061279296875 414.5608825683594 449.8834228515625 413.1189575195312 449.8834228515625 Z" stroke="none" fill="#304b45"/>
    </g>
    <g id="Path_89093" data-name="Path 89093" transform="translate(-521.843 -761.386)" fill="none">
      <path d="M585.23,847.5h2.559v4.122H585.23Z" stroke="none"/>
      <path d="M 585.22998046875 847.5 L 587.788818359375 847.5 L 587.788818359375 851.6224365234375 L 585.22998046875 851.6224365234375 L 585.22998046875 847.5 Z" stroke="none" fill="#304b45"/>
    </g>
    <g id="Path_89094" data-name="Path 89094" transform="translate(-761.388 -521.841)" fill="none">
      <path d="M847.5,585.23h4.122v2.559H847.5Z" stroke="none"/>
      <path d="M 847.5 585.22998046875 L 851.6224365234375 585.22998046875 L 851.6224365234375 587.788818359375 L 847.5 587.788818359375 L 847.5 585.22998046875 Z" stroke="none" fill="#304b45"/>
    </g>
    <g id="Path_89095" data-name="Path 89095" transform="translate(-521.843 -265.819)" fill="none">
      <path d="M585.23,304.92h2.559v4.123H585.23Z" stroke="none"/>
      <path d="M 585.22998046875 304.9200134277344 L 587.788818359375 304.9200134277344 L 587.788818359375 309.0425415039062 L 585.22998046875 309.0425415039062 L 585.22998046875 304.9200134277344 Z" stroke="none" fill="#304b45"/>
    </g>
    <g id="Path_89096" data-name="Path 89096" transform="translate(10.607 10.607)" fill="none">
      <path d="M54.06,14.062a40,40,0,1,0,40,40,39.994,39.994,0,0,0-40-40Zm0,65.312A25.312,25.312,0,1,1,79.372,54.062,25.306,25.306,0,0,1,54.06,79.374Z" stroke="none"/>
      <path d="M 54.05999755859375 17.06199645996094 C 49.06247711181641 17.06199645996094 44.21652984619141 18.03968048095703 39.65678405761719 19.96788024902344 C 35.25109100341797 21.83094787597656 31.29398345947266 24.49880981445312 27.89540100097656 27.89739990234375 C 24.49681091308594 31.29598999023438 21.82893371582031 35.25308990478516 19.96588134765625 39.65879058837891 C 18.03767395019531 44.21854782104492 17.05999755859375 49.06447982788086 17.05999755859375 54.0620002746582 C 17.05999755859375 59.05952072143555 18.03767395019531 63.90546798706055 19.96588134765625 68.4652099609375 C 21.82893371582031 72.87091064453125 24.49681091308594 76.82801818847656 27.89540100097656 80.22660064697266 C 31.29398345947266 83.62518310546875 35.25109100341797 86.29306793212891 39.65678405761719 88.15612030029297 C 44.21652984619141 90.08432006835938 49.06247711181641 91.06199645996094 54.05999755859375 91.06199645996094 C 59.05751800537109 91.06199645996094 63.90345001220703 90.08432006835938 68.46321105957031 88.15612030029297 C 72.86890411376953 86.29306793212891 76.82601165771484 83.62518310546875 80.22459411621094 80.22660064697266 C 83.62318420410156 76.82801818847656 86.29104614257812 72.87091064453125 88.15411376953125 68.4652099609375 C 90.08232116699219 63.90546798706055 91.05999755859375 59.05952072143555 91.05999755859375 54.0620002746582 C 91.05999755859375 49.06447982788086 90.08232116699219 44.21854782104492 88.15411376953125 39.65879058837891 C 86.29104614257812 35.25308990478516 83.62318420410156 31.29598999023438 80.22459411621094 27.89739990234375 C 76.82601165771484 24.49880981445312 72.86890411376953 21.83094787597656 68.46321105957031 19.96788024902344 C 63.90345001220703 18.03968048095703 59.05751800537109 17.06199645996094 54.05999755859375 17.06199645996094 M 54.05999755859375 82.37380981445312 C 38.44882202148438 82.37380981445312 25.74819946289062 69.67318725585938 25.74819946289062 54.0620002746582 C 25.74819946289062 38.45081329345703 38.44882202148438 25.75019073486328 54.05999755859375 25.75019073486328 C 69.67117309570312 25.75019073486328 82.37179565429688 38.45081329345703 82.37179565429688 54.0620002746582 C 82.37179565429688 69.67318725585938 69.67117309570312 82.37380981445312 54.05999755859375 82.37380981445312 M 54.05999755859375 14.06199645996094 C 76.15576934814453 14.06199645996094 94.05999755859375 31.96622467041016 94.05999755859375 54.0620002746582 C 94.05999755859375 76.15779113769531 76.15576934814453 94.06199645996094 54.05999755859375 94.06199645996094 C 31.96421051025391 94.06199645996094 14.05999755859375 76.15779113769531 14.05999755859375 54.0620002746582 C 14.05999755859375 31.96622467041016 31.96421051025391 14.06199645996094 54.05999755859375 14.06199645996094 Z M 54.05999755859375 79.37380981445312 C 68.04367828369141 79.37380981445312 79.37179565429688 68.04568481445312 79.37179565429688 54.0620002746582 C 79.37179565429688 40.07832336425781 68.04367828369141 28.75019073486328 54.05999755859375 28.75019073486328 C 40.07631683349609 28.75019073486328 28.74819946289062 40.07832336425781 28.74819946289062 54.0620002746582 C 28.74819946289062 68.04568481445312 40.07631683349609 79.37380981445312 54.05999755859375 79.37380981445312 Z" stroke="none" fill="#304b45"/>
    </g>
    <g id="Path_89097" data-name="Path 89097" transform="translate(-265.821 -521.841)" fill="none">
      <path d="M304.92,585.23h4.123v2.559H304.92Z" stroke="none"/>
      <path d="M 304.9200134277344 585.22998046875 L 309.0425415039062 585.22998046875 L 309.0425415039062 587.788818359375 L 304.9200134277344 587.788818359375 L 304.9200134277344 585.22998046875 Z" stroke="none" fill="#304b45"/>
    </g>
  </g>
</svg>
