<svg xmlns="http://www.w3.org/2000/svg" width="40" height="26.688" viewBox="0 0 40 26.688">
  <path id="Path_89900" data-name="Path 89900" d="M38.418,24.221a1.911,1.911,0,0,0-1.744-1.277c-.467.031-.5.189-.934.375a1.243,1.243,0,0,0-.964.9l-.811,1.4c-.4.187-.654.5-1.121.593a2.368,2.368,0,0,0-2.118,1.774,2.065,2.065,0,0,0-.592.28,1.6,1.6,0,0,0-.561-1.215l-.561-.467a1.566,1.566,0,0,0-1.526-1.246h-.561a7.72,7.72,0,0,0-2.086.374.651.651,0,0,0-.125-.187,3.234,3.234,0,0,0-2.3-1.059l-9.529-.779c-1.152-.311-5.917-1.619-7.6-1.619a1.776,1.776,0,0,0-.4.031,1.417,1.417,0,0,0-1.339-.9c-1.183,0-1.651,1.339-1.806,1.806a1.763,1.763,0,0,0-.093.561l.093,2.554-1,1.837a1.436,1.436,0,0,0-.187.872l.031.716-.467.779A1.561,1.561,0,0,0-.01,31.664L.893,34l.374,3.332a1.6,1.6,0,0,0,1.028,1.308l.965.343.031.156a1.566,1.566,0,0,0,.965,1.183l6.2,2.46a1.821,1.821,0,0,0,.592.125,1.588,1.588,0,0,0,.965-.343,1.093,1.093,0,0,1,.156.249,3.272,3.272,0,0,0,2.958,2.149,2.357,2.357,0,0,0,.467-.031c.062.093.125.218.187.311a3.449,3.449,0,0,0,2.55,1.653c.249.062.813.994,1.063.994a1.715,1.715,0,0,0,1.246-.5,2.155,2.155,0,0,0,.5-1.619,1.776,1.776,0,0,1,.031-.4,8.214,8.214,0,0,1,1.37-.716,11.813,11.813,0,0,0,2.086.187,3.019,3.019,0,0,0,2.522-.9,1.262,1.262,0,0,0,.156-.28,4.554,4.554,0,0,1,.4.28,1.465,1.465,0,0,0,1.028.436,1.41,1.41,0,0,0,.5-.093c0,.062.9.311.9.374.28,1.028.222,1.061,1.873,2.245.467.311.556.714,1.055.5,1.588-.747,1.059-2.055.529-3.457-.311-.716-.031-1.524-.529-2.116a1.62,1.62,0,0,1-.218-1,16.413,16.413,0,0,1,2.9-3.612,1.516,1.516,0,0,0,.125-1.993,6.19,6.19,0,0,1-.5-.747c.779-.374,1-1.339,1.152-2.242a2.63,2.63,0,0,1,1.028-.5c.779-.249.747-.975.872-1.6.093-.561.436-.766,0-1.171A2.382,2.382,0,0,0,39.856,27.5a3.1,3.1,0,0,0-.846-2.343A6.843,6.843,0,0,1,38.418,24.221Z" transform="translate(0.106 -21.2)" fill="#fff"/>
</svg>
