<svg xmlns="http://www.w3.org/2000/svg" width="31.725" height="40.001" viewBox="0 0 31.725 40.001">
  <path id="Union_474" data-name="Union 474" d="M21845.648,14032a3.227,3.227,0,0,1-3.223-3.223v-5.828h-3.99a.437.437,0,0,1-.434-.439v-16.269a.433.433,0,0,1,.434-.438h2.1v-1.674a.427.427,0,0,1,.434-.434h1.453v-8.475a3.223,3.223,0,0,1,3.223-3.222h16.428a3.226,3.226,0,0,1,3.221,3.222v8.475h1.455a.428.428,0,0,1,.434.434v1.674h2.1a.437.437,0,0,1,.439.438v16.269a.441.441,0,0,1-.439.439h-3.99v5.828a3.23,3.23,0,0,1-3.221,3.223Zm-2.35-3.223a2.349,2.349,0,0,0,2.35,2.35h16.428a2.356,2.356,0,0,0,2.354-2.35v-5.828H21843.3Zm-4.43-6.7h29.984v-15.4h-1.668v13.617a.439.439,0,0,1-.434.439h-11.307a.437.437,0,0,1,0-.873h10.873v-2.376h-9.391a3.1,3.1,0,0,0-2.656,2.03.51.51,0,0,1-.078.138.44.44,0,0,1-.328.148.431.431,0,0,1-.336-.148.383.383,0,0,1-.076-.132l-.006-.011a3.046,3.046,0,0,0-2.65-2.025h-9.391v2.376h10.871a.434.434,0,0,1,.434.434.439.439,0,0,1-.434.439h-11.3a.435.435,0,0,1-.434-.439v-13.617h-1.67Zm19.314-7.914a.436.436,0,0,0,.434.438h5.176a.44.44,0,0,0,.439-.438.435.435,0,0,0-.439-.434h-5.176A.431.431,0,0,0,21858.184,14014.165Zm-14.687,0a.436.436,0,0,0,.434.438h5.176a.44.44,0,0,0,.439-.438.435.435,0,0,0-.439-.434h-5.176A.431.431,0,0,0,21843.5,14014.165Zm14.688-2.427a.435.435,0,0,0,.434.434h5.176a.436.436,0,1,0,0-.872h-5.176A.433.433,0,0,0,21858.184,14011.738Zm-14.687,0a.435.435,0,0,0,.434.434h5.176a.436.436,0,1,0,0-.872h-5.176A.433.433,0,0,0,21843.5,14011.738Zm14.688-2.431a.428.428,0,0,0,.434.434h5.176a.44.44,0,0,0,.439-.434.435.435,0,0,0-.439-.434h-5.176A.431.431,0,0,0,21858.184,14009.308Zm-14.687,0a.428.428,0,0,0,.434.434h5.176a.44.44,0,0,0,.439-.434.435.435,0,0,0-.439-.434h-5.176A.431.431,0,0,0,21843.5,14009.308Zm14.688-2.432a.436.436,0,0,0,.434.438h5.176a.436.436,0,1,0,0-.872h-5.176A.425.425,0,0,0,21858.184,14006.876Zm-14.687,0a.436.436,0,0,0,.434.438h5.176a.436.436,0,1,0,0-.872h-5.176A.425.425,0,0,0,21843.5,14006.876Zm-.2-11.652v8.475h7.5a3.495,3.495,0,0,0,6.131,0h7.5v-8.475a2.357,2.357,0,0,0-2.354-2.354h-2.168v1.619a1.861,1.861,0,0,1-1.855,1.854h-8.381a1.856,1.856,0,0,1-1.855-1.854v-1.619h-2.168A2.35,2.35,0,0,0,21843.3,13995.224Zm8.645,32.926a1.918,1.918,0,1,1,1.916,1.921A1.922,1.922,0,0,1,21851.943,14028.149Z" transform="translate(-21838.002 -13992.002)" fill="#fff"/>
</svg>
