<svg xmlns="http://www.w3.org/2000/svg" width="40.004" height="39.996" viewBox="0 0 40.004 39.996">
  <path id="Union_473" data-name="Union 473" d="M21851.553,14030.931a19.989,19.989,0,0,1-11.492-27.762,6.442,6.442,0,0,1,2.8-10.938,6.553,6.553,0,0,1,1.6-.2,6.458,6.458,0,0,1,4.7,2.037A20.07,20.07,0,0,1,21858,13992h.016a20,20,0,0,1,16.77,30.87l1.707-.7.488,1.2-3.645,1.488a.639.639,0,0,1-.594-.055.647.647,0,0,1-.3-.517l-.148-3.937,1.291-.05.072,1.928a18.578,18.578,0,0,0,3-11.537,18.671,18.671,0,0,0-4.574-11,18.7,18.7,0,0,0-14.084-6.391,18.5,18.5,0,0,0-8.043,1.822,6.438,6.438,0,0,1-.945,7.9,6.426,6.426,0,0,1-7.906.944,18.7,18.7,0,0,0,28.9,22.382l.828.993a20.013,20.013,0,0,1-19.283,3.6Zm-5.283-29.744.912-.911-1.822-1.823,1.822-1.829-.912-.911-1.822,1.823-1.828-1.823-.912.911,1.824,1.829-1.824,1.823.912.911,1.828-1.823Zm5.277,19.844a1.936,1.936,0,0,1-1.937-1.933v-12.261a1.936,1.936,0,0,1,1.938-1.933h1.934v-.648h1.289v2.581h-1.289v-.648h-1.934a.647.647,0,0,0-.648.648v1.29h14.2v-1.29a.644.644,0,0,0-.643-.648h-1.291v-1.284h1.291a1.94,1.94,0,0,1,1.938,1.933v10.322a.647.647,0,0,1-.191.456l-3.229,3.224a.649.649,0,0,1-.451.191Zm10.971-1.34,2.576-2.531h-2.576Zm-3.553-1.889h1.291v-1.29h-1.291Zm-3.229,0h1.3v-1.29h-1.3Zm-3.223,0h1.291v-1.29h-1.291Zm9.68-2.58h1.285v-1.285h-1.285Zm-3.229,0h1.291v-1.285h-1.291Zm-3.229,0h1.3v-1.285h-1.3Zm-3.223,0h1.291v-1.285h-1.291Zm9.68-2.581h1.285v-1.29h-1.285Zm-3.229,0h1.291v-1.29h-1.291Zm-3.229,0h1.3v-1.29h-1.3Zm4.844-5.8v-.648h-4.514v-1.284h4.514v-.648h1.291v2.581Z" transform="translate(-21838.002 -13992)" fill="#003652"/>
</svg>
