<svg xmlns="http://www.w3.org/2000/svg" width="131.5" height="66.45" viewBox="0 0 131.5 66.45">
  <g id="Mishnayos" transform="translate(-2518.75 9882.251)">
    <path id="Subtraction_18" data-name="Subtraction 18" d="M129,63.95H0V23.595l4.1,4.1,4.745-4.746L4.1,18.2,0,22.3V0H39.559L34.972,4.589l4.745,4.745,4.746-4.745L39.875,0H72.922L68.179,4.746l4.745,4.746,4.745-4.746L72.925,0h33.313L101.65,4.589,106.4,9.334l4.746-4.745L106.553,0H129V63.949h0Zm-5.347-10.129-4.746,4.745,4.746,4.745,4.745-4.745-4.745-4.745Zm-49.47.157H89.5l-4.589,4.588,4.746,4.745,4.745-4.745-4.588-4.588h15.319l-3.486,3.486,4.745,4.745,4.746-4.745-3.487-3.486h11.23V24.028l3.667,3.667,4.745-4.746L122.551,18.2l-3.667,3.666V9.971H90.126l4.28-4.28L89.66.947,84.914,5.692l4.281,4.28H56.653l4.281-4.28L56.188.947,51.443,5.692l4.28,4.28h-32.8l4.281-4.28L22.46.947,17.715,5.692l4.28,4.28H9.012v29.3L5.2,35.46.456,40.207,5.2,44.952l3.809-3.809V53.978H22.3l-4.588,4.588,4.745,4.745,4.746-4.745-4.589-4.588H38.458l-3.486,3.486,4.745,4.745,4.746-4.745-3.487-3.486H56.031l-4.588,4.588,4.745,4.745,4.746-4.745-4.589-4.588h15.32l-3.486,3.486,4.745,4.745,4.745-4.745-3.484-3.484ZM5.2,52.718.456,57.463,5.2,62.209l4.745-4.745L5.2,52.718ZM123.653,35.46l-4.746,4.746,4.746,4.745,4.745-4.745-4.745-4.746ZM5.2,1.343.456,6.089,5.2,10.834,9.948,6.089,5.2,1.343Zm118.451-.4-4.746,4.745,4.746,4.745L128.4,5.692,123.653.947Z" transform="translate(2520 -9881.001)" fill="none" stroke="#304b45" stroke-linejoin="round" stroke-width="2.5"/>
    <g id="Path_89136" data-name="Path 89136" transform="translate(2537.113 -9812.826)" fill="none">
      <path d="M9.018-41.311c0,.425-.484,3.119-.7,4.146a19.841,19.841,0,0,1-.749,2.091c-.044.213-.264.78-.749.851-.308.035-.528-.319-.44-.78.132-.709.176-1.347.308-2.055.22-1.2.044-2.374-.881-2.87a10.141,10.141,0,0,0-1.585-.284,2.946,2.946,0,0,1-2.466-1.24,3.71,3.71,0,0,1-.4-1.524A25.517,25.517,0,0,1,1.4-45.6a3.619,3.619,0,0,1,.352-1.559.756.756,0,0,1,1.057-.213c.661.638,2.114.78,3.038,1.028.925.319,2.246.744,2.51,1.524A7.406,7.406,0,0,1,9.018-41.311Zm1.893,15.386a7.114,7.114,0,0,1-.176-3.408c.132-.815.616-1.134,1.585-1.2.881-.071,1.013-.638.661-2.41-.132-.744-.308-1.559-.4-2.3a4.547,4.547,0,0,1,.264-3.154c.22-.425.484-.851.749-1.276.4-.638-.088-.78-.749-1.169-1.145-.709-1.1-1.985-1.057-3.154a4.94,4.94,0,0,1,.4-2.835c.352-.709.925-.851,1.673-.39a2.934,2.934,0,0,0,1.585.354c.793-.035,1.585.106,2.422.142a2.962,2.962,0,0,0,.969,0,9.459,9.459,0,0,1,4.227.39A4.553,4.553,0,0,1,25.62-44.5c1.1,1.559.925,2.977,1.1,4.5,0,.177-.044.354-.044.5,0,1.169.044,1.736.044,1.878,0,1.347.044,2.622.088,3.969.044.425.132.957.132,1.418.088,2.658.088,4.04.22,5.883C27.2-25.612,26.808-25,25.752-25c-.528-.106-.661-.461-.616-1.595,0-.39.132.136.132-.289.044-.957,0-1.914,0-2.87l-.044-.886c-.088-1.134-.176-4.146-.176-4.111-.088-.744-.132-1.453-.264-2.2a6.391,6.391,0,0,0-.308-.957,5,5,0,0,0-.881-1.666c-.7-.709-3.479-1.2-4.756-.992a15.314,15.314,0,0,1-2.2.142c-1.409-.035-1.982.638-2.114,1.666A7.267,7.267,0,0,0,15.1-34.9a8.767,8.767,0,0,0,.616,1.453,38.211,38.211,0,0,1,2.026,3.686,6.692,6.692,0,0,1-.088,3.367c-.44,1.382-1.893,1.459-3.743,1.281-.44-.035-1.585,0-2.026-.035C11.264-25.216,11-25.429,10.912-25.925Zm24.88-16.024A3.047,3.047,0,0,0,37.465-43.9a11.032,11.032,0,0,1,.352-2.091c.132-.6.528-.851,1.233-.673a6.384,6.384,0,0,1,1.761.6A8.549,8.549,0,0,1,43.85-43.4,8.2,8.2,0,0,1,45.3-40.177a36.111,36.111,0,0,1,.749,5.989,35.615,35.615,0,0,1-.572,4.749c-.22,1.347-.528,1.778-.7,3.16-.132.851-.528,1.2-1.585,1.2-.44,0-.881,0-1.321-.035-.352-.035-4.183-.035-4.227-.035-.7-.035-1.453.035-2.158.035a13.569,13.569,0,0,1-1.673-.071c-.528-.071-.7-.319-.528-.78.264-.815.616-.714.925-1.494.22-.638.484-1.24.7-1.878.308-.78.572-.921,1.585-.957,1.277,0,2.554-.035,3.3-.071,1.013-.035,2.026-.035,3.038-.071.881,0,1.409-.354,1.5-1.063a5.193,5.193,0,0,0,0-1.169,11.063,11.063,0,0,0-1.013-4.253,6.882,6.882,0,0,0-1.233-1.807,6.252,6.252,0,0,0-1.717-1.311,4.5,4.5,0,0,0-2.246-.638,4.645,4.645,0,0,0-1.717-.035,4.336,4.336,0,0,0-3.215,2.835c-.616,1.7-.308,3.367-.352,5.068a29.492,29.492,0,0,0,.264,3.4,3.659,3.659,0,0,1-.176.957c-.837,2.3-.925,2.2-1.541,2.841-.22.248-.264.461-.661.425s-.661-.142-.616-.425c.044-.425.4-.461.44-.851.044-1.134,0-1.884,0-3.018v-.815c0-1.524-.088-3.083.044-4.607a6.624,6.624,0,0,1,1.673-4.04c.528-.744.4-1.063-.484-1.453a2.937,2.937,0,0,1-1.893-1.666,4.314,4.314,0,0,1-.352-2.339c.044-.532.088-1.276.088-1.807a3.158,3.158,0,0,1,.264-.851c.308-.567.837-.709,1.277-.248,1.013.992,2.51,1.453,3.611,2.339a1.711,1.711,0,0,1,.7,1.24C35.571-43.154,35.659-42.587,35.792-41.949Zm18.715.638c0,.425-.484,3.119-.7,4.146a19.841,19.841,0,0,1-.749,2.091c-.044.213-.264.78-.749.851-.308.035-.528-.319-.44-.78.132-.709.176-1.347.308-2.055.22-1.2.044-2.374-.881-2.87a10.141,10.141,0,0,0-1.585-.284,2.946,2.946,0,0,1-2.466-1.24,3.71,3.71,0,0,1-.4-1.524,25.517,25.517,0,0,1,.044-2.622,3.619,3.619,0,0,1,.352-1.559.756.756,0,0,1,1.057-.213c.661.638,2.114.78,3.038,1.028.925.319,2.246.744,2.51,1.524A7.406,7.406,0,0,1,54.506-41.311Zm19.155-.39a6.089,6.089,0,0,1-.528,3.083c-.44,1.1-.881,1.2-1.893.319-1.541-1.382-1.365-.425-2.2.461-.749.78-.749.921-.088,1.453a17.408,17.408,0,0,1,2.29,1.843c.308.354.616.744.881,1.028a5.587,5.587,0,0,1,1.5,3.827,9.454,9.454,0,0,1-.837,3.8,2.873,2.873,0,0,1-.264.567,1.15,1.15,0,0,1-.881.5c-.484,0-.572-.284-.7-.6-.088-.425-.088-.921-.22-1.382-.176-.921-1.057-.962-2.07-2.061-.572-.567-2.026-1.878-2.6-2.41a40.537,40.537,0,0,0-3.655-4c-.661-.6-1.013-.957-1.453-.851-.572.177-.616.354-.749,1.1-.176.886.969,2.126,1.5,2.87.44.638,1.189,2.268,1.761,2.941,1.057,1.24,1.233,1.778.7,3.2a1.362,1.362,0,0,1-1.365.921c-.7.035-1.409.035-2.114.035-.44,0-2.026,0-2.466.071a1.446,1.446,0,0,1-1.013-.177c-.484-.284-.44-.461-.044-.851a2.185,2.185,0,0,0,.4-.673c.132-.673.308-.4.308-1.069a14.5,14.5,0,0,0-.132-1.772c-.44-1.949-.837-3.827-.4-4.961A5.282,5.282,0,0,1,58.69-36.1a5.319,5.319,0,0,0,.837-.815c.308-.284.22-.567-.044-.921A9.634,9.634,0,0,0,57.9-39.574a4.655,4.655,0,0,1-1.057-1.985A5.331,5.331,0,0,1,56.576-44a3.359,3.359,0,0,1,.881-2.162,2.053,2.053,0,0,1,1.189-.851c.528-.177.925-.177.969.319.132.354.044.815.176,1.169a6.826,6.826,0,0,0,1.321,1.772,39.321,39.321,0,0,0,3.523,4l.352.319a8.234,8.234,0,0,1,1.233,1.063c.793.851,1.145.744,1.541.284.837-.815,1.145-1.63.264-2.622a7.168,7.168,0,0,0-1.057-.815,3.7,3.7,0,0,1-1.629-2.658c-.044-.921,1.321-2.445,2.114-2.906.616-.354,1.057-.39,1.453.106a8.232,8.232,0,0,0,1.629,1.524C72.34-44.288,73.485-43.047,73.661-41.7Zm8.411-.248A3.047,3.047,0,0,0,83.745-43.9a11.032,11.032,0,0,1,.352-2.091c.132-.6.528-.851,1.233-.673a6.384,6.384,0,0,1,1.761.6A8.549,8.549,0,0,1,90.13-43.4a8.2,8.2,0,0,1,1.453,3.225,36.113,36.113,0,0,1,.749,5.989,35.614,35.614,0,0,1-.572,4.749c-.22,1.347-.528,1.778-.7,3.16-.132.851-.528,1.2-1.585,1.2-.44,0-.881,0-1.321-.035-.352-.035-4.183-.035-4.227-.035-.7-.035-1.453.035-2.158.035a13.569,13.569,0,0,1-1.673-.071c-.528-.071-.7-.319-.528-.78.264-.815.616-.714.925-1.494.22-.638.484-1.24.7-1.878.308-.78.572-.921,1.585-.957,1.277,0,2.554-.035,3.3-.071,1.013-.035,2.026-.035,3.038-.071.881,0,1.409-.354,1.5-1.063a5.192,5.192,0,0,0,0-1.169A11.063,11.063,0,0,0,89.6-36.916a6.882,6.882,0,0,0-1.233-1.807,6.252,6.252,0,0,0-1.717-1.311,4.5,4.5,0,0,0-2.246-.638,4.645,4.645,0,0,0-1.717-.035,4.336,4.336,0,0,0-3.215,2.835c-.616,1.7-.308,3.367-.352,5.068a29.489,29.489,0,0,0,.264,3.4,3.659,3.659,0,0,1-.176.957c-.837,2.3-.925,2.2-1.541,2.841-.22.248-.264.461-.661.425s-.661-.142-.616-.425c.044-.425.4-.461.44-.851.044-1.134,0-1.884,0-3.018v-.815c0-1.524-.088-3.083.044-4.607a6.624,6.624,0,0,1,1.673-4.04c.528-.744.4-1.063-.484-1.453a2.937,2.937,0,0,1-1.894-1.666,4.314,4.314,0,0,1-.352-2.339c.044-.532.088-1.276.088-1.807a3.158,3.158,0,0,1,.264-.851c.308-.567.837-.709,1.277-.248,1.013.992,2.51,1.453,3.611,2.339a1.711,1.711,0,0,1,.7,1.24C81.852-43.154,81.94-42.587,82.072-41.949Z" stroke="none"/>
      <path d="M 30.60770797729492 -47.57487487792969 C 30.33418655395508 -47.57487487792969 30.07378387451172 -47.38815307617188 29.89089584350586 -47.05174255371094 C 29.75879669189453 -46.76822662353516 29.67072296142578 -46.48471069335938 29.62669372558594 -46.20121383666992 C 29.62669372558594 -45.66963958740234 29.58265686035156 -44.92544174194336 29.53862762451172 -44.39386749267578 C 29.45055389404297 -43.50791168212891 29.53862762451172 -42.90545654296875 29.89089584350586 -42.05495452880859 C 30.15510940551758 -41.27531433105469 30.85965347290039 -40.74372863769531 31.78439712524414 -40.38935470581055 C 32.66508102416992 -39.99952697753906 32.79718017578125 -39.68058395385742 32.26876831054688 -38.93639755249023 C 31.16789627075195 -37.44798278808594 30.7715950012207 -36.73922729492188 30.59545135498047 -34.89644241333008 C 30.46335220336914 -33.37260055541992 30.55141067504883 -31.81331253051758 30.55141067504883 -30.28948593139648 L 30.55141067504883 -29.47439956665039 C 30.55141067504883 -28.34038543701172 30.59545135498047 -27.59056854248047 30.55141067504883 -26.4565544128418 C 30.50738143920898 -26.06672668457031 30.15510940551758 -26.03129959106445 30.11108016967773 -25.60602569580078 C 30.06703948974609 -25.32252883911133 30.33123779296875 -25.21621322631836 30.72756576538086 -25.18077087402344 C 31.12386703491211 -25.14528656005859 31.16789627075195 -25.35797119140625 31.38806915283203 -25.60602569580078 C 32.00455474853516 -26.24391174316406 32.09262466430664 -26.14321136474609 32.92928314208984 -28.44669723510742 C 32.97332382202148 -28.58843994140625 33.14946746826172 -29.26177215576172 33.10542297363281 -29.40352630615234 C 33.01735305786133 -30.53754043579102 32.79718017578125 -31.67156982421875 32.84120941162109 -32.80558395385742 C 32.88525390625 -34.50661468505859 32.57701110839844 -36.17221450805664 33.19349670410156 -37.87324142456055 C 33.67788314819336 -39.290771484375 34.69068145751953 -40.2121696472168 36.40802383422852 -40.70829772949219 C 37.02452850341797 -40.885498046875 37.55294418334961 -40.70830154418945 38.12538146972656 -40.67287063598633 C 38.96205139160156 -40.67287063598633 39.66659545898438 -40.42479705810547 40.37116622924805 -40.03496932983398 C 40.98764038085938 -39.68058395385742 41.56009674072266 -39.32621383666992 42.08850860595703 -38.7237548828125 C 42.70499420166016 -38.0150146484375 43.05726623535156 -37.51887130737305 43.32148361206055 -36.91641235351562 C 43.89392471313477 -35.53432846069336 44.33428192138672 -34.15224075317383 44.33428192138672 -32.66382598876953 C 44.37832641601562 -32.27401351928711 44.37832641601562 -31.88419723510742 44.33428192138672 -31.49436950683594 C 44.24621200561523 -30.78561401367188 43.71779632568359 -30.43122863769531 42.83709716796875 -30.43122863769531 C 41.82429504394531 -30.39578628540039 40.8115119934082 -30.39578628540039 39.7986946105957 -30.36035537719727 C 39.05010986328125 -30.32491302490234 37.77310943603516 -30.28948593139648 36.49610900878906 -30.28948593139648 C 35.48329544067383 -30.25404357910156 35.21909713745117 -30.11228561401367 34.91085433959961 -29.33265686035156 C 34.69068145751953 -28.69475555419922 34.42646789550781 -28.09231185913086 34.20629501342773 -27.45442581176758 C 33.89805221557617 -26.67478561401367 33.54576873779297 -26.77548599243164 33.28156661987305 -25.96041488647461 C 33.10542297363281 -25.49971389770508 33.28156661987305 -25.25164031982422 33.80998229980469 -25.18077087402344 C 34.38243865966797 -25.10989761352539 34.95488357543945 -25.10989761352539 35.48329544067383 -25.10989761352539 C 36.1878547668457 -25.10990142822266 36.93647384643555 -25.18076324462891 37.64099502563477 -25.14532852172852 C 37.68503952026367 -25.14532852172852 41.51605224609375 -25.14532852172852 41.86833953857422 -25.10989761352539 C 42.30868148803711 -25.07445526123047 42.7490234375 -25.07445526123047 43.18936920166016 -25.07445526123047 C 44.24621200561523 -25.07445526123047 44.64252471923828 -25.42884063720703 44.77460861206055 -26.27935791015625 C 44.95075225830078 -27.66144180297852 45.25901031494141 -28.09231185913086 45.47918319702148 -29.43895721435547 C 45.6993522644043 -31.03366851806641 46.0516242980957 -32.62838363647461 46.0516242980957 -34.18767166137695 C 46.00759506225586 -36.03045654296875 45.65532302856445 -38.58201217651367 45.30303955078125 -40.17674255371094 C 45.03882598876953 -41.34618377685547 44.59848022460938 -42.40932464599609 43.84989547729492 -43.40159606933594 C 43.05726623535156 -44.42931365966797 42.17656707763672 -45.38613891601562 40.8115119934082 -46.05947113037109 C 40.23905181884766 -46.34295654296875 39.66659545898438 -46.55559921264648 39.05010986328125 -46.66189956665039 C 38.34555053710938 -46.83908843994141 37.94925308227539 -46.59104156494141 37.817138671875 -45.98858642578125 C 37.64099502563477 -45.31525421142578 37.50889587402344 -44.60649871826172 37.46486663818359 -43.89772796630859 C 37.37679672241211 -43.29528427124023 36.62821197509766 -42.26758575439453 35.79153823852539 -41.94862747192383 C 35.65943908691406 -42.58652496337891 35.57138061523438 -43.15352630615234 35.48329544067383 -43.72054290771484 C 35.43926620483398 -44.21667098999023 35.21909713745117 -44.60649871826172 34.77873992919922 -44.96088409423828 C 33.67788314819336 -45.84682464599609 32.18069458007812 -46.30752563476562 31.16789627075195 -47.29979705810547 C 30.98882293701172 -47.48715591430664 30.79518508911133 -47.57487487792969 30.60770797729492 -47.57487487792969 M 76.88816833496094 -47.57487487792969 C 76.61464691162109 -47.57487487792969 76.35425567626953 -47.38815307617188 76.17137145996094 -47.05174255371094 C 76.03925323486328 -46.76822662353516 75.95117950439453 -46.48471069335938 75.90715026855469 -46.20121383666992 C 75.90715026855469 -45.66963958740234 75.86312866210938 -44.92544174194336 75.81908416748047 -44.39386749267578 C 75.73102569580078 -43.50791168212891 75.81908416748047 -42.90545654296875 76.17137145996094 -42.05495452880859 C 76.43556976318359 -41.27531433105469 77.14012145996094 -40.74372863769531 78.06486511230469 -40.38935470581055 C 78.94554138183594 -39.99952697753906 79.07763671875 -39.68058395385742 78.54922485351562 -38.93639755249023 C 77.4483642578125 -37.44798278808594 77.05205535888672 -36.73922729492188 76.87592315673828 -34.89644241333008 C 76.74379730224609 -33.37260055541992 76.83187866210938 -31.81331253051758 76.83187866210938 -30.28948593139648 L 76.83187866210938 -29.47439956665039 C 76.83187866210938 -28.34038543701172 76.87592315673828 -27.59056854248047 76.83187866210938 -26.4565544128418 C 76.78785705566406 -26.06672668457031 76.43556976318359 -26.03129959106445 76.39152526855469 -25.60602569580078 C 76.34749603271484 -25.32252883911133 76.61170959472656 -25.21621322631836 77.00801086425781 -25.18077087402344 C 77.40432739257812 -25.14532852172852 77.4483642578125 -25.35797119140625 77.66852569580078 -25.60602569580078 C 78.28501129150391 -26.24391174316406 78.37309265136719 -26.14321136474609 79.20975494384766 -28.44669723510742 C 79.25379943847656 -28.58843994140625 79.42992401123047 -29.26177215576172 79.38589477539062 -29.40352630615234 C 79.29781341552734 -30.53754043579102 79.07763671875 -31.67156982421875 79.12166595458984 -32.80558395385742 C 79.16571044921875 -34.50661468505859 78.85746765136719 -36.17221450805664 79.47393798828125 -37.87324142456055 C 79.95833587646484 -39.290771484375 80.97113800048828 -40.2121696472168 82.68849182128906 -40.70829772949219 C 83.30497741699219 -40.885498046875 83.83339691162109 -40.70829772949219 84.40583801269531 -40.67287063598633 C 85.24250793457031 -40.67287063598633 85.94705200195312 -40.42479705810547 86.651611328125 -40.03496932983398 C 87.26808166503906 -39.68058395385742 87.84053802490234 -39.32621383666992 88.36894989013672 -38.7237548828125 C 88.98546600341797 -38.0150146484375 89.33772277832031 -37.51887130737305 89.60193634033203 -36.91641235351562 C 90.17439270019531 -35.53432846069336 90.61472320556641 -34.15224075317383 90.61472320556641 -32.66382598876953 C 90.65876770019531 -32.27401351928711 90.65876770019531 -31.88419723510742 90.61472320556641 -31.49436950683594 C 90.52666473388672 -30.78561401367188 89.99825286865234 -30.43122863769531 89.11753845214844 -30.43122863769531 C 88.10475158691406 -30.39578628540039 87.09196472167969 -30.39578628540039 86.07917022705078 -30.36035537719727 C 85.33058166503906 -30.32491302490234 84.05356597900391 -30.28948593139648 82.77655029296875 -30.28948593139648 C 81.76376342773438 -30.25404357910156 81.49955749511719 -30.11228561401367 81.19129943847656 -29.33265686035156 C 80.97113800048828 -28.69475555419922 80.70692443847656 -28.09231185913086 80.48675537109375 -27.45442581176758 C 80.17851257324219 -26.67478561401367 79.82625579833984 -26.77548599243164 79.56202697753906 -25.96041488647461 C 79.38589477539062 -25.49971389770508 79.56202697753906 -25.25164031982422 80.0904541015625 -25.18077087402344 C 80.66289520263672 -25.10989761352539 81.2353515625 -25.10989761352539 81.76376342773438 -25.10989761352539 C 82.46830749511719 -25.10989761352539 83.21689605712891 -25.18076705932617 83.92147064208984 -25.14532852172852 C 83.96549987792969 -25.14532852172852 87.79652404785156 -25.14532852172852 88.14879608154297 -25.10989761352539 C 88.58914184570312 -25.07445526123047 89.02947998046875 -25.07445526123047 89.46984100341797 -25.07445526123047 C 90.52666473388672 -25.07445526123047 90.92296600341797 -25.42884063720703 91.05508422851562 -26.27935791015625 C 91.23122406005859 -27.66144180297852 91.53945159912109 -28.09231185913086 91.75963592529297 -29.43895721435547 C 91.97981262207031 -31.03366851806641 92.33209228515625 -32.62838363647461 92.33209228515625 -34.18767166137695 C 92.28805541992188 -36.03045654296875 91.93578338623047 -38.58201217651367 91.58351135253906 -40.17674255371094 C 91.31928253173828 -41.34618377685547 90.87895202636719 -42.40932464599609 90.13037109375 -43.40159606933594 C 89.33772277832031 -44.42931365966797 88.45703887939453 -45.38613891601562 87.09196472167969 -46.05947113037109 C 86.51949310302734 -46.34295654296875 85.94705200195312 -46.55559921264648 85.33058166503906 -46.66189956665039 C 84.62600708007812 -46.83909606933594 84.22968292236328 -46.59104156494141 84.09759521484375 -45.98858642578125 C 83.92147064208984 -45.31525421142578 83.78933715820312 -44.60649871826172 83.74530792236328 -43.89772796630859 C 83.65725708007812 -43.29528427124023 82.90866851806641 -42.26758575439453 82.07199859619141 -41.94862747192383 C 81.93991088867188 -42.58652496337891 81.85182189941406 -43.15352630615234 81.76376342773438 -43.72054290771484 C 81.71974182128906 -44.21667098999023 81.49955749511719 -44.60649871826172 81.05919647216797 -44.96088409423828 C 79.95833587646484 -45.84682464599609 78.46116638183594 -46.30752563476562 77.4483642578125 -47.29979705810547 C 77.269287109375 -47.48715591430664 77.07564544677734 -47.57487487792969 76.88816833496094 -47.57487487792969 M 2.366722106933594 -47.49700164794922 C 2.112060546875 -47.49700164794922 1.895401000976562 -47.36471939086914 1.752723693847656 -47.15804290771484 C 1.444480895996094 -46.66189956665039 1.488510131835938 -46.20121383666992 1.40045166015625 -45.59877014160156 C 1.356407165527344 -45.244384765625 1.312385559082031 -43.43704223632812 1.356407165527344 -42.97634124755859 C 1.356407165527344 -42.44475555419922 1.57659912109375 -41.77144241333008 1.752723693847656 -41.45249938964844 C 2.149040222167969 -40.74372863769531 3.073768615722656 -40.28304290771484 4.218666076660156 -40.2121696472168 C 4.526908874511719 -40.17674255371094 5.583755493164062 -40.03496932983398 5.803909301757812 -39.92865753173828 C 6.728652954101562 -39.43252563476562 6.90478515625 -38.26306915283203 6.684608459472656 -37.05817031860352 C 6.552513122558594 -36.34941482543945 6.508468627929688 -35.71152877807617 6.376365661621094 -35.00275421142578 C 6.288299560546875 -34.54206466674805 6.508316040039062 -34.18769836425781 6.81671142578125 -34.22311401367188 C 7.301094055175781 -34.29398345947266 7.521270751953125 -34.86100006103516 7.5653076171875 -35.07361221313477 C 7.785484313964844 -35.74695587158203 8.181793212890625 -36.49115753173828 8.313896179199219 -37.16448593139648 C 8.534065246582031 -38.19218444824219 9.018455505371094 -40.885498046875 9.018455505371094 -41.31075668334961 C 9.194595336914062 -42.37388610839844 8.754241943359375 -43.86228179931641 8.357925415039062 -44.81911468505859 C 8.093727111816406 -45.59877014160156 6.772682189941406 -46.02401351928711 5.847953796386719 -46.34295654296875 C 4.923225402832031 -46.59104156494141 3.470085144042969 -46.73278427124023 2.8095703125 -47.37067031860352 C 2.654563903808594 -47.45798873901367 2.505050659179688 -47.49700164794922 2.366722106933594 -47.49700164794922 M 47.85456085205078 -47.49700164794922 C 47.59990692138672 -47.49700164794922 47.38323974609375 -47.36471939086914 47.24056625366211 -47.15804290771484 C 46.93232345581055 -46.66189956665039 46.97635269165039 -46.20121383666992 46.88828277587891 -45.59877014160156 C 46.84425354003906 -45.244384765625 46.80020904541016 -43.43704223632812 46.84425354003906 -42.97634124755859 C 46.84425354003906 -42.44475555419922 47.06442642211914 -41.77144241333008 47.24056625366211 -41.45249938964844 C 47.63688278198242 -40.74372863769531 48.56161117553711 -40.28304290771484 49.70650863647461 -40.2121696472168 C 50.01475143432617 -40.17674255371094 51.07158279418945 -40.03496932983398 51.29175186157227 -39.92865753173828 C 52.21648025512695 -39.43252563476562 52.39262390136719 -38.26306915283203 52.17245483398438 -37.05817031860352 C 52.04035186767578 -36.34941482543945 51.99631118774414 -35.71152877807617 51.86421203613281 -35.00275421142578 C 51.77613830566406 -34.54205703735352 51.99623107910156 -34.18769836425781 52.3045539855957 -34.22311401367188 C 52.7889404296875 -34.29398345947266 53.00910949707031 -34.86100006103516 53.05315399169922 -35.07361221313477 C 53.27332305908203 -35.74695587158203 53.66963958740234 -36.49115753173828 53.80173873901367 -37.16448593139648 C 54.02191162109375 -38.19218444824219 54.50629425048828 -40.885498046875 54.50629425048828 -41.31075668334961 C 54.68242645263672 -42.37388610839844 54.24208068847656 -43.86228179931641 53.84576797485352 -44.81911468505859 C 53.58156585693359 -45.59877014160156 52.26052474975586 -46.02401351928711 51.33578109741211 -46.34295654296875 C 50.41105270385742 -46.59104156494141 48.95792388916016 -46.73278427124023 48.29739761352539 -47.37067031860352 C 48.14239883422852 -47.45798873901367 47.99288558959961 -47.49700164794922 47.85456085205078 -47.49700164794922 M 13.07530212402344 -47.49516296386719 C 12.70384216308594 -47.49516296386719 12.40497589111328 -47.27373123168945 12.18894958496094 -46.83909606933594 C 11.5284423828125 -45.56332778930664 11.83668518066406 -44.8900146484375 11.79264068603516 -44.00404357910156 C 11.74859619140625 -42.83458709716797 11.70456695556641 -41.55881500244141 12.84946441650391 -40.85005569458008 C 13.50999450683594 -40.46022796630859 13.994384765625 -40.3184700012207 13.59805297851562 -39.68058395385742 C 13.33385467529297 -39.25532913208008 13.06965637207031 -38.83007049560547 12.84946441650391 -38.40481185913086 C 12.27702331542969 -37.23535537719727 12.40912628173828 -36.56202697753906 12.58526611328125 -35.25081253051758 C 12.67332458496094 -34.50661468505859 12.84946441650391 -33.69154357910156 12.9815673828125 -32.94734191894531 C 13.33385467529297 -31.1754264831543 13.20175170898438 -30.60842895507812 12.32105255126953 -30.53754043579102 C 11.352294921875 -30.46667098999023 10.86791229248047 -30.14772796630859 10.73580932617188 -29.33265686035156 C 10.60369873046875 -28.65932846069336 10.47159576416016 -28.01582717895508 10.91195678710938 -25.92496871948242 C 11.00000762939453 -25.42884063720703 11.26422119140625 -25.21621322631836 11.88070678710938 -25.14532852172852 C 12.32105255126953 -25.10989761352539 13.46595001220703 -25.14532852172852 13.90629577636719 -25.10989761352539 C 15.75576782226562 -24.93272018432617 17.20890808105469 -25.00918197631836 17.64925384521484 -26.39126968383789 C 17.9134521484375 -27.27722930908203 18.04557037353516 -28.80108642578125 17.73732757568359 -29.75790023803711 C 17.25293731689453 -31.03366851806641 16.37225341796875 -32.16769790649414 15.71172332763672 -33.4434700012207 C 15.49155426025391 -33.83329772949219 15.22735595703125 -34.47118377685547 15.09523773193359 -34.89644241333008 C 14.65489959716797 -36.24308395385742 14.25858306884766 -37.30622863769531 14.52278137207031 -38.75919723510742 C 14.65489196777344 -39.78689956665039 15.22762298583984 -40.46031188964844 16.63645172119141 -40.42479705810547 C 17.34101104736328 -40.42479705810547 18.13363647460938 -40.46022796630859 18.83818054199219 -40.56654357910156 C 20.11521148681641 -40.77915954589844 22.88938140869141 -40.28304290771484 23.59394073486328 -39.57427215576172 C 23.99024963378906 -39.11357116699219 24.25445556640625 -38.54656982421875 24.47462463378906 -37.90868377685547 C 24.56269836425781 -37.62518310546875 24.73883819580078 -37.27079772949219 24.78288269042969 -36.95185470581055 C 24.91497802734375 -36.20765686035156 24.95900726318359 -35.49888610839844 25.04708099365234 -34.75468444824219 C 25.04708099365234 -34.75489044189453 25.04708099365234 -34.7549934387207 25.04708862304688 -34.7549934387207 C 25.04811096191406 -34.7549934387207 25.13566589355469 -31.771240234375 25.22322082519531 -30.64385604858398 L 25.26725006103516 -29.75790023803711 C 25.26725006103516 -28.80108642578125 25.31129455566406 -27.84424209594727 25.26725006103516 -26.88741302490234 C 25.26725006103516 -26.59487533569336 25.20474243164062 -26.7524528503418 25.16573333740234 -26.75244140625 C 25.14803314208984 -26.75243377685547 25.13515472412109 -26.71997833251953 25.13515472412109 -26.59829711914062 C 25.09111022949219 -25.46428298950195 25.22322082519531 -25.10989761352539 25.75164031982422 -25.00358581542969 C 26.80846405029297 -25.00358581542969 27.20478057861328 -25.61164093017578 27.16075134277344 -26.35584259033203 C 27.02864074707031 -28.19862747192383 27.02864074707031 -29.58071136474609 26.94056701660156 -32.23857116699219 C 26.94056701660156 -32.69927215576172 26.85250854492188 -33.23084259033203 26.80846405029297 -33.65609741210938 C 26.76444244384766 -35.00275421142578 26.72039794921875 -36.27852630615234 26.72039794921875 -37.62518310546875 C 26.72039794921875 -37.76692581176758 26.67635345458984 -38.33394241333008 26.67635345458984 -39.50339889526367 C 26.67635345458984 -39.64515686035156 26.72039794921875 -39.82232666015625 26.72039794921875 -39.99952697753906 C 26.54425048828125 -41.52336883544922 26.72039794921875 -42.94089889526367 25.61953735351562 -44.50018310546875 C 24.95900726318359 -45.42158508300781 24.12235260009766 -46.05947113037109 23.06552124023438 -46.34295654296875 C 21.70045471191406 -46.69734191894531 20.29133605957031 -47.01628875732422 18.83818054199219 -46.73278427124023 C 18.52995300292969 -46.66189956665039 18.17767333984375 -46.69734191894531 17.86942291259766 -46.73278427124023 C 17.03278350830078 -46.76822662353516 16.24013519287109 -46.90997695922852 15.44752502441406 -46.87454223632812 C 14.83102416992188 -46.87454223632812 14.34665679931641 -46.94541168212891 13.86226654052734 -47.22892761230469 C 13.57273101806641 -47.40711212158203 13.30959320068359 -47.49516296386719 13.07530212402344 -47.49516296386719 M 68.23173522949219 -47.35350799560547 C 68.00274658203125 -47.35350799560547 67.74778747558594 -47.25691604614258 67.45249938964844 -47.0871696472168 C 66.65986633300781 -46.62647247314453 65.29478454589844 -45.10264205932617 65.33882141113281 -44.18124389648438 C 65.47092437744141 -43.11808395385742 65.95529174804688 -42.26758575439453 66.96810913085938 -41.52336883544922 C 67.36441040039062 -41.20442962646484 67.67265319824219 -41.09812927246094 68.02494049072266 -40.70829772949219 C 68.90562438964844 -39.71602630615234 68.59738159179688 -38.90095520019531 67.7607421875 -38.08586883544922 C 67.36441802978516 -37.62519073486328 67.01213073730469 -37.51887130737305 66.21951293945312 -38.36936950683594 C 65.82319641113281 -38.79464340209961 65.38285064697266 -39.14902877807617 64.98655700683594 -39.43252563476562 L 64.63427734375 -39.75146865844727 C 63.4453239440918 -41.06266784667969 61.94815063476562 -42.4802131652832 61.11149597167969 -43.75598526000977 C 60.71518325805664 -44.21667098999023 59.96659469604492 -44.96088409423828 59.79045486450195 -45.52788543701172 C 59.65835189819336 -45.88227081298828 59.74642562866211 -46.34295654296875 59.61431121826172 -46.69734191894531 C 59.57028198242188 -47.1934814453125 59.17397689819336 -47.19348526000977 58.64553833007812 -47.01628494262695 C 58.11713790893555 -46.83909606933594 57.76486587524414 -46.62647247314453 57.45661163330078 -46.165771484375 C 56.66399765014648 -45.06718444824219 56.57592391967773 -44.53561401367188 56.57592391967773 -44.00404357910156 C 56.48785400390625 -43.22441101074219 56.53188323974609 -42.44475555419922 56.84012603759766 -41.55881500244141 C 57.06029510498047 -40.92092895507812 57.28046798706055 -40.17674255371094 57.89696884155273 -39.57427215576172 C 58.60150909423828 -38.86551284790039 58.77765274047852 -38.83007049560547 59.48221206665039 -37.83781433105469 C 59.74642562866211 -37.48342895507812 59.83448028564453 -37.19991302490234 59.52623748779297 -36.91641235351562 C 59.39413833618164 -36.70378494262695 59.08589553833008 -36.45571136474609 58.68958282470703 -36.10134124755859 C 58.07309722900391 -35.53432846069336 57.54468154907227 -35.03818511962891 57.32450866699219 -34.50661468505859 C 56.8841667175293 -33.37260055541992 57.28046798706055 -31.49436950683594 57.7208251953125 -29.54528427124023 C 57.80889511108398 -29.15545654296875 57.85292434692383 -27.95055770874023 57.85292434692383 -27.77336883544922 C 57.85292434692383 -27.10004043579102 57.67678070068359 -27.37792587280273 57.54468154907227 -26.70461273193359 C 57.50065231323242 -26.4565544128418 57.28046798706055 -26.24391174316406 57.14836883544922 -26.03129959106445 C 56.75205230712891 -25.64147186279297 56.70801162719727 -25.46428298950195 57.19240951538086 -25.18077087402344 C 57.50065612792969 -24.9681396484375 57.85293197631836 -24.96813583374023 58.2052116394043 -25.00358581542969 C 58.64553833007812 -25.07445526123047 60.23079681396484 -25.07445526123047 60.67113876342773 -25.07445526123047 C 61.37569427490234 -25.07445526123047 62.08025360107422 -25.07445526123047 62.78482437133789 -25.10989761352539 C 63.4893684387207 -25.14532852172852 63.9737548828125 -25.46428298950195 64.14987945556641 -26.03129959106445 C 64.67831420898438 -27.44881439208984 64.50216674804688 -27.98600006103516 63.4453239440918 -29.22632598876953 C 62.87287902832031 -29.89965438842773 62.12429809570312 -31.52981185913086 61.68393707275391 -32.16769790649414 C 61.15552520751953 -32.91189956665039 60.01062393188477 -34.15224075317383 60.186767578125 -35.03818511962891 C 60.31886672973633 -35.78238296508789 60.36291122436523 -35.9595832824707 60.93535232543945 -36.13678359985352 C 61.37570953369141 -36.24308395385742 61.72796630859375 -35.88871002197266 62.38849639892578 -35.2862548828125 C 64.10585021972656 -33.72698593139648 66.04338073730469 -31.28174209594727 66.04338073730469 -31.28174209594727 C 66.61582183837891 -30.75017166137695 68.0689697265625 -29.43895721435547 68.64141082763672 -28.87195587158203 C 69.65423583984375 -27.77336883544922 70.53492736816406 -27.73231506347656 70.71106719970703 -26.81092834472656 C 70.84317016601562 -26.35024261474609 70.84317016601562 -25.85409927368164 70.93123626708984 -25.42884063720703 C 71.06333923339844 -25.10989761352539 71.15141296386719 -24.82638549804688 71.63579559326172 -24.82638549804688 C 71.98806762695312 -24.82638549804688 72.29629516601562 -25.03901290893555 72.51646423339844 -25.32252883911133 C 72.60456848144531 -25.46428298950195 72.692626953125 -25.64147186279297 72.78068542480469 -25.8895263671875 C 73.30911254882812 -27.30705642700195 73.61735534667969 -28.16318511962891 73.61735534667969 -29.68702697753906 C 73.57331085205078 -31.1754264831543 73.13296508789062 -32.415771484375 72.12016296386719 -33.51434326171875 C 71.85595703125 -33.79785537719727 71.54772186279297 -34.18767166137695 71.23947906494141 -34.54205703735352 C 70.49089813232422 -35.35712814331055 69.74229431152344 -35.74695587158203 68.94966888427734 -36.38484191894531 C 68.28913879394531 -36.91641235351562 68.28913879394531 -37.05817031860352 69.03773498535156 -37.83781433105469 C 69.87441253662109 -38.72375106811523 69.69825744628906 -39.68058013916016 71.23947906494141 -38.29851150512695 C 72.25228118896484 -37.41254806518555 72.692626953125 -37.51887130737305 73.13296508789062 -38.6174430847168 C 73.48523712158203 -39.53884124755859 73.8375244140625 -40.63742828369141 73.66139221191406 -41.70055389404297 C 73.48523712158203 -43.04721069335938 72.34035491943359 -44.28754425048828 70.53492736816406 -45.45701599121094 C 69.91844177246094 -45.84682464599609 69.30195617675781 -46.52015686035156 68.90562438964844 -46.98085784912109 C 68.69915771484375 -47.23933792114258 68.48080444335938 -47.35350799560547 68.23173522949219 -47.35350799560547 M 30.60771179199219 -50.07487106323242 C 31.46976470947266 -50.07487106323242 32.29336547851562 -49.71857452392578 32.93338012695312 -49.07017517089844 C 33.24811553955078 -48.76952362060547 33.77991104125977 -48.47976684570312 34.34236907958984 -48.1733283996582 C 34.76267623901367 -47.94432830810547 35.22052383422852 -47.69487762451172 35.67728805541992 -47.39390563964844 C 36.23581695556641 -48.52534484863281 37.32688522338867 -49.2178955078125 38.64291000366211 -49.21794128417969 C 38.93913269042969 -49.21794128417969 39.24706268310547 -49.18180084228516 39.55974960327148 -49.11042022705078 C 40.33504486083984 -48.96775054931641 41.10846710205078 -48.70215606689453 41.92095184326172 -48.29981231689453 C 42.96673965454102 -47.78396606445312 43.7911491394043 -47.1467170715332 44.47039031982422 -46.48295593261719 C 44.52693176269531 -47.00588989257812 44.64504623413086 -47.71765518188477 45.11702346801758 -48.47735595703125 L 45.14888000488281 -48.52862548828125 L 45.18318176269531 -48.57831573486328 C 45.79642486572266 -49.46665573120117 46.79508209228516 -49.99700164794922 47.85456848144531 -49.99700164794922 C 48.4265251159668 -49.99700164794922 49.00394058227539 -49.84202575683594 49.52439498901367 -49.54884338378906 L 49.80358123779297 -49.39158630371094 L 49.94412231445312 -49.25585174560547 C 50.18104934692383 -49.15358352661133 50.74234390258789 -49.03560638427734 51.08796691894531 -48.96294403076172 C 51.38336563110352 -48.90085601806641 51.68882369995117 -48.83663940429688 51.98356628417969 -48.757568359375 L 52.06813812255859 -48.73488616943359 L 52.26086807250977 -48.66851043701172 C 53.120361328125 -48.37318420410156 54.26690673828125 -47.97916793823242 55.13933181762695 -47.20896911621094 C 55.22281646728516 -47.33572387695312 55.31172561645508 -47.46477508544922 55.40621566772461 -47.5965461730957 C 56.16742324829102 -48.71092987060547 57.11106109619141 -49.13854217529297 57.85072326660156 -49.38656997680664 C 58.32730865478516 -49.54638671875 58.75935363769531 -49.62405395507812 59.17156600952148 -49.62405395507812 C 60.61528778076172 -49.62413787841797 61.7792854309082 -48.64982986450195 62.05535125732422 -47.26215362548828 C 62.1553955078125 -46.89025115966797 62.18122100830078 -46.5562744140625 62.19472885131836 -46.32038879394531 C 62.33380889892578 -46.13861465454102 62.57022476196289 -45.87603378295898 62.71136474609375 -45.71926879882812 C 62.81501007080078 -45.60414123535156 62.91291046142578 -45.49541473388672 63.00671005249023 -45.38636779785156 L 63.01982879638672 -45.37111663818359 C 63.22052001953125 -46.01520919799805 63.58664703369141 -46.67731475830078 64.11573791503906 -47.35104370117188 C 64.73844146728516 -48.14397048950195 65.51618194580078 -48.85334014892578 66.19621276855469 -49.24859619140625 L 66.20656585693359 -49.25458526611328 C 66.90766906738281 -49.65760040283203 67.57011413574219 -49.853515625 68.23173522949219 -49.853515625 C 69.23165130615234 -49.853515625 70.14950561523438 -49.40393829345703 70.82238006591797 -48.58625411987305 C 71.40704345703125 -47.90964126586914 71.72988128662109 -47.65927886962891 71.87102508544922 -47.57003021240234 L 71.89408111572266 -47.55527114868164 C 72.45745849609375 -47.19033813476562 72.9638671875 -46.81931304931641 73.41440582275391 -46.44087982177734 L 73.436767578125 -46.58486938476562 C 73.5167236328125 -47.09972763061523 73.67436981201172 -47.61208343505859 73.90532684326172 -48.10769653320312 L 73.93799591064453 -48.17781066894531 L 73.97495269775391 -48.24578475952148 C 74.59757995605469 -49.39109802246094 75.68663787841797 -50.07487106323242 76.88816833496094 -50.07487106323242 C 77.75028991699219 -50.07487106323242 78.57393646240234 -49.71852874755859 79.21401977539062 -49.07002258300781 C 79.52877044677734 -48.76941680908203 80.06048583984375 -48.47970962524414 80.62284088134766 -48.1733283996582 C 81.04310607910156 -47.94434356689453 81.50101470947266 -47.69485092163086 81.95773315429688 -47.39391708374023 C 82.51622009277344 -48.52541732788086 83.60726165771484 -49.2178955078125 84.92337036132812 -49.21794128417969 C 85.21956634521484 -49.21794128417969 85.5274658203125 -49.18180847167969 85.84014129638672 -49.11043548583984 C 86.61544799804688 -48.9677734375 87.38884735107422 -48.70219421386719 88.20138549804688 -48.29982757568359 C 90.06175231933594 -47.38218688964844 91.22141265869141 -46.08048248291016 92.1099853515625 -44.92841339111328 L 92.12612152099609 -44.9072265625 C 93.04019927978516 -43.69559860229492 93.66035461425781 -42.32846832275391 94.02204132080078 -40.72771453857422 L 94.02466583251953 -40.71598434448242 C 94.38803863525391 -39.07096862792969 94.78182220458984 -36.32082748413086 94.83138275146484 -34.24739837646484 L 94.83209228515625 -34.18767166137695 C 94.83209228515625 -32.85885620117188 94.62778472900391 -31.58919906616211 94.43018341064453 -30.36135482788086 C 94.35968017578125 -29.92327117919922 94.29308319091797 -29.50947189331055 94.23615264892578 -29.09704208374023 L 94.22688293457031 -29.03554153442383 C 94.10173797607422 -28.27022933959961 93.94760894775391 -27.72592926025391 93.82376861572266 -27.2885856628418 C 93.69725036621094 -26.84175491333008 93.60584259033203 -26.51892852783203 93.53502655029297 -25.96329879760742 L 93.52545166015625 -25.89562606811523 C 93.35823822021484 -24.81908416748047 92.89722442626953 -23.9771842956543 92.15522766113281 -23.3932991027832 C 91.45500946044922 -22.84230041503906 90.57660675048828 -22.57445526123047 89.46984100341797 -22.57445526123047 C 88.98748016357422 -22.57445526123047 88.48869323730469 -22.57445526123047 87.94822692871094 -22.61795425415039 L 87.94704437255859 -22.61804962158203 C 87.59662628173828 -22.63514709472656 85.63803863525391 -22.64532852172852 83.92147064208984 -22.64532852172852 L 83.85865020751953 -22.64532852172852 L 83.79592132568359 -22.64848327636719 C 83.70526885986328 -22.65304183959961 83.60652160644531 -22.65525436401367 83.49407958984375 -22.65525436401367 C 83.25401306152344 -22.65525436401367 82.99363708496094 -22.64508438110352 82.71796417236328 -22.63431167602539 C 82.41071319580078 -22.622314453125 82.09299468994141 -22.60989761352539 81.76376342773438 -22.60989761352539 C 81.17549896240234 -22.60989761352539 80.50872802734375 -22.60989761352539 79.78327941894531 -22.69971466064453 L 79.75814056396484 -22.70295715332031 C 79.28582763671875 -22.76630401611328 78.89599609375 -22.89968109130859 78.57613372802734 -23.06650543212891 C 78.13386535644531 -22.80744934082031 77.63720703125 -22.67688369750977 77.09016418457031 -22.67688369750977 C 76.99049377441406 -22.67688369750977 76.88795471191406 -22.68152618408203 76.785400390625 -22.69070053100586 C 75.79508972167969 -22.77927017211914 75.02711486816406 -23.15345001220703 74.5018310546875 -23.80310821533203 L 74.49099731445312 -23.78915786743164 C 73.76908111572266 -22.85954284667969 72.7283935546875 -22.32638549804688 71.63579559326172 -22.32638549804688 C 70.51277923583984 -22.32638549804688 69.78993988037109 -22.82410049438477 69.38130950927734 -23.24164199829102 C 68.94094848632812 -23.69158554077148 68.74432373046875 -24.17218399047852 68.63867950439453 -24.43038558959961 L 68.53109741210938 -24.69048309326172 L 68.48318481445312 -24.92184066772461 C 68.42361450195312 -25.2094841003418 68.39381408691406 -25.47202682495117 68.36749267578125 -25.70367050170898 C 68.36158752441406 -25.75572204589844 68.35490417480469 -25.81458282470703 68.34784698486328 -25.87200927734375 C 67.99317932128906 -26.11658096313477 67.48040008544922 -26.47440338134766 66.93251800537109 -27.04062652587891 C 66.89536285400391 -26.36591720581055 66.71159362792969 -25.75321197509766 66.51170349121094 -25.21013259887695 C 66.00429534912109 -23.69209671020508 64.63215637207031 -22.69963455200195 62.91038131713867 -22.61305618286133 C 62.14309692382812 -22.57445526123047 61.39479446411133 -22.57445526123047 60.67113876342773 -22.57445526123047 C 59.10526275634766 -22.57445526123047 58.67050552368164 -22.54103088378906 58.57941055297852 -22.53163909912109 L 58.52922439575195 -22.52355575561523 L 58.45541000366211 -22.51613998413086 C 58.25109481811523 -22.49558639526367 58.07458114624023 -22.48601150512695 57.89989471435547 -22.48601150512695 C 57.13724899291992 -22.48601150512695 56.45044326782227 -22.68131256103516 55.85665130615234 -23.06679534912109 C 54.76186752319336 -23.73658752441406 54.43816375732422 -24.60960006713867 54.36093902587891 -25.23019790649414 C 54.21750259399414 -26.3828125 54.81303787231445 -27.19355773925781 55.19292068481445 -27.60634613037109 C 55.23982620239258 -27.76712036132812 55.29121398925781 -27.90771102905273 55.34467315673828 -28.03262329101562 C 55.33055114746094 -28.36891174316406 55.30110931396484 -28.84862899780273 55.2746696472168 -29.0280647277832 C 54.95754623413086 -30.4335823059082 54.69890975952148 -31.699462890625 54.64421081542969 -32.84484481811523 C 54.16303634643555 -32.29391479492188 53.49954986572266 -31.871337890625 52.66648101806641 -31.74945449829102 L 52.59102630615234 -31.73958587646484 C 52.48223876953125 -31.72702789306641 52.37166595458984 -31.72066879272461 52.26238250732422 -31.72066879272461 C 51.40969467163086 -31.72066879272461 50.60546875 -32.10181427001953 50.05591201782227 -32.7663688659668 C 49.45638656616211 -33.49134826660156 49.22014236450195 -34.47425079345703 49.40718460083008 -35.46429443359375 C 49.46047592163086 -35.75094604492188 49.49883270263672 -36.04425430297852 49.5394401550293 -36.35469818115234 C 49.58675765991211 -36.71639251708984 49.63566970825195 -37.09032821655273 49.71325302124023 -37.50801467895508 C 49.72505950927734 -37.57268142700195 49.73401641845703 -37.63253402709961 49.74068450927734 -37.6875114440918 C 49.64695739746094 -37.70049285888672 49.55630111694336 -37.71234893798828 49.47582244873047 -37.72206497192383 C 49.04206466674805 -37.7535285949707 48.62397384643555 -37.82344436645508 48.22701263427734 -37.92865371704102 C 48.39626693725586 -36.69182205200195 48.52407836914062 -35.37029647827148 48.55091094970703 -34.24738311767578 L 48.5516242980957 -34.18767166137695 C 48.5516242980957 -32.85884094238281 48.34730911254883 -31.58916854858398 48.14971160888672 -30.36129760742188 C 48.0792121887207 -29.9232292175293 48.01262283325195 -29.50945663452148 47.95569610595703 -29.09704208374023 L 47.94642639160156 -29.03557205200195 C 47.82129669189453 -28.27021408081055 47.66715240478516 -27.72588348388672 47.54329681396484 -27.28851318359375 C 47.41678237915039 -26.84171295166016 47.32536697387695 -26.51889801025391 47.25455474853516 -25.96329879760742 L 47.2449951171875 -25.89569854736328 C 47.07781219482422 -24.81912612915039 46.61679458618164 -23.97719955444336 45.8747673034668 -23.3932991027832 C 45.17455291748047 -22.84230041503906 44.2961540222168 -22.57445526123047 43.18936920166016 -22.57445526123047 C 42.70701217651367 -22.57445526123047 42.2082405090332 -22.57445526123047 41.66776657104492 -22.61795425415039 L 41.66658782958984 -22.61804962158203 C 41.31616973876953 -22.63514709472656 39.35757064819336 -22.64532852172852 37.64099502563477 -22.64532852172852 L 37.57818222045898 -22.64532852172852 L 37.51543807983398 -22.64848327636719 C 37.42479705810547 -22.65304183959961 37.32606887817383 -22.65525436401367 37.213623046875 -22.65525436401367 C 36.97355270385742 -22.65525436401367 36.71318054199219 -22.64508438110352 36.4375114440918 -22.63431167602539 C 36.13025283813477 -22.622314453125 35.81253814697266 -22.60989761352539 35.48329544067383 -22.60989761352539 C 34.89502334594727 -22.60989761352539 34.2282829284668 -22.60989761352539 33.50282287597656 -22.69971466064453 L 33.47765350341797 -22.70295715332031 C 33.00533676147461 -22.76630401611328 32.61553955078125 -22.8996696472168 32.29567337036133 -23.06649780273438 C 31.85341262817383 -22.80745315551758 31.35675811767578 -22.67688369750977 30.80972290039062 -22.67688369750977 C 30.71005249023438 -22.67688369750977 30.60750961303711 -22.68152618408203 30.50495147705078 -22.69070053100586 C 29.67916107177734 -22.76455307006836 29.00796508789062 -23.03699493408203 28.50316619873047 -23.50217819213867 C 27.97168731689453 -23.01214599609375 27.09608459472656 -22.50358581542969 25.75164031982422 -22.50358581542969 L 25.50263977050781 -22.50358581542969 L 25.25853729248047 -22.55270004272461 C 24.15084075927734 -22.77555465698242 23.28933715820312 -23.49232864379883 22.89493560791016 -24.51919937133789 C 22.62607574462891 -25.21923065185547 22.60993194580078 -25.96110916137695 22.63572692871094 -26.66072082519531 C 22.64173889160156 -26.9864387512207 22.69474792480469 -27.28303527832031 22.78516387939453 -27.54974365234375 C 22.78994750976562 -27.9410285949707 22.78376007080078 -28.34397888183594 22.77733612060547 -28.76272583007812 C 22.77268981933594 -29.06562423706055 22.76789093017578 -29.3781852722168 22.76731109619141 -29.69472885131836 L 22.72798156738281 -30.48610687255859 C 22.67479705810547 -31.19116592407227 22.61576843261719 -32.55776596069336 22.55248260498047 -34.54954147338867 L 22.55185699462891 -34.56894683837891 C 22.52635192871094 -34.79275131225586 22.50460052490234 -35.00867462158203 22.48346710205078 -35.21841430664062 C 22.43758392333984 -35.67405700683594 22.39422607421875 -36.10442733764648 22.32135009765625 -36.51492691040039 L 22.32015228271484 -36.52170562744141 C 22.30382537841797 -36.56909561157227 22.27338409423828 -36.64846420288086 22.25192260742188 -36.70442581176758 C 22.20468902587891 -36.82757568359375 22.15171813964844 -36.96570587158203 22.10185241699219 -37.12060928344727 C 22.01384735107422 -37.37250900268555 21.92914581298828 -37.57238388061523 21.84596252441406 -37.72394180297852 C 21.37294006347656 -37.9021110534668 20.35703277587891 -38.1161994934082 19.54568481445312 -38.1161994934082 C 19.34879302978516 -38.1161994934082 19.25849914550781 -38.10211181640625 19.24884033203125 -38.10049819946289 L 19.21121215820312 -38.09452819824219 C 18.54416656494141 -37.99386596679688 17.78134155273438 -37.93756103515625 16.93990325927734 -37.92673110961914 C 16.92074584960938 -37.37790298461914 17.08514404296875 -36.84755706787109 17.39280700683594 -35.91281509399414 L 17.48268127441406 -35.63814163208008 C 17.57022094726562 -35.35636901855469 17.7674560546875 -34.88728332519531 17.88852691650391 -34.67291259765625 L 17.93180847167969 -34.59291458129883 C 18.14768218994141 -34.17598342895508 18.40538024902344 -33.75432586669922 18.67820739746094 -33.30791473388672 C 19.17842102050781 -32.48944091796875 19.6956787109375 -31.64311218261719 20.07452392578125 -30.64528274536133 L 20.09725189208984 -30.58542633056641 L 20.11689758300781 -30.52448272705078 C 20.60702514648438 -29.00307083129883 20.42321014404297 -26.94509887695312 20.04499816894531 -25.67684173583984 L 20.03126525878906 -25.63232803344727 C 19.66033935546875 -24.46811294555664 18.89247894287109 -23.57976913452148 17.81072235107422 -23.0633430480957 C 17.07398223876953 -22.71162796020508 16.19903564453125 -22.54065704345703 15.13589477539062 -22.54065704345703 C 14.71533203125 -22.54065704345703 14.25681304931641 -22.56548309326172 13.69506072998047 -22.61870574951172 C 13.55654144287109 -22.62761306762695 13.14317321777344 -22.62761306762695 12.89349365234375 -22.62761306762695 C 12.414306640625 -22.62761306762695 12.00046539306641 -22.62761306762695 11.68021392822266 -22.65338516235352 L 11.59513854980469 -22.66169738769531 C 9.211944580078125 -22.93571853637695 8.610130310058594 -24.65573120117188 8.45965576171875 -25.43816757202148 C 7.967399597167969 -27.78733444213867 8.077301025390625 -28.76293182373047 8.276084899902344 -29.78086090087891 C 8.500457763671875 -31.08051681518555 9.189949035644531 -31.82795333862305 9.732421875 -32.22735595703125 C 9.965179443359375 -32.39872741699219 10.21800994873047 -32.54257202148438 10.49314117431641 -32.65962982177734 C 10.464599609375 -32.81578063964844 10.43402099609375 -32.97721481323242 10.402099609375 -33.14571380615234 C 10.30142974853516 -33.677001953125 10.19767761230469 -34.22457504272461 10.12499237060547 -34.77774047851562 C 10.06497955322266 -34.63070678710938 10.00981903076172 -34.49240493774414 9.967536926269531 -34.37290954589844 C 9.654487609863281 -33.19573593139648 8.69873046875 -31.97185516357422 7.178642272949219 -31.74945449829102 L 7.103179931640625 -31.73958587646484 C 6.994392395019531 -31.72702789306641 6.883827209472656 -31.72066879272461 6.7745361328125 -31.72066879272461 C 5.921852111816406 -31.72066879272461 5.117622375488281 -32.10181427001953 4.568069458007812 -32.7663688659668 C 3.968544006347656 -33.49134826660156 3.732292175292969 -34.4742317199707 3.919342041015625 -35.46427536010742 C 3.972633361816406 -35.75092697143555 4.010986328125 -36.04425430297852 4.051597595214844 -36.35469818115234 C 4.098915100097656 -36.71639251708984 4.147819519042969 -37.09030532836914 4.22540283203125 -37.50799179077148 C 4.237213134765625 -37.57265853881836 4.246170043945312 -37.63253402709961 4.252838134765625 -37.6875114440918 C 4.15911865234375 -37.70049285888672 4.068458557128906 -37.71234893798828 3.98797607421875 -37.72206497192383 C 2.019287109375 -37.8648681640625 0.371795654296875 -38.79966354370117 -0.4293212890625 -40.23238372802734 L -0.435760498046875 -40.24396896362305 C -0.7751083374023438 -40.85848999023438 -1.117424011230469 -41.89447402954102 -1.142158508300781 -42.86534118652344 C -1.191688537597656 -43.63868713378906 -1.141403198242188 -45.41668701171875 -1.080459594726562 -45.90709686279297 L -1.073257446289062 -45.96034240722656 C -1.059814453125 -46.05229949951172 -1.050003051757812 -46.15417098999023 -1.038650512695312 -46.27214050292969 C -0.9873199462890625 -46.80485534667969 -0.909759521484375 -47.60988616943359 -0.370819091796875 -48.47735595703125 L -0.338958740234375 -48.52862548828125 L -0.3046646118164062 -48.57831573486328 C 0.3085784912109375 -49.46665573120117 1.307235717773438 -49.99700164794922 2.366722106933594 -49.99700164794922 C 2.938697814941406 -49.99700164794922 3.51611328125 -49.84202575683594 4.036567687988281 -49.54884338378906 L 4.315765380859375 -49.39157104492188 L 4.456306457519531 -49.25584411621094 C 4.6932373046875 -49.15357971191406 5.254501342773438 -49.03560638427734 5.600135803222656 -48.96294403076172 C 5.895538330078125 -48.90085601806641 6.200996398925781 -48.83663940429688 6.495735168457031 -48.757568359375 L 6.580307006835938 -48.73488616943359 L 6.7730712890625 -48.66849899291992 C 7.625320434570312 -48.37565231323242 8.759658813476562 -47.98590850830078 9.6292724609375 -47.22844696044922 C 9.718154907226562 -47.46540069580078 9.827194213867188 -47.71343231201172 9.96075439453125 -47.97283172607422 C 10.59899139404297 -49.23966217041016 11.76165008544922 -49.99515533447266 13.07529449462891 -49.99515533447266 C 13.76036834716797 -49.99515533447266 14.4462890625 -49.79258346557617 15.11510467529297 -49.39288711547852 C 15.14438629150391 -49.38739776611328 15.22474670410156 -49.37635803222656 15.40258026123047 -49.37474060058594 C 15.50245666503906 -49.37835693359375 15.60496520996094 -49.38018417358398 15.70818328857422 -49.38018417358398 C 16.2259521484375 -49.38018417358398 16.69792175292969 -49.33628463745117 17.15435028076172 -49.29382705688477 C 17.44371032714844 -49.26689910888672 17.71701049804688 -49.24148559570312 17.97522735595703 -49.23054122924805 L 18.06533813476562 -49.22673034667969 L 18.15493774414062 -49.21642684936523 C 18.20841217041016 -49.21027374267578 18.3218994140625 -49.19723510742188 18.39373779296875 -49.19312286376953 C 18.91152954101562 -49.29179000854492 19.45278930664062 -49.34181213378906 20.00321197509766 -49.34182739257812 C 21.35026550292969 -49.34187316894531 22.56499481201172 -49.05577087402344 23.6937255859375 -48.76274108886719 L 23.71322631835938 -48.75759887695312 C 25.05501556396484 -48.39766693115234 26.21003723144531 -47.66769409179688 27.15608215332031 -46.58340454101562 L 27.15631103515625 -46.58486938476562 C 27.23626708984375 -47.09968566894531 27.39388275146484 -47.61199951171875 27.62480926513672 -48.10759735107422 L 27.65749359130859 -48.17777252197266 L 27.69448089599609 -48.24578475952148 C 28.31710815429688 -49.39109802246094 29.40616607666016 -50.07487106323242 30.60771179199219 -50.07487106323242 Z M 39.14411163330078 -37.85669326782227 C 38.66633605957031 -38.11880111694336 38.39081573486328 -38.17287063598633 38.12538146972656 -38.17287063598633 L 38.04808044433594 -38.17287063598633 L 37.97093963623047 -38.17764282226562 C 37.71478271484375 -38.19350051879883 37.48620986938477 -38.2245979309082 37.30255508422852 -38.24958419799805 C 37.20748901367188 -38.26253128051758 37.09376907348633 -38.27799987792969 37.02457046508789 -38.28362274169922 C 35.94604110717773 -37.95531845092773 35.70854187011719 -37.50190734863281 35.55919647216797 -37.06485748291016 L 35.54389572143555 -37.02141189575195 C 35.26118087768555 -36.24134063720703 35.28971099853516 -35.33588409423828 35.32273864746094 -34.28745651245117 C 35.33829498291016 -33.79339981079102 35.35439682006836 -33.28251266479492 35.34036636352539 -32.74087142944336 L 35.33932495117188 -32.70859909057617 C 35.33893966674805 -32.69868087768555 35.33858489990234 -32.68871688842773 35.33826065063477 -32.67874908447266 C 35.69963073730469 -32.7501335144043 36.05953979492188 -32.77573394775391 36.4086799621582 -32.78795623779297 L 36.49610900878906 -32.78948593139648 C 37.78525161743164 -32.78948593139648 39.01719665527344 -32.82615661621094 39.68046569824219 -32.8575553894043 L 39.71129608154297 -32.85882568359375 C 40.23942565917969 -32.87730026245117 40.76531219482422 -32.88649749755859 41.27386856079102 -32.8953971862793 C 41.46211242675781 -32.89868927001953 41.64650726318359 -32.90191650390625 41.82862854003906 -32.90553283691406 C 41.78920364379883 -33.75085830688477 41.54167175292969 -34.67571258544922 41.02296447753906 -35.93267440795898 C 40.9020881652832 -36.20247268676758 40.72366333007812 -36.48316955566406 40.20629119873047 -37.07836532592773 C 39.95528793334961 -37.36354446411133 39.661865234375 -37.55845642089844 39.14411163330078 -37.85669326782227 Z M 85.42430877685547 -37.85683441162109 C 84.94670867919922 -38.11881637573242 84.67121887207031 -38.17287063598633 84.40583801269531 -38.17287063598633 L 84.32853698730469 -38.17287063598633 L 84.25139617919922 -38.17764282226562 C 83.9952392578125 -38.19350051879883 83.76667022705078 -38.2245979309082 83.5830078125 -38.24958419799805 C 83.48795318603516 -38.26252746582031 83.37423706054688 -38.27799987792969 83.30503845214844 -38.28362274169922 C 82.22645568847656 -37.95529174804688 81.98898315429688 -37.50190734863281 81.83962249755859 -37.06484222412109 L 81.82435607910156 -37.02142715454102 C 81.54164123535156 -36.24135589599609 81.57016754150391 -35.33589935302734 81.60319519042969 -34.28747177124023 C 81.61875152587891 -33.79341506958008 81.63485717773438 -33.28252792358398 81.62082672119141 -32.74087142944336 L 81.61978149414062 -32.70859909057617 C 81.61940002441406 -32.69868087768555 81.61904144287109 -32.688720703125 81.61871337890625 -32.67875289916992 C 81.98007965087891 -32.7501335144043 82.33998107910156 -32.77573394775391 82.68912506103516 -32.78795623779297 L 82.77655029296875 -32.78948593139648 C 84.06572723388672 -32.78948593139648 85.29766845703125 -32.82615661621094 85.9609375 -32.8575553894043 L 85.99176788330078 -32.85882568359375 C 86.5198974609375 -32.87730026245117 87.04576873779297 -32.88649749755859 87.5543212890625 -32.8953971862793 C 87.74256896972656 -32.89868927001953 87.92694854736328 -32.90191650390625 88.10906982421875 -32.90553283691406 C 88.06964874267578 -33.75090026855469 87.82205200195312 -34.67590713500977 87.30335235595703 -35.93281936645508 C 87.1824951171875 -36.2025146484375 87.00418090820312 -36.48308944702148 86.48723602294922 -37.07780075073242 C 86.236083984375 -37.36333084106445 85.94253540039062 -37.55833053588867 85.42430877685547 -37.85683441162109 Z M 74.35704040527344 -34.74531173706055 C 74.36526489257812 -34.86734390258789 74.3746337890625 -34.98974990844727 74.38526916503906 -35.11240005493164 L 74.38726806640625 -35.13430023193359 C 74.42269897460938 -35.50503921508789 74.46730041503906 -35.84553146362305 74.52250671386719 -36.16310501098633 C 74.26953887939453 -35.90155792236328 73.98383331298828 -35.68997955322266 73.67509460449219 -35.53289031982422 C 73.77801513671875 -35.41084289550781 73.87242126464844 -35.30104064941406 73.9490966796875 -35.21875762939453 L 73.95822143554688 -35.20890045166016 C 74.09811401367188 -35.05716323852539 74.23096466064453 -34.90276336669922 74.35704040527344 -34.74531173706055 Z" stroke="none" fill="#304b45"/>
    </g>
  </g>
</svg>
