<svg xmlns="http://www.w3.org/2000/svg" width="59.266" height="50" viewBox="0 0 59.266 50">
  <path id="Path_89989" data-name="Path 89989" d="M44.511-94.4c1.2,1.366,2.562,1.2,3.928.171,4.441-3.928,15.371-14.176,15.371-30.914,0-14.005-8.027-18.275-14.176-18.275-7,0-12.3,5.124-12.3,11.443A11.408,11.408,0,0,0,48.781-120.7a19.005,19.005,0,0,0,5.295-.854c-.171,11.956-9.906,19.641-11.614,20.837a2.769,2.769,0,0,0-.512,3.928Zm-32.963,0c1.366,1.366,2.562,1.2,3.928.171,4.441-3.928,15.371-14.176,15.371-30.914,0-14.005-8.027-18.275-14.176-18.275-7,0-12.126,5.124-12.126,11.443A11.3,11.3,0,0,0,15.988-120.7a18.615,18.615,0,0,0,5.124-.854c0,11.956-9.906,19.641-11.614,20.837a2.612,2.612,0,0,0-.342,3.928Z" transform="translate(-4.545 143.42)" fill="#e0457b" opacity="0.3"/>
</svg>
