<svg xmlns="http://www.w3.org/2000/svg" width="59.266" height="50" viewBox="0 0 59.266 50">
  <path id="Path_89990" data-name="Path 89990" d="M-27.065-93.168c7,0,12.3-5.124,12.3-11.443a11.408,11.408,0,0,0-11.443-11.272,19,19,0,0,0-5.295.854c.171-11.956,9.735-19.3,11.614-20.837a2.769,2.769,0,0,0,.512-3.928l-2.562-2.391c-1.2-1.366-2.562-1.2-3.928-.171-4.441,3.928-15.372,14.347-15.372,30.914C-41.241-97.437-33.213-93.168-27.065-93.168Zm-32.963,0c7,0,12.3-5.124,12.3-11.443a11.408,11.408,0,0,0-11.443-11.272,20.661,20.661,0,0,0-5.295.854c.171-11.956,9.735-19.3,11.614-20.837a2.634,2.634,0,0,0,.512-3.928l-2.562-2.391c-1.2-1.366-2.391-1.2-3.757-.171-4.441,3.928-15.371,14.347-15.371,30.914C-74.033-97.437-66.177-93.168-60.028-93.168Z" transform="translate(74.033 143.168)" fill="#e0457b" opacity="0.3"/>
</svg>
