<svg xmlns="http://www.w3.org/2000/svg" width="112" height="150" viewBox="0 0 112 150">
  <g id="Rambam" transform="translate(-8.3 0.027)" fill="none">
    <path d="M84.645,113.59a96.343,96.343,0,0,0,9.764-34.748,54.351,54.351,0,0,1,9.22,5.7c7.816,5.928,15.518,15.08,16.538,20.44,2.265,12.15-24.58,31.932-67.329,44.991A96.4,96.4,0,0,0,84.645,113.59Zm-56.16,25.186A89.129,89.129,0,0,1,8.3,119.358,96.825,96.825,0,0,1,27.239,91.7a59.969,59.969,0,0,0-.2,17.669c3.1,22.03,17.852,35.883,23.289,40.494a87.952,87.952,0,0,1-21.839-11.083Zm11.69-14.6A122.255,122.255,0,0,1,33.65,97.692a28.237,28.237,0,0,0,15.858,12.2C61.4,112.976,75.2,106.595,83.059,93.6A163.72,163.72,0,0,1,70.4,121.7a162.359,162.359,0,0,1-18.509,26.163,121.969,121.969,0,0,1-11.712-23.688Zm13.366-16.057c-1.518-.182-15.02-2.089-19.483-13.854C32,88.07,31.606,81.3,34.734,75.571c.4-.238-.209-2.27,0-2.685-.284-2.462.071-.393-1.333-4.724.079.27-.948-2.486-1-2.675-.646-2.333.354-4.8,1-7.131a15.186,15.186,0,0,0,.159,5.723c.906,3.861,2.809,4.621,3.511,8.391a1.516,1.516,0,0,0,.5,1.057c.612.363,1.54-.636,2.673-1.612a4.638,4.638,0,0,1,4.168-1.59c1.042.3,1.586,1.022,3.1,1.2,2.265.25,3.33-1,5.007-1.454,4.282-1.158,10.67,3.089,10.512,6.632a5.084,5.084,0,0,1-3.217,3.974,6.126,6.126,0,0,1-5.278-.727A9.381,9.381,0,0,0,48.829,79c-3.036.522-4.531,2.271-6.57,1.453-1.586-.681-2.084-2.271-3.1-2.044s-1.767,1.84-1.79,3.134c0,4.338,8.269,10.129,15.564,9.084.838-.136,1.79-.363,9.56-5.859C72.5,77.661,74.858,75.254,76.761,72.051A15.918,15.918,0,0,0,79.435,65.9c.589-3.5-.589-5.292,0-10.106.2-1.59,1.1-4.02,1.689-4.02s.489,4.926.625,7.833c.227,5.019.227,6.5,1.744,7.884.7.588.607-.134,1.515-.228A34.145,34.145,0,0,1,83.15,89.766c-4.531,9.72-14.952,18.487-26.709,18.487a24.542,24.542,0,0,1-2.9-.159ZM44.854,85.344c-.974-.977-1.962-1-1.4-1.7a7.451,7.451,0,0,1,4.056-1.437,8.495,8.495,0,0,0,2.325,0c2.583-.273,5.386,1.362,6.065,1.862s-1.435.474-3.406,1.883a3.641,3.641,0,0,1-2.265.727c-1.257.016-4.474-.527-5.379-1.4ZM42.327,67.691a30.416,30.416,0,0,0,.7-10.606c-.136-1.272-.272-2.521-.5-3.679a31.65,31.65,0,0,1-3.783.908,1.336,1.336,0,0,1,1.359.727c.181.613-.566,1.363-1.291,1.454a1.768,1.768,0,0,1-1.744-1.454c-2.129,1.09-2.7,1.181-2.786,1.045a6.984,6.984,0,0,1,3.262-2.816,8.566,8.566,0,0,1,4.825-.59,5.543,5.543,0,0,0-2.424-3.906,6.442,6.442,0,0,0-5.369.454c-1.427.59-2.56,1.2-2.877.749s1.155-3.361,3.466-4.111c2.99-.977,7.068,1.272,9.787,5.9a49.654,49.654,0,0,0,.362,16.874Zm-17.512-15.9c-1.223-2.135-.227-4.315-2.265-7.245-1-1.431-1.337-6.087-.793-8.585.634-2.93-.453-4.315-.793-7.154a19.291,19.291,0,0,1,4.146-13.1A18.74,18.74,0,0,1,38.09,9.346a11.051,11.051,0,0,1,2.152-4.769C43.6.375,49.3.194,58.366.035c8.382-.159,14-.273,16.447,3.157a9.212,9.212,0,0,0,3.715,4.088c1.518.727,2.56.454,4.3,1.295a9.068,9.068,0,0,1,3.262,2.816,19.682,19.682,0,0,1,6.615,4.338,20.452,20.452,0,0,1,5.165,8.925,9.616,9.616,0,0,1,2.628,5.383c.181,1.817-.362,2.566,0,4.837s-.725,7.313-2.945,12.287a14.6,14.6,0,0,1-1.926,4.02c-.227.3-2.605,3.429-4.3,2.884s-.816-5.882-3.172-6.972c-1.744-.84-3.1,1.7-5.664,1.749-4.939,0-5.46-9.357-12.822-13.1-4.531-2.271-10.036-1.5-14.793-.795a78.5,78.5,0,0,1-10.285,1.771,32.609,32.609,0,0,1-3.942,0,7.074,7.074,0,0,0-3.443.386,12.1,12.1,0,0,0-7.385,10.629A12.422,12.422,0,0,0,32.087,55.2c-4.667-.5-6.524-2.044-7.34-3.452Zm35.567,1.84a1.747,1.747,0,0,1-1.5-1.726,11.893,11.893,0,0,0-2.265.613,23.127,23.127,0,0,0-2.129,1.045A9.829,9.829,0,0,1,59.725,50.2c3.625-1,7.295.363,7.249.818s-1.291.477-6.253.409a1.36,1.36,0,0,1,1.223.954,1.455,1.455,0,0,1-1.45,1.2Zm-10.036-5.9c-.385-.659,3.738-5.473,9.311-5.95,4.939-.409,9.288,2.68,9.062,3.452,0,.341-1.019.182-2.628,0a28.2,28.2,0,0,0-8.178.227,52.527,52.527,0,0,0-7.385,2.271.181.181,0,0,1-.181,0Z" stroke="none"/>
    <path d="M 52.27327728271484 142.755615234375 C 58.07184219360352 135.7100524902344 63.28092575073242 128.1432189941406 67.78866577148438 120.2127151489258 C 70.16279602050781 116.0446014404297 72.35443115234375 111.7584762573242 74.35088348388672 107.3824844360352 C 68.67359161376953 111.3994064331055 62.15475463867188 113.6561889648438 55.60053634643555 113.6561889648438 C 53.26697158813477 113.6561889648438 50.96351623535156 113.3652572631836 48.75410079956055 112.7914733886719 L 48.64114761352539 112.7597808837891 C 44.89205551147461 111.6279449462891 41.42552185058594 109.8139343261719 38.39602661132812 107.4365310668945 C 39.56655120849609 112.7672271728516 41.10229110717773 118.0189819335938 42.98927688598633 123.1348876953125 L 42.99203872680664 123.1424560546875 C 45.47859954833984 129.9400634765625 48.59363174438477 136.5207977294922 52.27327728271484 142.755615234375 M 67.62744140625 141.7600402832031 C 72.08805847167969 140.0674591064453 76.37654876708984 138.2818450927734 80.46482086181641 136.4137573242188 C 88.64188385009766 132.6773223876953 95.78068542480469 128.7244567871094 101.6829071044922 124.6649932861328 C 107.2240371704102 120.8538665771484 111.5615768432617 116.9878845214844 114.2266006469727 113.4850387573242 C 116.5757064819336 110.3974151611328 117.6102676391602 107.6490936279297 117.2186889648438 105.536735534668 C 116.836181640625 103.5398178100586 114.9329452514648 100.3029556274414 112.1259689331055 96.87621307373047 C 109.2057342529297 93.31114959716797 105.4480590820312 89.68686676025391 101.8164901733398 86.93262481689453 L 101.8051910400391 86.92401885986328 C 100.2409057617188 85.72591400146484 98.60384368896484 84.61605834960938 96.90936279296875 83.60393524169922 C 95.47555541992188 94.51751708984375 92.26097869873047 105.0355224609375 87.32994842529297 114.9280166625977 L 87.32623291015625 114.9354553222656 C 82.30815887451172 124.932991027832 75.6229248046875 134.0107269287109 67.62744140625 141.7600402832031 M 37.62349319458008 140.9463348388672 C 31.65596389770508 133.3107604980469 25.9105224609375 122.887451171875 24.06442832946777 109.7839508056641 L 24.06292915344238 109.7731475830078 C 23.63699913024902 106.6682205200195 23.44380760192871 103.5438461303711 23.48309516906738 100.4225387573242 C 18.87726974487305 106.1171493530273 14.9621696472168 112.3250579833984 11.79009342193604 118.9702072143555 C 17.04485702514648 125.6336212158203 23.2308464050293 131.4626159667969 30.2017765045166 136.3159790039062 C 32.5980110168457 137.9881134033203 35.07520294189453 139.5332336425781 37.62349319458008 140.9463348388672 M 56.33145141601562 105.2528457641602 L 56.4404296875 105.2526092529297 C 61.31734085083008 105.2526092529297 66.25860595703125 103.5178451538086 70.73003387451172 100.2358627319336 C 74.86888885498047 97.19802093505859 78.30921173095703 93.03880310058594 80.41983795166016 88.52179718017578 C 81.84552001953125 85.31815338134766 82.71472930908203 81.92099761962891 83.00331878662109 78.424560546875 C 83.22399139404297 75.75095367431641 83.10022735595703 73.07843017578125 82.63585662841797 70.45077514648438 C 82.26599884033203 70.29594421386719 81.90772247314453 70.07347106933594 81.56343078613281 69.7843017578125 L 81.51608276367188 69.74453735351562 L 81.47042846679688 69.70286560058594 C 81.46102142333984 69.69428253173828 81.45175933837891 69.685791015625 81.44242095947266 69.67720031738281 C 80.88886260986328 71.09220886230469 80.16468048095703 72.43489074707031 79.27522277832031 73.69284820556641 C 77.08694458007812 77.33990478515625 74.42353057861328 79.97608184814453 64.22573089599609 87.21565246582031 L 64.22147369384766 87.21867370605469 C 56.14510345458984 92.93115234375 54.90571212768555 93.34690856933594 53.41034317016602 93.58999633789062 L 53.35427474975586 93.59856414794922 C 52.64068984985352 93.70075988769531 51.90145111083984 93.75258636474609 51.15708160400391 93.75258636474609 C 47.4038200378418 93.75258636474609 43.33781814575195 92.42453765869141 40.00166702270508 90.10895538330078 C 37.9505615234375 88.68531799316406 36.40026092529297 87.05310821533203 35.44987106323242 85.36299133300781 C 35.50018310546875 88.25827789306641 36.14427185058594 91.01483154296875 36.88469314575195 93.25563812255859 C 38.48027801513672 97.41574859619141 41.61320495605469 100.6357040405273 46.19714736938477 102.8261032104492 C 49.12874984741211 104.2269744873047 51.85607528686523 104.8122329711914 53.1753044128418 105.0322265625 L 53.88175582885742 105.1130828857422 C 54.69208145141602 105.2058258056641 55.51627731323242 105.2528457641602 56.33145141601562 105.2528457641602 M 57.92962265014648 77.97930145263672 C 58.23031997680664 77.97930145263672 58.52828979492188 77.93605804443359 58.81655883789062 77.85066223144531 C 59.40645980834961 77.60330963134766 59.8488883972168 77.09471893310547 60.01809692382812 76.48056030273438 C 59.92532348632812 76.15361785888672 59.45244216918945 75.32966613769531 58.25716781616211 74.45243072509766 C 56.93645095825195 73.48312377929688 55.32918930053711 72.88097381591797 54.06262588500977 72.88097381591797 C 53.78121185302734 72.88097381591797 53.52618789672852 72.91136932373047 53.3057746887207 72.97100067138672 C 53.01397323608398 73.05006408691406 52.66844940185547 73.22156524658203 52.26838302612305 73.42015075683594 C 51.29788589477539 73.90186309814453 49.96871185302734 74.56163024902344 48.09501647949219 74.56163024902344 C 47.79736328125 74.56163024902344 47.49149322509766 74.54456329345703 47.18595123291016 74.5108642578125 L 47.15799331665039 74.50766754150391 C 45.65997314453125 74.32832336425781 44.69447326660156 73.79640960693359 44.05558013916016 73.44445037841797 C 43.94943237304688 73.38597106933594 43.84123611450195 73.32636260986328 43.75253295898438 73.281494140625 C 43.28058624267578 73.28791809082031 42.8349494934082 73.497802734375 42.52699279785156 73.85958099365234 L 42.37686157226562 74.03594970703125 L 42.20145034790039 74.18719482421875 C 42.03964614868164 74.32666778564453 41.87375259399414 74.47445678710938 41.71331787109375 74.61738586425781 C 41.34115600585938 74.94892120361328 40.96479415893555 75.28420257568359 40.5660400390625 75.58258819580078 C 41.58229446411133 75.91997528076172 42.27443695068359 76.62313842773438 42.73701477050781 77.09304046630859 C 42.97311782836914 77.33287048339844 43.197509765625 77.56081390380859 43.37917327880859 77.66559600830078 C 43.61074829101562 77.63535308837891 44.19215774536133 77.39140319824219 44.62290573120117 77.21064758300781 C 45.57720947265625 76.81021118164062 46.76486206054688 76.31186676025391 48.31979751586914 76.04430389404297 L 48.38584136962891 76.03369140625 C 48.9885368347168 75.94375610351562 49.60308074951172 75.89817047119141 50.21240615844727 75.89817047119141 C 52.1904296875 75.89817047119141 54.16416931152344 76.38027954101562 55.92023086547852 77.29238891601562 L 56.06336212158203 77.36673736572266 L 56.19771194458008 77.45599365234375 C 56.71295166015625 77.79836273193359 57.31182098388672 77.97932434082031 57.92962265014648 77.97930145263672 M 92.86181640625 49.83701705932617 C 92.97341918945312 49.70625686645508 93.08705139160156 49.56703948974609 93.20120239257812 49.41991806030273 C 93.85044097900391 48.45696640014648 94.34991455078125 47.40509033203125 94.68623352050781 46.29217147827148 L 94.74114227294922 46.11049652099609 L 94.81849670410156 45.93719100952148 C 95.78771209716797 43.76586532592773 96.58982086181641 41.41699600219727 97.07703399658203 39.32325744628906 C 97.557861328125 37.25701904296875 97.62721252441406 35.88945388793945 97.54051208496094 35.34617233276367 C 97.27566528320312 33.6867790222168 97.38658142089844 32.6015625 97.4757080078125 31.72958374023438 C 97.52890014648438 31.20930671691895 97.56472778320312 30.85892295837402 97.52311706542969 30.38966941833496 C 97.31934356689453 29.00610733032227 96.69792938232422 27.74666786193848 95.72370910644531 26.74419212341309 L 95.18846893310547 26.19345283508301 L 94.98371124267578 25.4532585144043 C 94.19113159179688 22.58806228637695 92.66973114013672 19.95720291137695 90.58367919921875 17.84440803527832 C 88.97509765625 16.24756240844727 87.09236145019531 15.01412677764893 84.98775482177734 14.17843151092529 L 84.16490936279297 13.85169219970703 L 83.65129852294922 13.13056182861328 C 83.09425354003906 12.34843921661377 82.35096740722656 11.70302104949951 81.49994659423828 11.26208019256592 C 80.9639892578125 11.00845050811768 80.54072570800781 10.92775535583496 79.95906066894531 10.81684494018555 C 79.22640991210938 10.67714881896973 78.31460571289062 10.5033016204834 77.23277282714844 9.98530101776123 L 77.12199401855469 9.932257652282715 L 77.01593017578125 9.870345115661621 C 74.94942474365234 8.664012908935547 73.30481719970703 6.904265880584717 72.24177551269531 4.766764640808105 C 71.89649200439453 4.355347156524658 71.23776245117188 3.836212873458862 69.69879913330078 3.474409818649292 C 68.20297241210938 3.12275767326355 66.2215576171875 2.972714185714722 63.07344818115234 2.972714185714722 C 61.66019058227539 2.972714185714722 60.11086273193359 3.002105474472046 58.47055816650391 3.033236026763916 L 58.41862487792969 3.03421425819397 C 53.68114471435547 3.11732292175293 50.37890625 3.210844755172729 47.74675369262695 3.732562065124512 C 45.26257705688477 4.224963188171387 43.72125244140625 5.033907890319824 42.59727096557617 6.435833930969238 C 41.81306076049805 7.444120407104492 41.27444076538086 8.640897750854492 41.03923416137695 9.897932052612305 L 40.60814666748047 12.20188808441162 L 38.26834106445312 12.34090995788574 C 36.17868804931641 12.46506214141846 34.16545104980469 12.99521446228027 32.28451538085938 13.91664886474609 C 30.42497062683105 14.82759952545166 28.78666496276855 16.07594680786133 27.41398811340332 17.62768936157227 C 24.97530937194824 20.72879600524902 23.74863052368164 24.59866905212402 23.95359039306641 28.54239082336426 C 24.04960632324219 29.28972625732422 24.21453285217285 29.93353271484375 24.38875389099121 30.61360549926758 C 24.79412460327148 32.19595336914062 25.25358009338379 33.98941040039062 24.68803787231445 36.60143280029297 C 24.50245094299316 37.45414733886719 24.44836235046387 38.82445526123047 24.5468635559082 40.17758560180664 C 24.66468238830566 41.79594421386719 24.94028282165527 42.66535186767578 25.0411376953125 42.87671279907227 C 26.17757797241211 44.52436828613281 26.61658477783203 46.02960586547852 26.84110260009766 47.28886413574219 C 27.20729446411133 41.60852813720703 30.79145431518555 36.54631423950195 36.04219055175781 34.33432388305664 L 36.15283966064453 34.29027938842773 C 37.28879928588867 33.86399841308594 38.47984313964844 33.64784622192383 39.69284057617188 33.64784622192383 C 40.10527038574219 33.64784622192383 40.52130508422852 33.67354965209961 40.93138885498047 33.72429656982422 C 41.49225616455078 33.75632476806641 42.06024169921875 33.77256393432617 42.62114715576172 33.77256393432617 C 43.19407272338867 33.77256393432617 43.77409362792969 33.75564193725586 44.34627151489258 33.72226715087891 C 47.6439323425293 33.37499618530273 50.94961929321289 32.80415725708008 54.17264556884766 32.02538681030273 L 54.3042106628418 31.99360466003418 L 54.43807983398438 31.97380065917969 C 56.69777679443359 31.6394100189209 59.51001358032227 31.22323608398438 62.3297119140625 31.22323608398438 C 65.71566772460938 31.22323608398438 68.55657958984375 31.82221412658691 71.01483917236328 33.0544319152832 L 71.03129577636719 33.06273651123047 C 75.52346801757812 35.34910583496094 77.79440307617188 39.17236709594727 79.61912536621094 42.24441146850586 C 80.34551239013672 43.46734619140625 81.03162384033203 44.62245178222656 81.66749572753906 45.30891036987305 C 82.120361328125 45.79782104492188 82.33985900878906 45.83718109130859 82.46269989013672 45.84035110473633 C 82.84852600097656 45.82205963134766 83.34188842773438 45.51898193359375 83.91140747070312 45.16912841796875 C 84.81607818603516 44.61338806152344 85.94197082519531 43.92175674438477 87.43416595458984 43.92175674438477 C 88.12625885009766 43.92175674438477 88.80032348632812 44.07570648193359 89.43811798095703 44.37940216064453 C 91.77851867675781 45.47547912597656 92.48105621337891 47.91907119750977 92.86181640625 49.83701705932617 M 52.83836364746094 149.9727172851562 C 66.35088348388672 140.75 77.29723358154297 128.2286987304688 84.64501190185547 113.5896682739258 L 84.64501190185547 113.5896911621094 C 90.05870819091797 102.728889465332 93.37177276611328 90.93856048583984 94.40903472900391 78.84184265136719 C 97.66407775878906 80.4295654296875 100.7528381347656 82.33919525146484 103.6293411254883 84.54232025146484 C 111.4450988769531 90.46988677978516 119.1475143432617 99.62242889404297 120.1669921875 104.9821929931641 C 122.4324264526367 117.1326065063477 95.58705902099609 136.9138488769531 52.83836364746094 149.9727172851562 Z M 50.32373428344727 149.8591461181641 C 42.56488418579102 147.2023468017578 35.21425628662109 143.4720001220703 28.48499298095703 138.7761993408203 C 20.77799415588379 133.4103698730469 13.96558094024658 126.856819152832 8.300015449523926 119.3582992553711 C 12.95908069610596 109.1029510498047 19.36827659606934 99.74171447753906 27.23899269104004 91.69628143310547 C 26.29890632629395 97.54336547851562 26.23021125793457 103.4980392456055 27.03510284423828 109.3654327392578 C 30.13875389099121 131.3950805664062 44.88671112060547 145.2487945556641 50.32373428344727 149.8591461181641 Z M 51.88688659667969 147.8605651855469 C 47.13736343383789 140.4140014648438 43.21014404296875 132.4713592529297 40.17462539672852 124.1730651855469 L 40.17460250854492 124.1730194091797 C 37.01925277709961 115.6183013916016 34.83077621459961 106.7357559204102 33.65016555786133 97.69199371337891 C 37.27558135986328 103.5601043701172 42.9154052734375 107.8974761962891 49.5081901550293 109.8878021240234 C 61.40166091918945 112.9764862060547 75.19816589355469 106.5946731567383 83.05921173095703 93.60401916503906 C 79.72990417480469 103.3474349975586 75.48979949951172 112.7536926269531 70.39544677734375 121.6975173950195 C 65.10242462158203 131.0096130371094 58.90266799926758 139.7733459472656 51.88688659667969 147.8605651855469 Z M 56.33145904541016 108.2528457641602 C 55.39892959594727 108.2528457641602 54.46720123291016 108.1996688842773 53.54064559936523 108.0936279296875 L 53.54064559936523 108.1163635253906 C 52.02279663085938 107.9346466064453 38.52083969116211 106.0269088745117 34.05794906616211 94.26260375976562 C 31.99844932556152 88.06977844238281 31.60594940185547 81.29669189453125 34.7343635559082 75.57147216796875 C 35.13210296630859 75.33325958251953 34.52536392211914 73.30121612548828 34.7343635559082 72.88669586181641 C 34.45001602172852 70.42425537109375 34.80570983886719 72.49380493164062 33.40097045898438 68.1630859375 C 33.47988510131836 68.43341064453125 32.45296859741211 65.67684936523438 32.40097045898438 65.48780059814453 C 31.7549934387207 63.15482330322266 32.7549934387207 60.68951797485352 33.40097045898438 58.35654067993164 C 33.09045028686523 60.25701904296875 33.1442756652832 62.19943237304688 33.55953598022461 64.0797119140625 C 34.4657096862793 67.94058227539062 36.36866760253906 68.70064544677734 37.07094955444336 72.47064971923828 C 37.06538391113281 72.83058166503906 37.29182052612305 73.29908752441406 37.56936264038086 73.52749633789062 C 38.18102645874023 73.89080810546875 39.10984039306641 72.89156341552734 40.24255752563477 71.91501617431641 C 41.27071380615234 70.7071533203125 42.84198379516602 70.10791778564453 44.41094970703125 70.32523345947266 C 45.45306015014648 70.62047576904297 45.99675369262695 71.34721374511719 47.51460266113281 71.5289306640625 C 49.78002166748047 71.77876281738281 50.84477615356445 70.52964782714844 52.52119064331055 70.07540893554688 C 56.80282974243164 68.91714477539062 63.19138336181641 73.16410827636719 63.03279876708984 76.70701599121094 C 62.75175476074219 78.51551818847656 61.52329635620117 80.03325653076172 59.81588363647461 80.68147277832031 C 58.03774642944336 81.25711059570312 56.09492492675781 80.98960876464844 54.53742980957031 79.95468902587891 C 52.78186416625977 79.0428466796875 50.78421401977539 78.70907592773438 48.82855987548828 79.00084686279297 C 45.79286193847656 79.52321624755859 44.29770660400391 81.27193450927734 42.25879669189453 80.454345703125 C 40.67298889160156 79.77301788330078 40.17457962036133 78.18315124511719 39.15516662597656 78.41034698486328 C 38.13571166992188 78.637451171875 37.38812255859375 80.24995422363281 37.36547088623047 81.54447174072266 C 37.36547088623047 85.88225555419922 45.63431930541992 91.67353820800781 52.92897033691406 90.62886810302734 C 53.76718902587891 90.49260711669922 54.71866607666016 90.26549530029297 62.48910140991211 84.7694091796875 C 72.50229644775391 77.660888671875 74.85834503173828 75.2535400390625 76.76129913330078 72.05127716064453 C 78.07923126220703 70.21384429931641 78.9906005859375 68.11551666259766 79.43453979492188 65.8966064453125 C 80.02351379394531 62.39908218383789 78.84551239013672 60.60491180419922 79.43451690673828 55.79019165039062 C 79.638427734375 54.20040893554688 80.5340576171875 51.77034378051758 81.12307739257812 51.77034378051758 C 81.71210479736328 51.77034378051758 81.61255645751953 56.69597625732422 81.74849700927734 59.60299682617188 C 81.97503662109375 64.62212371826172 81.97503662109375 66.10169219970703 83.49286651611328 67.487060546875 C 84.19245147705078 68.07469177246094 84.099609375 67.35323333740234 85.00749206542969 67.25923919677734 C 86.95893096923828 74.75495147705078 86.30368804931641 82.693603515625 83.14986419677734 89.76584625244141 C 78.61899566650391 99.48615264892578 68.19799041748047 108.2526092529297 56.4404296875 108.2526092529297 C 56.40411758422852 108.2527694702148 56.36776733398438 108.2528457641602 56.33145904541016 108.2528457641602 Z M 50.31494903564453 86.67804718017578 C 50.27000045776367 86.67804718017578 50.2255973815918 86.67745971679688 50.1786003112793 86.67745971679688 C 48.88553619384766 86.67751312255859 45.7467041015625 86.13751983642578 44.85386276245117 85.27555847167969 L 44.85386276245117 85.34371185302734 C 43.87973403930664 84.36712646484375 42.89205932617188 84.34708404541016 43.45842742919922 83.64302062988281 C 44.02477264404297 82.93897247314453 46.7216911315918 82.09247589111328 47.51460266113281 82.20601654052734 C 48.2659912109375 82.31256866455078 49.08801651000977 82.31256866455078 49.83942794799805 82.20601654052734 C 52.42205810546875 81.93357849121094 55.22519302368164 83.56817626953125 55.9047966003418 84.06782531738281 C 56.58447265625 84.56747436523438 54.4694709777832 84.54232025146484 52.49853515625 85.95038604736328 C 51.86750030517578 86.42321014404297 51.10131454467773 86.67804718017578 50.31494903564453 86.67804718017578 Z M 45.31714630126953 68.64463043212891 L 42.32677459716797 67.69075775146484 C 43.18156051635742 64.224365234375 43.41929626464844 60.63395309448242 43.02903747558594 57.08471298217773 C 42.89312362670898 55.81290817260742 42.7571907043457 54.56377792358398 42.53064727783203 53.40554046630859 C 41.28929901123047 53.78567123413086 40.02584075927734 54.08906173706055 38.74738311767578 54.3139762878418 C 39.30819320678711 54.24375534057617 39.85235977172852 54.53475570678711 40.10664749145508 55.04071426391602 C 40.28788375854492 55.65391159057617 39.54027557373047 56.40338897705078 38.81534194946289 56.49423599243164 C 37.95823669433594 56.49819564819336 37.22457885742188 55.8847770690918 37.07094955444336 55.04071426391602 C 34.94145584106445 56.13084411621094 34.37509155273438 56.22169876098633 34.28447341918945 56.08543014526367 C 34.19388580322266 55.94915008544922 35.57579803466797 54.13227844238281 37.54671096801758 53.26925659179688 C 39.06484222412109 52.61054611206055 40.74047088623047 52.40550231933594 42.3720817565918 52.67877960205078 C 42.16686248779297 51.08606338500977 41.28251647949219 49.66095352172852 39.94805908203125 48.77249526977539 C 38.17786407470703 48.13223266601562 36.21712493896484 48.29810333251953 34.57899475097656 49.22671508789062 C 33.15177536010742 49.81718444824219 32.01906204223633 50.43038940429688 31.70190620422363 49.97616958618164 C 31.38473320007324 49.52195358276367 32.85727691650391 46.61493301391602 35.16801452636719 45.86547470092773 C 38.15837478637695 44.88889694213867 42.23616790771484 47.13729858398438 44.95466613769531 51.77034378051758 C 44.11164474487305 57.37447357177734 44.23423385620117 63.08208465576172 45.31714630126953 68.64463043212891 Z M 32.0870361328125 55.19971466064453 C 27.42023277282715 54.7000617980957 25.56258010864258 53.15571594238281 24.74701499938965 51.74762725830078 L 24.81499290466309 51.79304122924805 C 23.59164619445801 49.6582145690918 24.58844947814941 47.47795486450195 22.54955863952637 44.54823684692383 C 21.55277633666992 43.11745452880859 21.21294975280762 38.46169281005859 21.75664520263672 35.96347427368164 C 22.39097213745117 33.03375625610352 21.30355834960938 31.64838790893555 20.96375465393066 28.80951881408691 C 20.69051551818848 24.07888793945312 22.16653633117676 19.41332244873047 25.10949325561523 15.70527935028076 C 28.41592788696289 11.93304061889648 33.09003829956055 9.643279075622559 38.09040832519531 9.346192359924316 C 38.41592788696289 7.606410026550293 39.15407943725586 5.970649242401123 40.24258041381836 4.576866626739502 C 43.59540557861328 0.3753446936607361 49.30429840087891 0.1936490386724472 58.36599349975586 0.03467077016830444 C 66.74810791015625 -0.1242856755852699 72.36636352539062 -0.2378513664007187 74.81305694580078 3.191518545150757 C 75.60507965087891 4.903170585632324 76.90186309814453 6.330018520355225 78.52834320068359 7.279475212097168 C 80.04618835449219 8.00623607635498 81.08829498291016 7.73371410369873 82.83266448974609 8.574018478393555 C 84.12995147705078 9.236410140991211 85.24890899658203 10.20238780975342 86.09488677978516 11.39019298553467 C 88.56977844238281 12.37290954589844 90.82014465332031 13.84858417510986 92.70995330810547 15.72799682617188 C 95.16475677490234 18.21132278442383 96.94316864013672 21.28438758850098 97.8751220703125 24.65340995788574 C 99.3011474609375 26.12077903747559 100.2219314575195 28.00673675537109 100.5030136108398 30.03590965270996 C 100.6842727661133 31.8528003692627 100.1405334472656 32.60225677490234 100.5030136108398 34.87334442138672 C 100.8654937744141 37.14445495605469 99.77809906005859 42.18630218505859 97.55796813964844 47.16001892089844 C 97.12551879882812 48.59101867675781 96.47603607177734 49.94682312011719 95.63238525390625 51.17984390258789 C 95.40579223632812 51.47507858276367 93.02719116210938 54.60924530029297 91.32805633544922 54.06414794921875 C 89.62895202636719 53.51908493041992 90.51249694824219 48.1819953918457 88.15642547607422 47.09186553955078 C 86.41203308105469 46.25159072875977 85.05279541015625 48.79519653320312 82.49284362792969 48.84062576293945 C 77.55421447753906 48.84062576293945 77.03316497802734 39.48369216918945 69.67051696777344 35.73636627197266 C 65.13964080810547 33.46528244018555 59.63466644287109 34.23745727539062 54.87725448608398 34.94147491455078 C 51.49179840087891 35.75949859619141 48.05588531494141 36.35128021240234 44.59221267700195 36.71293258666992 C 43.27944564819336 36.79243087768555 41.9631233215332 36.79243469238281 40.65034103393555 36.71295166015625 C 39.48834609985352 36.55419158935547 38.3051872253418 36.68684768676758 37.20688629150391 37.09901809692383 C 32.90227508544922 38.91242980957031 30.0263843536377 43.05136489868164 29.82158088684082 47.72777938842773 C 29.75427627563477 50.39801788330078 30.54884147644043 53.01866912841797 32.0870361328125 55.19971466064453 Z M 60.38223266601562 53.63264846801758 C 59.52579879760742 53.50871276855469 58.88940811157227 52.77410507202148 58.88708114624023 51.9066047668457 C 58.11362457275391 52.03580093383789 57.35482025146484 52.24119186401367 56.62162399291992 52.51980209350586 C 55.89447021484375 52.83134460449219 55.18368911743164 53.18003845214844 54.49212265014648 53.56449508666992 C 55.82807922363281 51.90632247924805 57.66425323486328 50.72695159912109 59.72527694702148 50.20327758789062 C 63.3499641418457 49.20399475097656 67.01995086669922 50.566650390625 66.97464752197266 51.02086639404297 C 66.92934417724609 51.4750862121582 65.68335723876953 51.4978141784668 60.7220573425293 51.42967224121094 C 61.28842926025391 51.46060562133789 61.77610397338867 51.84084320068359 61.94540786743164 52.38354110717773 C 61.94538497924805 52.99673461914062 61.19779968261719 53.58721542358398 60.49553680419922 53.58721542358398 L 60.38223266601562 53.63264846801758 Z M 50.43700408935547 47.75212097167969 C 50.40571212768555 47.75212097167969 50.37441635131836 47.7440071105957 50.34638595581055 47.72777938842773 C 49.96125411987305 47.06914901733398 54.0843620300293 42.25443267822266 59.65731811523438 41.77749633789062 C 64.59603118896484 41.36871719360352 68.94557952880859 44.45738983154297 68.71903991699219 45.22958374023438 C 68.71903991699219 45.57024002075195 67.69957733154297 45.4112548828125 66.09114837646484 45.22958374023438 C 63.36848831176758 44.90736770629883 60.61360168457031 44.98386383056641 57.91292953491211 45.45669174194336 C 55.39899444580078 46.03129959106445 52.93058013916016 46.79039001464844 50.52762222290039 47.72777938842773 C 50.49959182739258 47.7440071105957 50.46829605102539 47.75212097167969 50.43700408935547 47.75212097167969 Z" stroke="none" fill="#003652"/>
  </g>
</svg>
