<svg xmlns="http://www.w3.org/2000/svg" width="109.846" height="126.001" viewBox="0 0 109.846 126.001">
  <g id="Group_4944" data-name="Group 4944" transform="translate(0 0)">
    <g id="noun-book-1122701" transform="translate(-76.927 -0.003)" fill="none">
      <path d="M173.5,105.7H76.963a.038.038,0,0,1-.026-.011.037.037,0,0,1-.011-.026V4.582A4.574,4.574,0,0,1,81.5,0h91.048a14.266,14.266,0,0,1,14.225,14.225v97.819A14,14,0,0,1,172.816,126H81.4a4.477,4.477,0,0,1-4.477-4.477V114.7a1.58,1.58,0,0,1,1.572-1.538A1.524,1.524,0,0,1,80,114.7l0,7.57a.037.037,0,0,0,.037.037h93.81A7.6,7.6,0,0,0,179,120.235c1.394-1.314,2.243-4.482,2.374-6.393A7.762,7.762,0,0,0,173.5,105.7Z" stroke="none"/>
      <path d="M 183.7727355957031 109.807243347168 L 183.7727355957031 14.23149299621582 C 183.7676849365234 12.75181007385254 183.47705078125 11.30897426605225 182.9088745117188 9.942898750305176 C 182.3399963378906 8.575098991394043 181.5204162597656 7.350516796112061 180.4727172851562 6.302989482879639 C 179.4253387451172 5.255589485168457 178.2007446289062 4.436080455780029 176.8329620361328 3.867225885391235 C 175.4668731689453 3.299083948135376 174.0241546630859 3.008464097976685 172.5447082519531 3.003407716751099 L 81.50054168701172 3.003407716751099 C 81.07974243164062 3.003407716751099 80.68453979492188 3.16711688041687 80.38728332519531 3.464789628982544 C 80.08974456787109 3.762644052505493 79.92610168457031 4.158298492431641 79.92654418945312 4.581934928894043 L 79.92654418945312 102.6964416503906 L 174.0497436523438 102.696647644043 L 174.0917510986328 102.7125778198242 C 176.9172515869141 102.8647384643555 179.5994110107422 104.1009216308594 181.5255126953125 106.1568450927734 C 182.5353240966797 107.234733581543 183.2920989990234 108.4729461669922 183.7727355957031 109.807243347168 M 172.8155212402344 126.0044097900391 L 81.40363311767578 126.0044097900391 C 80.21659851074219 126.0044097900391 79.07766723632812 125.5327377319336 78.23809051513672 124.6931533813477 C 77.39850616455078 123.8535537719727 76.92684936523438 122.7149505615234 76.92684936523438 121.5276107788086 L 76.92684936523438 114.6967926025391 C 76.92684936523438 113.7899322509766 77.72928619384766 113.1591873168945 78.49854278564453 113.1591873168945 C 79.26777648925781 113.1591873168945 80.00382995605469 113.7899169921875 80.00382995605469 114.6967926025391 L 80.00144958496094 122.2672653198242 C 80.00144958496094 122.2877731323242 80.01824951171875 122.3041687011719 80.03836059570312 122.3041687011719 L 173.8482208251953 122.3041687011719 C 175.7636108398438 122.2877731323242 177.6019592285156 121.5486602783203 178.9956207275391 120.2353515625 C 180.3897094726562 118.9216079711914 181.2387084960938 115.7538070678711 181.3691101074219 113.8427886962891 C 181.6598815917969 109.3888778686523 178.0041656494141 105.696647644043 173.4998931884766 105.696647644043 L 173.4993591308594 105.6964416503906 L 76.96344757080078 105.6964416503906 C 76.95359802246094 105.6964416503906 76.944580078125 105.6923370361328 76.93762969970703 105.6857681274414 C 76.93063354492188 105.6787872314453 76.92654418945312 105.6693725585938 76.92654418945312 105.659538269043 L 76.92654418945312 4.581934928894043 C 76.92528533935547 3.367934942245483 77.40685272216797 2.20348048210144 78.26486968994141 1.344571352005005 C 79.12250518798828 0.4856986105442047 80.28652191162109 0.003407711628824472 81.50054168701172 0.003407711628824472 L 172.5480651855469 0.003407711628824472 C 176.3170471191406 0.01448043901473284 179.9288635253906 1.516462206840515 182.5940551757812 4.181680202484131 C 185.2597045898438 6.846898555755615 186.7616271972656 10.45871639251709 186.7727355957031 14.22811698913574 L 186.7727355957031 112.0475387573242 C 186.7616882324219 115.7455520629883 185.2875366210938 119.2893142700195 182.6728210449219 121.9044647216797 C 180.0576934814453 124.5196075439453 176.5139465332031 125.993278503418 172.8155212402344 126.0044097900391 Z" stroke="none" fill="#304b45"/>
    </g>
    <g id="Path_89259" data-name="Path 89259" transform="translate(49.868 61.4)" fill="none">
      <path d="M-5.852-3.376a3.7,3.7,0,0,1-.49,1.768A4.345,4.345,0,0,1-7.521-.2l-.249.033A2.621,2.621,0,0,0-6.94-1.69.807.807,0,0,0-7.4-2.446q-.805-.44-.855-.482a1.75,1.75,0,0,1-.465-1.353,2.438,2.438,0,0,1,.249-.984,2.166,2.166,0,0,1,.581-.818l.141.05a.456.456,0,0,0-.042.191q0,.332.5.581a4.337,4.337,0,0,1,.938.54A1.735,1.735,0,0,1-5.852-3.376ZM-.43-5.518A4.87,4.87,0,0,1-2.2-2.222l-.091-.025a7.967,7.967,0,0,0,.5-1.827,2.416,2.416,0,0,0-.357-1.445l.955-1.719a2.094,2.094,0,0,1,.536.776A2.369,2.369,0,0,1-.43-5.518Zm-2.632,0a4.877,4.877,0,0,1-1.76,3.3l-.1-.025a7.862,7.862,0,0,0,.506-1.827,2.416,2.416,0,0,0-.357-1.445l.955-1.719a2.057,2.057,0,0,1,.531.776A2.4,2.4,0,0,1-3.062-5.518ZM9.74-3.749a4.355,4.355,0,0,1-.7,1.719,12.425,12.425,0,0,0-1.3,3.412A1.785,1.785,0,0,1,5.929,3.017q-2.184,0-1.976-.008a4.389,4.389,0,0,0-1.9.448L2,3.358a1.364,1.364,0,0,0,.2-.714,6.079,6.079,0,0,0-.34-1.636,6.084,6.084,0,0,1-.34-1.644,2.136,2.136,0,0,1,.614-1.519A7.851,7.851,0,0,1,1.081-2.9a1.6,1.6,0,0,1-.44-1.171,2.759,2.759,0,0,1,.208-.98,1.912,1.912,0,0,1,.54-.839l.133.05a.766.766,0,0,0-.008.108q0,.224.465.515a7.677,7.677,0,0,1,.863.589,1.243,1.243,0,0,1,.465.946,2.169,2.169,0,0,1-.7,1.362,2.245,2.245,0,0,0-.7,1.478A1.337,1.337,0,0,0,2.451.211,2.4,2.4,0,0,0,3.563.726a10.7,10.7,0,0,1,1.478-3.18,3.737,3.737,0,0,1-.822-.531,1.229,1.229,0,0,1-.332-.9A3.282,3.282,0,0,1,4.111-4.97a1.923,1.923,0,0,1,.573-.922l.141.05-.008.1q-.017.232.448.531a9.51,9.51,0,0,1,.872.606,1.274,1.274,0,0,1,.473.971,3.287,3.287,0,0,1-.78,1.619l-.515-.274A8.257,8.257,0,0,0,3.887.726,7.621,7.621,0,0,0,4.7.759,4.534,4.534,0,0,0,6.652.427a2.948,2.948,0,0,0,1.03-.971Q8.2-1.325,8.736-2.1q-.971-.631-1.088-.739a1.5,1.5,0,0,1-.5-1.154,2.945,2.945,0,0,1,.2-1.038,1.8,1.8,0,0,1,.581-.863l.141.05-.008.108q-.017.224.415.49a6.625,6.625,0,0,1,.814.54A1.235,1.235,0,0,1,9.74-3.749Zm6.086,4.865q0,1.752-.963,2.175h-.05a8.423,8.423,0,0,0,.241-2.258V-1.624a1.021,1.021,0,0,0-.382-.913,1.871,1.871,0,0,0-.971-.191H11.683q-1.3,0-1.3-1.445a2.846,2.846,0,0,1,.2-1,2.007,2.007,0,0,1,.548-.839H11.3a1.114,1.114,0,0,0-.033.3q0,.448.648.448h2.042a1.9,1.9,0,0,1,1.341.486,1.681,1.681,0,0,1,.527,1.3Z" stroke="none"/>
      <path d="M -3.817825317382812 -7.236324310302734 L -4.772615432739258 -5.517714023590088 C -4.534615516662598 -5.196683883666992 -4.415605545043945 -4.715134143829346 -4.415605545043945 -4.073073863983154 C -4.415605545043945 -3.812923908233643 -4.58442497253418 -3.204073905944824 -4.922064781188965 -2.246523857116699 L -4.82243537902832 -2.221613883972168 C -3.649015426635742 -3.383964061737061 -3.062305450439453 -4.482664108276367 -3.062305450439453 -5.517714023590088 C -3.062305450439453 -5.799993991851807 -3.137024879455566 -6.114104270935059 -3.286464691162109 -6.460043907165527 C -3.435914993286133 -6.805984020233154 -3.613035202026367 -7.064743995666504 -3.817825317382812 -7.236324310302734 M -1.194234848022461 -7.236324310302734 L -2.149024963378906 -5.517714023590088 C -1.911015510559082 -5.196683883666992 -1.792015075683594 -4.715134143829346 -1.792015075683594 -4.073073863983154 C -1.792015075683594 -3.812923908233643 -1.958065032958984 -3.204073905944824 -2.290164947509766 -2.246523857116699 L -2.198844909667969 -2.221613883972168 C -1.019885063171387 -3.383964061737061 -0.4304051399230957 -4.482664108276367 -0.4304051399230957 -5.517714023590088 C -0.4304051399230957 -5.799993991851807 -0.5065150260925293 -6.114104270935059 -0.6587252616882324 -6.460043907165527 C -0.8109350204467773 -6.805984020233154 -0.9894447326660156 -7.064743995666504 -1.194234848022461 -7.236324310302734 M -7.894354820251465 -6.082283973693848 C -8.115755081176758 -5.905163764953613 -8.30948543548584 -5.632564067840576 -8.47553539276123 -5.26448392868042 C -8.641585350036621 -4.896404266357422 -8.724605560302734 -4.568453788757324 -8.724605560302734 -4.280633926391602 C -8.724605560302734 -3.660713911056519 -8.569624900817871 -3.209614038467407 -8.259665489196777 -2.927324056625366 C -8.226454734802246 -2.899653911590576 -7.941405296325684 -2.739133834838867 -7.404515266418457 -2.445784091949463 C -7.094554901123047 -2.279734134674072 -6.9395751953125 -2.027894020080566 -6.9395751953125 -1.690253973007202 C -6.9395751953125 -1.291733980178833 -7.216324806213379 -0.7825138568878174 -7.769824981689453 -0.1625940799713135 L -7.520745277404785 -0.1958038806915283 C -7.044734954833984 -0.5611140727996826 -6.651755332946777 -1.031584024429321 -6.341794967651367 -1.607223987579346 C -6.015225410461426 -2.210544109344482 -5.851944923400879 -2.800024032592773 -5.851944923400879 -3.375663995742798 C -5.851944923400879 -3.962373971939087 -6.020754814147949 -4.410714149475098 -6.358395576477051 -4.720664024353027 C -6.485705375671387 -4.842433929443359 -6.79842472076416 -5.022324085235596 -7.296575546264648 -5.260334014892578 C -7.62867546081543 -5.426383972167969 -7.79472541809082 -5.62010383605957 -7.79472541809082 -5.841504096984863 C -7.79472541809082 -5.907923698425293 -7.780895233154297 -5.971584320068359 -7.753214836120605 -6.032464027404785 L -7.894354820251465 -6.082283973693848 M 11.13498497009277 -6.007554054260254 C 10.91911506652832 -5.83043384552002 10.73646545410156 -5.550923824310303 10.58701515197754 -5.169003963470459 C 10.45417499542236 -4.814764022827148 10.38775444030762 -4.482664108276367 10.38775444030762 -4.172703742980957 C 10.38775444030762 -3.209614038467407 10.81948471069336 -2.728064060211182 11.68294525146484 -2.728064060211182 L 13.70045471191406 -2.728064060211182 C 14.14879417419434 -2.728064060211182 14.47259521484375 -2.664413928985596 14.67185497283936 -2.537114143371582 C 14.92646503448486 -2.365523815155029 15.05376434326172 -2.061103820800781 15.05376434326172 -1.623833894729614 L 15.05376434326172 1.032966136932373 C 15.05376434326172 1.984985828399658 14.9735050201416 2.737746238708496 14.81299495697021 3.291245937347412 L 14.8628044128418 3.291245937347412 C 15.50486469268799 3.008965969085693 15.82589530944824 2.283875942230225 15.82589530944824 1.11599588394165 L 15.82589530944824 -3.475293874740601 C 15.82589530944824 -4.01772403717041 15.65016460418701 -4.450833797454834 15.2986946105957 -4.774633884429932 C 14.94721508026123 -5.098433971405029 14.50026512145996 -5.260334014892578 13.95783424377441 -5.260334014892578 L 11.91542434692383 -5.260334014892578 C 11.4836950302124 -5.260334014892578 11.26782417297363 -5.409773826599121 11.26782417297363 -5.708663940429688 C 11.26782417297363 -5.83043384552002 11.27889442443848 -5.93006420135498 11.30103492736816 -6.007554054260254 L 11.13498497009277 -6.007554054260254 M 1.387845039367676 -5.891324043273926 C 1.177515029907227 -5.725274085998535 0.9976248741149902 -5.445754051208496 0.8481850624084473 -5.052763938903809 C 0.7098050117492676 -4.692994117736816 0.6406149864196777 -4.366424083709717 0.6406149864196777 -4.073073863983154 C 0.6406149864196777 -3.591523885726929 0.787294864654541 -3.201313972473145 1.080655097961426 -2.902423858642578 C 1.196885108947754 -2.780653953552246 1.548355102539062 -2.531574010848999 2.135065078735352 -2.15519380569458 C 1.725474834442139 -1.723464012145996 1.520684719085693 -1.217014074325562 1.520684719085693 -0.6358339786529541 C 1.520684719085693 -0.2649939060211182 1.634154796600342 0.2829761505126953 1.861084938049316 1.008056163787842 C 2.088025093078613 1.733146190643311 2.201484680175781 2.278346061706543 2.201484680175781 2.643656253814697 C 2.201484680175781 2.898265838623047 2.135065078735352 3.136266231536865 2.002224922180176 3.357666015625 L 2.052044868469238 3.457295894622803 C 2.520188808441162 3.198441982269287 3.150083780288696 3.049183368682861 3.941576719284058 3.00954532623291 C 3.944482088088989 3.009355545043945 3.948391199111938 3.009162902832031 3.953314781188965 3.008965969085693 C 3.949374437332153 3.009157657623291 3.945509195327759 3.009348392486572 3.941576719284058 3.00954532623291 C 3.862834453582764 3.014688968658447 4.52540397644043 3.017265796661377 5.929314613342285 3.017265796661377 C 6.892405033111572 3.017265796661377 7.498485088348389 2.472065925598145 7.747564792633057 1.381676197052002 C 8.040914535522461 0.103085994720459 8.472644805908203 -1.034353971481323 9.042755126953125 -2.030653953552246 C 9.507695198059082 -2.844304084777832 9.740164756774902 -3.417173862457275 9.740164756774902 -3.749274015426636 C 9.740164756774902 -4.120123863220215 9.590715408325195 -4.438384056091309 9.291824340820312 -4.704063892364502 C 9.197734832763672 -4.792623996734619 8.926514625549316 -4.972514152526855 8.478184700012207 -5.24372386932373 C 8.190364837646484 -5.420844078063965 8.051984786987305 -5.584134101867676 8.063055038452148 -5.733573913574219 L 8.071365356445312 -5.841504096984863 L 7.930214881896973 -5.891324043273926 C 7.692214965820312 -5.719734191894531 7.498485088348389 -5.43191385269165 7.349044799804688 -5.0278639793396 C 7.216204643249512 -4.673624038696289 7.149785041809082 -4.327683925628662 7.149785041809082 -3.990043878555298 C 7.149785041809082 -3.52510404586792 7.315834999084473 -3.140424013137817 7.647934913635254 -2.836004018783569 C 7.725424766540527 -2.764043807983398 8.08796501159668 -2.517734050750732 8.735565185546875 -2.097074031829834 C 8.381324768066406 -1.582324028015137 8.029845237731934 -1.064794063568115 7.681144714355469 -0.544503927230835 C 7.354574680328369 -0.07956385612487793 7.011404991149902 0.2442259788513184 6.651634693145752 0.4268860816955566 C 6.20329475402832 0.6482858657836914 5.552934646606445 0.7589859962463379 4.700544834136963 0.7589859962463379 C 4.351834774017334 0.7589859962463379 4.080624580383301 0.7479162216186523 3.886894941329956 0.725776195526123 C 4.22453498840332 -0.5140640735626221 4.700544834136963 -1.518663883209229 5.314924716949463 -2.288033962249756 L 5.829684734344482 -2.014053821563721 C 6.349974632263184 -2.728064060211182 6.610115051269531 -3.267734050750732 6.610115051269531 -3.633044004440308 C 6.610115051269531 -3.998353958129883 6.452374935150146 -4.322144031524658 6.136874675750732 -4.604434013366699 C 6.048315048217773 -4.687463760375977 5.757724761962891 -4.88948392868042 5.265114784240723 -5.210514068603516 C 4.955154895782471 -5.409773826599121 4.805705070495605 -5.586894035339355 4.816774845123291 -5.741873741149902 L 4.825084686279297 -5.841504096984863 L 4.683935165405273 -5.891324043273926 C 4.468074798583984 -5.736343860626221 4.277114868164062 -5.429143905639648 4.111064910888672 -4.969743728637695 C 3.961614847183228 -4.554614067077637 3.886894941329956 -4.192073822021484 3.886894941329956 -3.882113933563232 C 3.886894941329956 -3.511273860931396 3.997594833374023 -3.212383985519409 4.218995094299316 -2.985444068908691 C 4.357375144958496 -2.847074031829834 4.631354808807373 -2.6699538230896 5.040945053100586 -2.454083919525146 C 4.398884773254395 -1.529733896255493 3.906264781951904 -0.4697840213775635 3.563094854354858 0.725776195526123 C 3.131364822387695 0.6427459716796875 2.760524749755859 0.4711661338806152 2.450564861297607 0.2110159397125244 C 2.090785026550293 -0.08787393569946289 1.910904884338379 -0.4393439292907715 1.910904884338379 -0.8433940410614014 C 1.910904884338379 -1.319403886795044 2.143374919891357 -1.812023997306824 2.608314990997314 -2.32124400138855 C 3.073255062103271 -2.830463886260986 3.305724859237671 -3.284333944320679 3.305724859237671 -3.682853937149048 C 3.305724859237671 -4.037094116210938 3.150744915008545 -4.352593898773193 2.840785026550293 -4.62934398651123 C 2.741154670715332 -4.723433971405029 2.453334808349609 -4.919933795928955 1.977324962615967 -5.218813896179199 C 1.667365074157715 -5.412544250488281 1.51238489151001 -5.584134101867676 1.51238489151001 -5.733573913574219 C 1.51238489151001 -5.766783714294434 1.515144824981689 -5.802763938903809 1.520684719085693 -5.841504096984863 L 1.387845039367676 -5.891324043273926 M -4.675945281982422 -11.86906433105469 L -2.885668754577637 -10.36911296844482 L -2.05235481262207 -11.86906433105469 L 0.732414722442627 -9.535894393920898 C 0.8529520034790039 -9.434905052185059 0.9686260223388672 -9.326587677001953 1.07936954498291 -9.211054801940918 L 3.105477809906006 -8.451184272766113 L 4.206074714660645 -9.241374015808105 L 6.381865501403809 -8.473413467407227 L 7.448794841766357 -9.242633819580078 L 9.476147651672363 -8.527063369750977 L 10.06175518035889 -9.007554054260254 L 15.27822494506836 -9.007554054260254 L 15.03418159484863 -8.153402328491211 C 15.90102005004883 -7.97576904296875 16.68212127685547 -7.579160690307617 17.33135604858398 -6.981054306030273 C 18.29513549804688 -6.093153953552246 18.82589530944824 -4.848124027252197 18.82589530944824 -3.475293874740601 L 18.82589530944824 1.11599588394165 C 18.82589530944824 4.344025611877441 17.09937477111816 5.585076332092285 16.07020568847656 6.037546157836914 L 15.49316501617432 6.29124641418457 L 10.81942462921143 6.29124641418457 L 11.93170547485352 2.455696105957031 C 11.96033477783203 2.356956005096436 12.05376434326172 1.962525844573975 12.05376434326172 1.032966136932373 L 12.05376434326172 0.2719359397888184 L 11.68294525146484 0.2719359397888184 C 11.53630828857422 0.2719359397888184 11.39224720001221 0.2657918930053711 11.25093460083008 0.2537045478820801 C 11.01484489440918 0.7997865676879883 10.82094860076904 1.401557922363281 10.67159461975098 2.05254602432251 C 10.11319541931152 4.497006416320801 8.295825004577637 6.017266273498535 5.929314613342285 6.017266273498535 C 5.260085105895996 6.017266273498535 4.758144855499268 6.01667594909668 4.423494815826416 6.01551628112793 C 4.248085021972656 6.01490592956543 4.116515159606934 6.014116287231445 4.028794765472412 6.013206481933594 C 4.011569976806641 6.013028144836426 3.995580434799194 6.012837409973145 3.980827331542969 6.012639999389648 C 3.665043115615845 6.036077499389648 3.516815900802612 6.082310676574707 3.482612133026123 6.094348907470703 L 0.7673048973083496 7.595736503601074 L -1.417585372924805 3.226396083831787 L -0.8787751197814941 2.328377246856689 C -0.908320426940918 2.215996265411377 -0.9482135772705078 2.075875759124756 -1.001965522766113 1.904136180877686 C -1.097078323364258 1.600231170654297 -1.177351951599121 1.316234588623047 -1.243339538574219 1.049203872680664 L -1.322335243225098 1.127086162567139 L -3.374907493591309 0.5671882629394531 L -3.911314964294434 1.098536014556885 L -4.454377174377441 0.9627571105957031 C -4.820121765136719 1.422836303710938 -5.234562873840332 1.831311702728271 -5.69428539276123 2.184125900268555 L -6.329975128173828 2.671976089477539 L -15.40251445770264 3.881626129150391 L -10.7971658706665 -1.276368141174316 C -11.29063701629639 -1.928177237510681 -11.72460460662842 -2.895309209823608 -11.72460460662842 -4.280633926391602 C -11.72460460662842 -4.995353698730469 -11.55151462554932 -5.741424083709717 -11.21014499664307 -6.498133659362793 C -10.84790515899658 -7.301114082336426 -10.3628454208374 -7.949364185333252 -9.768445014953613 -8.424894332885742 L -8.467185020446777 -9.465893745422363 L -6.413741111755371 -8.741061210632324 L -4.675945281982422 -11.86906433105469 Z" stroke="none" fill="#304b45"/>
    </g>
    <g id="Path_89260" data-name="Path 89260" transform="translate(45.006 36.39)" fill="none">
      <path d="M-2.186-8.178A8.71,8.71,0,0,1-3.58-4.741a24.851,24.851,0,0,0-2.59,6.825q-.747,3.271-3.636,3.271-4.367,0-3.952-.017a8.778,8.778,0,0,0-3.8.9l-.1-.2a2.728,2.728,0,0,0,.4-1.428,12.158,12.158,0,0,0-.681-3.271,12.168,12.168,0,0,1-.681-3.288A4.273,4.273,0,0,1-17.4-4.99,15.7,15.7,0,0,1-19.5-6.484a3.2,3.2,0,0,1-.88-2.341,5.517,5.517,0,0,1,.415-1.959,3.823,3.823,0,0,1,1.079-1.677l.266.1a1.533,1.533,0,0,0-.017.216q0,.448.93,1.03a15.354,15.354,0,0,1,1.727,1.179,2.485,2.485,0,0,1,.93,1.893,4.337,4.337,0,0,1-1.395,2.723,4.489,4.489,0,0,0-1.395,2.956A2.674,2.674,0,0,0-16.765-.257,4.805,4.805,0,0,0-14.54.772a21.4,21.4,0,0,1,2.956-6.36A7.474,7.474,0,0,1-13.228-6.65a2.458,2.458,0,0,1-.664-1.793,6.564,6.564,0,0,1,.448-2.175A3.847,3.847,0,0,1-12.3-12.462l.282.1-.017.2q-.033.465.9,1.063A19.021,19.021,0,0,1-9.392-9.888a2.548,2.548,0,0,1,.946,1.943,6.574,6.574,0,0,1-1.561,3.238l-1.03-.548A16.514,16.514,0,0,0-13.892.772a15.242,15.242,0,0,0,1.627.066,9.069,9.069,0,0,0,3.9-.664A5.9,5.9,0,0,0-6.3-1.768q1.046-1.561,2.109-3.105Q-6.138-6.135-6.37-6.351a3,3,0,0,1-1-2.308,5.89,5.89,0,0,1,.4-2.076,3.593,3.593,0,0,1,1.162-1.727l.282.1-.017.216q-.033.448.83.98a13.25,13.25,0,0,1,1.627,1.079A2.47,2.47,0,0,1-2.186-8.178ZM14.37-2.1a10.414,10.414,0,0,1-.133,2.042q-.8,3.338-2.275,4.533a5,5,0,0,1-3.155.863q-.315,0-.98-.017t-1-.017a8.267,8.267,0,0,0-3.886.83L2.812,6Q4.124,2.616,4.34,2.267A3.666,3.666,0,0,1,7.644.523q2.524,0,3.421-.1Q13.772.108,13.705-1l-.017-.133a5.174,5.174,0,0,0-1.81-3.753A5.934,5.934,0,0,0,7.844-6.351a5.421,5.421,0,0,0-3.96,1.685A5.421,5.421,0,0,0,2.2-.705,8.263,8.263,0,0,0,2.306.407,8.263,8.263,0,0,1,2.414,1.52,5.567,5.567,0,0,1,1.708,4.2,5.683,5.683,0,0,1-.143,6.269l-.133-.1a17.151,17.151,0,0,0,.4-3.57A11.5,11.5,0,0,1,.77-1.071,19.9,19.9,0,0,1,1.9-2.98a9.726,9.726,0,0,0,.913-1.627q0-.432-.946-.946A8.857,8.857,0,0,1,.122-6.733,3.166,3.166,0,0,1-.824-9.091a4.614,4.614,0,0,1,.614-2.1,4.125,4.125,0,0,1,1.395-1.652l.232.1a.626.626,0,0,0-.05.249,1.415,1.415,0,0,0,.78,1.129,15.182,15.182,0,0,1,1.428,1.03A2.98,2.98,0,0,1,4.34-8.211a3.9,3.9,0,0,1-.448,1.478q-.448.963-.448.98,0,.249.282.249a.659.659,0,0,0,.282-.083Q6.2-6.866,7.644-11q.1-.315.365-.315a5.409,5.409,0,0,1,5.114,3.055A13.247,13.247,0,0,1,14.37-2.1Zm6.874,3.653q0,3.437-2.076,4.351h-.1a15.7,15.7,0,0,0,.6-4.334v-5.5a1.617,1.617,0,0,0-1.013-1.528,17.339,17.339,0,0,1-1.91-.98,3.748,3.748,0,0,1-1.013-2.939,4.587,4.587,0,0,1,.5-1.86,4.857,4.857,0,0,1,1.1-1.611l.282.1a.711.711,0,0,0-.05.249q0,.714.963,1.245a14.991,14.991,0,0,1,1.76,1.079,3.006,3.006,0,0,1,.963,2.358ZM37.152-8.659a3.124,3.124,0,0,1-.432,1.677,1.558,1.558,0,0,1-1.411.847L36.836.656a4.571,4.571,0,0,1,.133,1.113,4.907,4.907,0,0,1-.681,2.524A3.182,3.182,0,0,1,34.3,5.9h-.066V-.041a19.035,19.035,0,0,1,.714-6.094H27.089q-1.627,0-1.627,2.142a14.552,14.552,0,0,0,.407,2.831,14.552,14.552,0,0,1,.407,2.831,5.306,5.306,0,0,1-.631,2.574A3.176,3.176,0,0,1,23.635,5.9h-.066l.266-7.389q.116-3.4,1.843-4.649-2.574,0-2.574-2.889a5.494,5.494,0,0,1,.415-1.993A3.9,3.9,0,0,1,24.6-12.694h.349a2.228,2.228,0,0,0-.066.6q0,.9,1.279.9h8.95Q37.152-11.2,37.152-8.659Z" stroke="none"/>
      <path d="M 1.185149192810059 -12.84375476837158 C 0.6648483276367188 -12.52271461486816 0.1999187469482422 -11.97198486328125 -0.2096710205078125 -11.19155502319336 C -0.6192703247070312 -10.41111469268799 -0.8240604400634766 -9.710934638977051 -0.8240604400634766 -9.091014862060547 C -0.8240604400634766 -8.138995170593262 -0.5085716247558594 -7.353024959564209 0.1224288940429688 -6.733104705810547 C 0.4213085174560547 -6.43421459197998 1.00248908996582 -6.041224956512451 1.865948677062988 -5.554144859313965 C 2.496938705444336 -5.21097469329834 2.81243896484375 -4.895484924316406 2.81243896484375 -4.607664585113525 C 2.81243896484375 -4.508034706115723 2.50800895690918 -3.965604782104492 1.89915943145752 -2.980374813079834 C 1.234958648681641 -1.928724765777588 0.8585786819458008 -1.292194843292236 0.7700185775756836 -1.070794582366943 C 0.4047088623046875 -0.151984691619873 0.1888484954833984 1.071255207061768 0.1224288940429688 2.598915576934814 C 0.055999755859375 4.281555652618408 -0.07683181762695312 5.471575260162354 -0.2761001586914062 6.168984889984131 L -0.1432514190673828 6.268615245819092 C 0.6205787658691406 5.759395122528076 1.237729072570801 5.070285320281982 1.708199501037598 4.201295375823975 C 2.178679466247559 3.332294940948486 2.413919448852539 2.438395023345947 2.413919448852539 1.519585132598877 C 2.413919448852539 1.264975070953369 2.377939224243164 0.8941254615783691 2.305978775024414 0.4070453643798828 C 2.234028816223145 -0.08003473281860352 2.19804859161377 -0.4508748054504395 2.19804859161377 -0.7054848670959473 C 2.19804859161377 -2.22207498550415 2.759848594665527 -3.542174816131592 3.883459091186523 -4.66578483581543 C 5.007068634033203 -5.789384841918945 6.32715892791748 -6.351194858551025 7.843758583068848 -6.351194858551025 C 9.415699005126953 -6.351194858551025 10.76069927215576 -5.864104747772217 11.87876892089844 -4.889945030212402 C 12.99683952331543 -3.91578483581543 13.60015869140625 -2.664874792098999 13.68871879577637 -1.137214660644531 L 13.70531845092773 -1.004374980926514 C 13.74959945678711 -0.2626848220825195 12.86953926086426 0.213325023651123 11.06512832641602 0.4236550331115723 C 10.4673490524292 0.4900751113891602 9.327138900756836 0.5232853889465332 7.644498825073242 0.5232853889465332 C 6.183259010314941 0.5232853889465332 5.081789016723633 1.104455471038818 4.340099334716797 2.266815662384033 C 4.196188926696777 2.499285221099854 3.686968803405762 3.744655132293701 2.81243896484375 6.00293493270874 L 2.945279121398926 6.135775089263916 C 3.996929168701172 5.582274913787842 5.292119026184082 5.305525302886963 6.830848693847656 5.305525302886963 C 7.052248954772949 5.305525302886963 7.38434886932373 5.311065196990967 7.827149391174316 5.322135448455811 C 8.269948959350586 5.333205699920654 8.596519470214844 5.338735103607178 8.806848526000977 5.338735103607178 C 10.17952919006348 5.338735103607178 11.23117923736572 5.050915241241455 11.96179962158203 4.47527551651001 C 12.94702911376953 3.678235530853271 13.70531845092773 2.167185306549072 14.2366886138916 -0.05789470672607422 C 14.32524871826172 -0.4342746734619141 14.36951923370361 -1.115074634552002 14.36951923370361 -2.10030460357666 C 14.36951923370361 -4.624264717102051 13.95439910888672 -6.677754878997803 13.12414932250977 -8.260765075683594 C 12.0392894744873 -10.29764461517334 10.33450889587402 -11.31608486175537 8.009809494018555 -11.31608486175537 C 7.83268928527832 -11.31608486175537 7.710919380187988 -11.21092414855957 7.644498825073242 -11.00059509277344 C 6.681399345397949 -8.24416446685791 5.469239234924316 -6.439754962921143 4.007999420166016 -5.58735466003418 C 3.897298812866211 -5.532004833221436 3.80319881439209 -5.504334926605225 3.725708961486816 -5.504334926605225 C 3.537519454956055 -5.504334926605225 3.443428993225098 -5.58735466003418 3.443428993225098 -5.75340461730957 C 3.443428993225098 -5.764474868774414 3.592868804931641 -6.091044902801514 3.891758918762207 -6.733104705810547 C 4.190649032592773 -7.375164985656738 4.340099334716797 -7.86778450012207 4.340099334716797 -8.210954666137695 C 4.340099334716797 -9.085484504699707 4.085489273071289 -9.793964385986328 3.576269149780273 -10.33639526367188 C 3.443428993225098 -10.46923446655273 2.967418670654297 -10.81240463256836 2.148239135742188 -11.36590480804443 C 1.627948760986328 -11.70907497406006 1.367798805236816 -12.0854549407959 1.367798805236816 -12.49504470825195 C 1.367798805236816 -12.58360481262207 1.384408950805664 -12.66662406921387 1.417618751525879 -12.74411487579346 L 1.185149192810059 -12.84375476837158 M 17.32521820068359 -12.84375476837158 C 16.92669868469238 -12.48950481414795 16.5613899230957 -11.95261478424072 16.22929000854492 -11.23306465148926 C 15.89718914031982 -10.51351451873779 15.73113918304443 -9.893594741821289 15.73113918304443 -9.37330436706543 C 15.73113918304443 -8.01169490814209 16.06876945495605 -7.031994819641113 16.74403953552246 -6.43421459197998 C 16.87687873840332 -6.323514938354492 17.51340866088867 -5.996944904327393 18.65361976623535 -5.454514503479004 C 19.32888984680176 -5.122414588928223 19.66651916503906 -4.613194465637207 19.66651916503906 -3.926854848861694 L 19.66651916503906 1.569405078887939 C 19.66651916503906 3.063855648040771 19.46725845336914 4.508485317230225 19.06873893737793 5.903305530548096 L 19.16836929321289 5.903305530548096 C 20.5521183013916 5.294455051422119 21.24399948120117 3.844285488128662 21.24399948120117 1.552794933319092 L 21.24399948120117 -7.812434673309326 C 21.24399948120117 -8.808734893798828 20.92296981811523 -9.594704627990723 20.28090858459473 -10.17034530639648 C 20.12592887878418 -10.31425476074219 19.53921890258789 -10.67402458190918 18.52077865600586 -11.24966430664062 C 17.87871932983398 -11.60390472412109 17.55768966674805 -12.01903533935547 17.55768966674805 -12.49504470825195 C 17.55768966674805 -12.57253456115723 17.57428932189941 -12.65555477142334 17.60749816894531 -12.74411487579346 L 17.32521820068359 -12.84375476837158 M 24.59820938110352 -12.69430541992188 C 24.16647911071777 -12.34006500244141 23.80670928955078 -11.78102493286133 23.51887893676758 -11.0171947479248 C 23.24213790893555 -10.30871486663818 23.103759765625 -9.644515037536621 23.103759765625 -9.024595260620117 C 23.103759765625 -7.098414897918701 23.96168899536133 -6.135324954986572 25.67753982543945 -6.135324954986572 C 24.52625846862793 -5.305074691772461 23.91186904907227 -3.755274772644043 23.83437919616699 -1.48592472076416 L 23.56869888305664 5.903305530548096 L 23.63511848449707 5.903305530548096 C 24.48750877380371 5.681905269622803 25.15724945068359 5.128405094146729 25.64432907104492 4.242805004119873 C 26.06498908996582 3.467905521392822 26.27531814575195 2.609984874725342 26.27531814575195 1.6690354347229 C 26.27531814575195 1.026965141296387 26.13970947265625 0.08325529098510742 25.86849975585938 -1.162124633789062 C 25.5972785949707 -2.407504558563232 25.461669921875 -3.351214647293091 25.461669921875 -3.993274688720703 C 25.461669921875 -5.421304702758789 26.00409889221191 -6.135324954986572 27.08895874023438 -6.135324954986572 L 34.94313049316406 -6.135324954986572 C 34.46711730957031 -4.840134620666504 34.22911834716797 -2.80878472328186 34.22911834716797 -0.04128456115722656 L 34.22911834716797 5.903305530548096 L 34.29553985595703 5.903305530548096 C 35.12578964233398 5.692975521087646 35.78998947143555 5.15608549118042 36.28813934326172 4.292624950408936 C 36.74200820922852 3.517725467681885 36.96894073486328 2.676405429840088 36.96894073486328 1.768664836883545 C 36.96894073486328 1.381205081939697 36.92466735839844 1.010365009307861 36.83610916137695 0.6561250686645508 L 35.30844116210938 -6.135324954986572 C 35.91728973388672 -6.135324954986572 36.38777160644531 -6.417614936828613 36.71987152099609 -6.982184886932373 C 37.0076904296875 -7.44712495803833 37.1515998840332 -8.006155014038086 37.1515998840332 -8.659284591674805 C 37.1515998840332 -10.35299491882324 36.47078704833984 -11.19985485076904 35.10917663574219 -11.19985485076904 L 26.15907859802246 -11.19985485076904 C 25.30669021606445 -11.19985485076904 24.8804988861084 -11.49874496459961 24.8804988861084 -12.09652519226074 C 24.8804988861084 -12.34006500244141 24.90263938903809 -12.53932476043701 24.94691848754883 -12.69430541992188 L 24.59820938110352 -12.69430541992188 M -18.89031219482422 -12.46183490753174 C -19.31097030639648 -12.12973403930664 -19.67074966430664 -11.57069492340088 -19.96964263916016 -10.78472518920898 C -20.24639129638672 -10.06517505645752 -20.38476943969727 -9.412044525146484 -20.38476943969727 -8.825334548950195 C -20.38476943969727 -7.862244606018066 -20.09141159057617 -7.081814765930176 -19.50469970703125 -6.484034538269043 C -19.27223205566406 -6.240494728088379 -18.56928253173828 -5.742334842681885 -17.3958625793457 -4.989574909210205 C -18.21504211425781 -4.126114845275879 -18.62462997436523 -3.113214731216431 -18.62462997436523 -1.950864791870117 C -18.62462997436523 -1.209174633026123 -18.39770126342773 -0.1132445335388184 -17.94383239746094 1.336935043334961 C -17.48995971679688 2.787105083465576 -17.26301956176758 3.877495288848877 -17.26301956176758 4.608115673065186 C -17.26301956176758 5.117334842681885 -17.3958625793457 5.593345165252686 -17.66155242919922 6.036145687103271 L -17.56191253662109 6.235405445098877 C -16.62555694580078 5.717655658721924 -15.36590957641602 5.419154644012451 -13.78278732299805 5.339890956878662 C -13.7769832611084 5.339512348175049 -13.76918411254883 5.339128017425537 -13.75937080383301 5.338735103607178 C -13.76715469360352 5.339113712310791 -13.7750186920166 5.339501857757568 -13.78278732299805 5.339890956878662 C -13.94067573547363 5.35019063949585 -12.61553764343262 5.355345249176025 -9.807371139526367 5.355345249176025 C -7.881191253662109 5.355345249176025 -6.669031143188477 4.264945507049561 -6.170871734619141 2.084155559539795 C -5.584161758422852 -0.4730148315429688 -4.720701217651367 -2.747904777526855 -3.580490112304688 -4.740504741668701 C -2.650611877441406 -6.367794990539551 -2.185670852661133 -7.51354455947876 -2.185670852661133 -8.17774486541748 C -2.185670852661133 -8.919434547424316 -2.484560012817383 -9.555954933166504 -3.082340240478516 -10.08731460571289 C -3.270530700683594 -10.26443481445312 -3.812961578369141 -10.62421417236328 -4.709630966186523 -11.16664505004883 C -5.285270690917969 -11.5208854675293 -5.562021255493164 -11.84744453430176 -5.539880752563477 -12.14633464813232 L -5.523281097412109 -12.36220455169678 L -5.805561065673828 -12.46183490753174 C -6.281570434570312 -12.11866474151611 -6.669031143188477 -11.54302406311035 -6.967910766601562 -10.73491477966309 C -7.233600616455078 -10.02643489837646 -7.36644172668457 -9.334554672241211 -7.36644172668457 -8.659284591674805 C -7.36644172668457 -7.729404926300049 -7.034330368041992 -6.960044860839844 -6.370140075683594 -6.351194858551025 C -6.215150833129883 -6.207274913787842 -5.490070343017578 -5.714664936065674 -4.194881439208984 -4.873344898223877 C -4.903360366821289 -3.843834638595581 -5.606300354003906 -2.80878472328186 -6.3037109375 -1.768204689025879 C -6.956850051879883 -0.8383245468139648 -7.643190383911133 -0.19073486328125 -8.362741470336914 0.1745753288269043 C -9.259410858154297 0.617375373840332 -10.56013107299805 0.8387751579284668 -12.26492118835449 0.8387751579284668 C -12.96232032775879 0.8387751579284668 -13.5047607421875 0.8166351318359375 -13.8922119140625 0.7723550796508789 C -13.2169303894043 -1.707324981689453 -12.26492118835449 -3.716524839401245 -11.03614044189453 -5.255254745483398 L -10.00663185119629 -4.707294464111328 C -8.96605110168457 -6.135324954986572 -8.445760726928711 -7.214654922485352 -8.445760726928711 -7.945274829864502 C -8.445760726928711 -8.675894737243652 -8.761260986328125 -9.323484420776367 -9.392250061035156 -9.888054847717285 C -9.569370269775391 -10.05410480499268 -10.15054130554199 -10.45816421508789 -11.13577079772949 -11.1002254486084 C -11.75569152832031 -11.49874496459961 -12.05458068847656 -11.85298538208008 -12.03244018554688 -12.16294479370117 L -12.01584053039551 -12.36220455169678 L -12.29812049865723 -12.46183490753174 C -12.72985076904297 -12.15187454223633 -13.11177062988281 -11.53748512268066 -13.44387054443359 -10.61867523193359 C -13.74276161193848 -9.788424491882324 -13.8922119140625 -9.063344955444336 -13.8922119140625 -8.443424224853516 C -13.8922119140625 -7.70173454284668 -13.67081069946289 -7.103954792022705 -13.2280101776123 -6.650084972381592 C -12.95126152038574 -6.373324871063232 -12.40329170227051 -6.019084930419922 -11.58411026000977 -5.58735466003418 C -12.86823081970215 -3.738664865493774 -13.85346031188965 -1.618764877319336 -14.5398006439209 0.7723550796508789 C -15.40325927734375 0.6063051223754883 -16.14495086669922 0.2631354331970215 -16.76486968994141 -0.2571549415588379 C -17.48442077636719 -0.8549346923828125 -17.84420013427734 -1.55787467956543 -17.84420013427734 -2.365984916687012 C -17.84420013427734 -3.318004846572876 -17.3792610168457 -4.303235054016113 -16.44938278198242 -5.321674823760986 C -15.51950073242188 -6.340114593505859 -15.05456161499023 -7.247864723205566 -15.05456161499023 -8.044904708862305 C -15.05456161499023 -8.753384590148926 -15.36452102661133 -9.384374618530273 -15.98443984985352 -9.937874794006348 C -16.18370056152344 -10.12606430053711 -16.75934219360352 -10.51904487609863 -17.71136093139648 -11.11682510375977 C -18.33127975463867 -11.50427436828613 -18.64123916625977 -11.84744453430176 -18.64123916625977 -12.14633464813232 C -18.64123916625977 -12.21275520324707 -18.63570022583008 -12.2847146987915 -18.62462997436523 -12.36220455169678 L -18.89031219482422 -12.46183490753174 M 16.65486907958984 -16.26178550720215 L 21.49053955078125 -14.55487442016602 L 21.01088333129883 -13.27579689025879 C 21.07875823974609 -13.23537445068359 21.14292526245117 -13.1967945098877 21.203857421875 -13.15978717803955 C 21.61330223083496 -13.91438007354736 22.11250686645508 -14.53536605834961 22.69525909423828 -15.01352500915527 L 23.52495956420898 -15.69430541992188 L 28.92411041259766 -15.69430541992188 L 28.49712181091309 -14.19985485076904 L 35.10917663574219 -14.19985485076904 C 36.69467926025391 -14.19985485076904 38.06904983520508 -13.57641410827637 38.97911834716797 -12.44438457489014 C 39.75711822509766 -11.47662544250488 40.1515998840332 -10.20313453674316 40.1515998840332 -8.659284591674805 C 40.1515998840332 -7.454867362976074 39.86103439331055 -6.368973731994629 39.28784561157227 -5.431051731109619 C 39.11846160888672 -5.147353172302246 38.92730712890625 -4.88728141784668 38.71700668334961 -4.652243614196777 L 39.75624084472656 -0.0322117805480957 C 39.89738464355469 0.5462589263916016 39.96894073486328 1.151909351348877 39.96894073486328 1.768664836883545 C 39.96894073486328 3.208622455596924 39.60334014892578 4.564712047576904 38.88224029541016 5.799514293670654 C 37.97915649414062 7.360679149627686 36.64803314208984 8.402111053466797 35.03226852416992 8.811435699462891 L 34.66962814331055 8.903305053710938 L 31.22911834716797 8.903305053710938 L 31.22911834716797 -0.04128456115722656 C 31.22911834716797 -1.177133083343506 31.26724433898926 -2.206313133239746 31.34430313110352 -3.135324716567993 L 28.54695129394531 -3.135324716567993 C 28.59713172912598 -2.804604768753052 28.67609405517578 -2.368495941162109 28.79978942871094 -1.800504684448242 C 29.12421798706055 -0.3107547760009766 29.27531814575195 0.7917051315307617 29.27531814575195 1.6690354347229 C 29.27531814575195 3.11106538772583 28.94075012207031 4.458555698394775 28.2808895111084 5.674085140228271 L 28.27297973632812 5.688564777374268 C 27.38737869262695 7.29873514175415 26.0444393157959 8.377056121826172 24.38931846618652 8.806955337524414 L 24.01836967468262 8.903305053710938 L 20.45889854431152 8.903305053710938 L 20.46953582763672 8.607440948486328 C 20.43871116638184 8.621614456176758 20.4077262878418 8.635555267333984 20.37658882141113 8.649255752563477 L 19.7991886138916 8.903305053710938 L 15.09154891967773 8.903305053710938 L 16.18416976928711 5.079144954681396 C 16.42747688293457 4.227554798126221 16.57960891723633 3.340935230255127 16.63858222961426 2.433694362640381 C 15.9611291885376 4.403365612030029 15.04093742370605 5.84306001663208 13.8486385345459 6.807614803314209 L 13.81841850280762 6.8317551612854 C 12.54922866821289 7.831715106964111 10.86309909820557 8.338735580444336 8.806848526000977 8.338735580444336 C 8.569189071655273 8.338735580444336 8.224199295043945 8.33299446105957 7.752168655395508 8.321195602416992 C 7.336178779602051 8.310794830322266 7.026199340820312 8.305524826049805 6.830848693847656 8.305524826049805 C 5.791178703308105 8.305524826049805 4.953989028930664 8.468706130981445 4.34251880645752 8.790525436401367 L 2.386749267578125 9.81988525390625 L 1.407317161560059 8.840452194213867 L -0.2451515197753906 9.942094802856445 L -3.727951049804688 7.33019495010376 L -3.160661697387695 5.344785213470459 C -3.113750457763672 5.180594921112061 -2.954521179199219 4.488814830780029 -2.87523078918457 2.480565547943115 L -2.874740600585938 2.468605518341064 C -2.850774765014648 1.917425632476807 -2.809789657592773 1.39719295501709 -2.751411437988281 0.9059786796569824 C -2.935728073120117 1.502713680267334 -3.101034164428711 2.119497776031494 -3.246850967407227 2.755034923553467 C -3.634580612182617 4.452405452728271 -4.375120162963867 5.80348539352417 -5.447280883789062 6.767935276031494 C -6.601741790771484 7.80642557144165 -8.109441757202148 8.355344772338867 -9.807371139526367 8.355344772338867 C -11.13381004333496 8.355344772338867 -12.1435604095459 8.354175567626953 -12.80858039855957 8.351865768432617 C -13.15017127990723 8.350675582885742 -13.40638160705566 8.349174499511719 -13.57721138000488 8.347394943237305 C -13.66325569152832 8.34649658203125 -13.7310905456543 8.345470428466797 -13.78070831298828 8.344423294067383 C -15.14400863647461 8.42890739440918 -15.82291793823242 8.70191764831543 -16.1102294921875 8.860784530639648 L -18.84664916992188 10.37385559082031 L -21.08137130737305 5.904845714569092 L -20.26509475708008 4.544437885284424 C -20.2769889831543 4.334020137786865 -20.35315704345703 3.682709217071533 -20.80688095092773 2.233005046844482 C -21.36479187011719 0.4504151344299316 -21.62462997436523 -0.8790345191955566 -21.62462997436523 -1.950864791870117 C -21.62462997436523 -2.686140298843384 -21.52089691162109 -3.398323774337769 -21.31777191162109 -4.076556205749512 C -21.45595550537109 -4.194785594940186 -21.56479263305664 -4.298450469970703 -21.65966415405273 -4.396856307983398 C -22.78832244873047 -5.554325103759766 -23.38476943969727 -7.085180282592773 -23.38476943969727 -8.825334548950195 C -23.38476943969727 -9.777692794799805 -23.17833709716797 -10.7978982925415 -22.77123641967773 -11.85761642456055 C -22.2715950012207 -13.16893577575684 -21.61016845703125 -14.13680648803711 -20.74924087524414 -14.81648445129395 L -19.42122268676758 -15.86492538452148 L -15.31381988525391 -14.3246545791626 L -15.45211029052734 -13.35664558410645 C -15.04930686950684 -14.00384140014648 -14.58380317687988 -14.51393890380859 -14.0477409362793 -14.89880561828613 L -12.77598190307617 -15.81186485290527 L -8.83397102355957 -14.42054462432861 L -8.911430358886719 -13.4907808303833 C -8.524736404418945 -14.05567264556885 -8.073179244995117 -14.52537059783936 -7.559961318969727 -14.89536476135254 L -6.286951065063477 -15.81311416625977 L -2.355751037597656 -14.42560482025146 L -2.441093444824219 -13.31579971313477 C -1.859649658203125 -14.21625709533691 -1.172107696533203 -14.91438865661621 -0.3901901245117188 -15.39685440063477 L 0.9353790283203125 -16.21476554870605 L 5.356768608093262 -14.31969451904297 L 4.852387428283691 -13.14279747009277 C 5.007545471191406 -13.03121757507324 5.134505271911621 -12.9366455078125 5.241203308105469 -12.85372924804688 C 5.860400199890137 -13.76522350311279 6.86803150177002 -14.31608486175537 8.009809494018555 -14.31608486175537 C 9.716058731079102 -14.31608486175537 11.25048923492432 -13.91624450683594 12.57048892974854 -13.12768459320068 C 12.89535522460938 -12.93360900878906 13.20540046691895 -12.71710014343262 13.50009822845459 -12.47871017456055 C 13.50187301635742 -12.48256587982178 13.50362777709961 -12.48637580871582 13.50540924072266 -12.490234375 C 14.01726913452148 -13.5992546081543 14.61477851867676 -14.44832420349121 15.33209896087646 -15.0859546661377 L 16.65486907958984 -16.26178550720215 Z M 10.03302574157715 -2.512598514556885 C 9.993343353271484 -2.551552295684814 9.951683044433594 -2.590011119842529 9.908019065856934 -2.628054857254028 C 9.341779708862305 -3.121414661407471 8.685849189758301 -3.351194858551025 7.843758583068848 -3.351194858551025 C 7.12986946105957 -3.351194858551025 6.562708854675293 -3.102384805679321 6.004769325256348 -2.544454574584961 C 5.902441024780273 -2.442126274108887 5.810498237609863 -2.339470386505127 5.728594779968262 -2.235671997070312 C 6.332575798034668 -2.394996166229248 6.973785400390625 -2.476714611053467 7.644498825073242 -2.476714611053467 C 8.803720474243164 -2.476714611053467 9.552064895629883 -2.492977142333984 10.03302574157715 -2.512598514556885 Z" stroke="none" fill="#304b45"/>
    </g>
  </g>
</svg>
