<svg xmlns="http://www.w3.org/2000/svg" width="65.473" height="49.76" viewBox="0 0 65.473 49.76">
  <g id="Group_4955" data-name="Group 4955" transform="translate(-271 -4457.239)">
    <g id="Group_4948" data-name="Group 4948" transform="translate(269 4453.239)">
      <path id="Path_89874" data-name="Path 89874" d="M62.518,5.086a1.587,1.587,0,0,0-.1-.283c-.015-.03-.015-.074-.045-.1s-.074-.074-.1-.119a2.856,2.856,0,0,0-.208-.223,1.285,1.285,0,0,0-.238-.149,1.319,1.319,0,0,0-.253-.119,2.107,2.107,0,0,0-.3-.06c-.06,0-.1-.03-.164-.03H13.488c-.015,0-.03.015-.045.015a1.687,1.687,0,0,0-.461.089,1.025,1.025,0,0,0-.119.045c-.03.015-.06.015-.089.03a1.754,1.754,0,0,0-.327.253c-.015.015-.015.015-.015.03a2.247,2.247,0,0,0-.268.387.446.446,0,0,1-.06.119,1.546,1.546,0,0,0-.1.521V15.952a1.488,1.488,0,1,0,2.976,0V7.166h44.64V50.784H14.976V41.808a1.488,1.488,0,1,0-2.976,0V52.272a1.492,1.492,0,0,0,1.488,1.488H61.1a1.492,1.492,0,0,0,1.488-1.488V5.488a.35.35,0,0,0-.03-.119A2.2,2.2,0,0,0,62.518,5.086Z" transform="translate(4.88 0)" fill="#60401e"/>
    </g>
    <path id="Path_89882" data-name="Path 89882" d="M52.3,34.9H63.9V47.807l-5.8-4.64-5.8,4.64Zm-2.9,0V50.852a1.47,1.47,0,0,0,2.32,1.16L58.1,46.936l6.381,5.075a1.47,1.47,0,0,0,2.32-1.16V34.9Z" transform="translate(253.074 4424.018)" fill="#60401e"/>
    <path id="Path_89883" data-name="Path 89883" d="M24.32,28.488A1.492,1.492,0,0,0,22.832,27H3.488a1.488,1.488,0,1,0,0,2.976H22.832A1.492,1.492,0,0,0,24.32,28.488Z" transform="translate(269 4459.584)" fill="#60401e"/>
    <path id="Path_89884" data-name="Path 89884" d="M6,24.488a1.492,1.492,0,0,0,1.488,1.488H20.88a1.488,1.488,0,0,0,0-2.976H7.488A1.492,1.492,0,0,0,6,24.488Z" transform="translate(270.951 4457.631)" fill="#60401e"/>
    <path id="Path_89885" data-name="Path 89885" d="M10,20.488a1.492,1.492,0,0,0,1.488,1.488h7.44a1.488,1.488,0,1,0,0-2.976h-7.44A1.492,1.492,0,0,0,10,20.488Z" transform="translate(272.904 4455.68)" fill="#60401e"/>
  </g>
</svg>
