<svg xmlns="http://www.w3.org/2000/svg" width="55.867" height="67.939" viewBox="0 0 55.867 67.939">
  <g id="Group_4949" data-name="Group 4949" transform="translate(-12 -7.9)">
    <path id="Path_89878" data-name="Path 89878" d="M15.93,60.679h.983V71.628a1.274,1.274,0,0,0,.421.983,1.516,1.516,0,0,0,.983.421,58.475,58.475,0,0,1,21.336,2.807H40.5a61.647,61.647,0,0,1,21.336-2.807,1.274,1.274,0,0,0,.983-.421,1.516,1.516,0,0,0,.421-.983V60.679h.983a3.716,3.716,0,0,0,3.65-3.65V49.871a3.716,3.716,0,0,0-3.65-3.65h-.983V41.448a1.493,1.493,0,0,0-1.263-1.4,44.531,44.531,0,0,0-7.44-.281,4.272,4.272,0,0,0-1.123-1.123,19.743,19.743,0,0,0-6.878-4.351,13.916,13.916,0,0,0,7.44-12.353A14.037,14.037,0,1,0,33.336,34.29a18.172,18.172,0,0,0-7.861,5.474,46.764,46.764,0,0,0-7.58.281,1.493,1.493,0,0,0-1.263,1.4v4.773H15.65A3.716,3.716,0,0,0,12,49.871v7.159A4.192,4.192,0,0,0,15.93,60.679ZM65.06,49.73v7.159a.906.906,0,0,1-.842.842H62.533a2.816,2.816,0,0,1-2.807-2.807V51.555a2.816,2.816,0,0,1,2.807-2.807h1.684A1.2,1.2,0,0,1,65.06,49.73Zm-4.632-7.159V46.5A5.508,5.508,0,0,0,56.918,51.7v3.369a5.719,5.719,0,0,0,3.509,5.194v9.966a62.725,62.725,0,0,0-18.95,2.386V45.1a41.348,41.348,0,0,1,12.493-2.667A33.336,33.336,0,0,1,60.428,42.571ZM28.844,21.656a11.23,11.23,0,1,1,11.23,11.23A11.263,11.263,0,0,1,28.844,21.656ZM50.882,39.9a39.524,39.524,0,0,0-10.808,2.807A45.3,45.3,0,0,0,29.265,39.9a16.047,16.047,0,0,1,10.808-4.211A15.4,15.4,0,0,1,50.882,39.9ZM26.177,42.431A37.512,37.512,0,0,1,38.67,45.1V72.61a62.725,62.725,0,0,0-18.95-2.386V60.258a5.508,5.508,0,0,0,3.509-5.194V51.7A5.719,5.719,0,0,0,19.72,46.5v-3.93A33.336,33.336,0,0,1,26.177,42.431Zm-11.089,7.3a.906.906,0,0,1,.842-.842h1.684A2.816,2.816,0,0,1,20.422,51.7v3.369a2.816,2.816,0,0,1-2.807,2.807H15.93a.906.906,0,0,1-.842-.842Z" transform="translate(0 0)" fill="#60401e"/>
  </g>
</svg>
