<svg xmlns="http://www.w3.org/2000/svg" width="52.408" height="55.97" viewBox="0 0 52.408 55.97">
  <g id="Group_4950" data-name="Group 4950" transform="translate(22406.342 9508.863)">
    <path id="Path_89879" data-name="Path 89879" d="M87.624,56a20.614,20.614,0,0,0-2.034-5.413L75.149,31.078a5.6,5.6,0,0,0-2.122-2.184V78.756a23.436,23.436,0,0,0,6.7-3.7,22.775,22.775,0,0,0,6.134-6.412A17.673,17.673,0,0,0,87.624,56Zm-17.7-27.881a5.556,5.556,0,0,0-5.153,3.983c-.011.037-.022.074-.032.112l-.181-.058a5.628,5.628,0,0,0-7.033,3.763c-.015.047-.027.1-.041.144a5.636,5.636,0,0,0-6.4,2.111l-4.8-8.982a5.646,5.646,0,0,0-9.955,5.327l11.531,21.55-2.207-1.286a5.75,5.75,0,0,0-7.321,1.243,5.654,5.654,0,0,0,1.532,8.449q7.574,4.413,15.129,8.861l5.878,3.45a17.211,17.211,0,0,0,7.587,2.632c.195.011.388.016.58.016.3,0,.893-.061.893-.061l3.1-.621V28.894a5.308,5.308,0,0,0-1.419-.609A7.137,7.137,0,0,0,69.926,28.123ZM83.188,67.074a19.31,19.31,0,0,1-5.326,5.5c-3.575,2.7-6.507,3.895-9.25,3.747a14.348,14.348,0,0,1-6.176-2.21l-5.878-3.449Q49,66.225,41.419,61.8a2.554,2.554,0,0,1-.682-3.815,2.5,2.5,0,0,1,1.955-.9,2.779,2.779,0,0,1,1.4.38l6.758,3.938a1.892,1.892,0,0,0,1.073.187,1.551,1.551,0,0,0,1.191-2.272L39.06,33.061a2.544,2.544,0,1,1,4.485-2.4l7.179,13.418s0,0,0,.006a1.551,1.551,0,1,0,2.735-1.462l0,0a2.547,2.547,0,0,1,1.046-3.44,2.558,2.558,0,0,1,3.443,1.043,1.551,1.551,0,0,0,2.735-1.464,2.558,2.558,0,0,1,1.043-3.443,2.55,2.55,0,0,1,3.453,1.061l.024.042c.026.045.052.088.079.13A1.551,1.551,0,0,0,67.93,34.94a2.544,2.544,0,0,1,4.486-2.4l10.44,19.512a17.491,17.491,0,0,1,1.735,4.591A14.617,14.617,0,0,1,83.188,67.074Z" transform="translate(-22442 -9535.05)" fill="#60401e"/>
  </g>
</svg>
