<svg xmlns="http://www.w3.org/2000/svg" width="106" height="156" viewBox="0 0 106 156">
  <g id="Tanya" transform="translate(-173.002 -808)">
    <g id="Group_4643" data-name="Group 4643" transform="translate(-254)">
      <g id="Path_89053" data-name="Path 89053" transform="translate(417.645 810.014)" fill="none">
        <path d="M32.885,149.51a18.506,18.506,0,0,1-8.94-8.319,24.752,24.752,0,0,1-9.917-20.465,25.588,25.588,0,0,1,2.079-22.44,22.4,22.4,0,0,1,7.63-18.177,32.467,32.467,0,0,1,10.749-19.4c1.124,1.964.094,4.051,1.627,6.13s2.427,1.336,4.506,2.189c2.682,1.144,3.493,1.664,4.553,2.08a9.872,9.872,0,0,0,7.193,0,11.847,11.847,0,0,1,6.362-.5c4.782,1.165,5.073,5.262,8.316,6.073,3.618.873,9.564-2.7,19.917-20.485a46.312,46.312,0,0,0,.665-7.2,12.217,12.217,0,0,0-.166-2.62c-.333-3.348-.707-6.239-.748-6.551a24.466,24.466,0,0,1,.811-9.5c1.455.354,3.721.853,6.507,1.393,8.462,1.664,11.019,1.56,12.6,3.619.748.977,1.632,4.2,1.816,7.031s4.517,5.518,3.839,9.211c-.558,3.448-4.492,6.938-4.492,6.938s.042,5.22-1.246,8.452A8.648,8.648,0,0,1,97.5,72.29a8.315,8.315,0,0,1-3.8-1.809,13.116,13.116,0,0,1-1.31-1.1c-.4-.4-1.577-1.929-1.143-1.248s2.892,10.1,2.37,15.328a29.914,29.914,0,0,1-2.453,9.088,13.938,13.938,0,0,1,1.06,6.239,14.747,14.747,0,0,1-4.47,9.484A17.912,17.912,0,0,1,85.8,118.834a17.634,17.634,0,0,1-5.863,6.385A18.281,18.281,0,0,1,69.7,141.191a19.124,19.124,0,0,1-23.2,8.631,18.975,18.975,0,0,1-6.549,1.165,17.292,17.292,0,0,1-7.069-1.477Zm4.636-84.894c-.863-1.211.211-2.423-.1-3.6-.374-1.331-.832-1.5-1.143-2.433-.873-2.6,1.85-4.014,1.83-7.279s-2.453-4.284-1.726-5.553,4.158-1.227,6.445.1a7.986,7.986,0,0,1,3.555,5.449c-1.83,4.825-3.68,9.629-5.509,14.558C40.869,65.863,38.384,65.827,37.521,64.616Zm3.347-16.407a2.08,2.08,0,0,0-1.5,2.308c.249,1.1,2.37,1.87,2.536,1.912a3.159,3.159,0,0,0,2.287-.4c.832.354.995.281,1.1.135.374-.478-1.81-3.96-3.66-3.96a4.72,4.72,0,0,0-.765,0ZM30.2,39.43c-.852-6.634,5.67-11.331,7.069-11.917a20.641,20.641,0,0,0-3.326,9.941c-.416,4.742,1.06,7.841.333,8.194a.229.229,0,0,1-.166,0C33.155,45.711,30.661,42.862,30.2,39.43ZM87.626,27.513a120.777,120.777,0,0,1-11.892-4.038c-7.817-3.224-14.553-6.031-22.2-4.742-5.4,1.023-13.555,6.1-13.555,6.1s5.314-11.023,10.645-15.5c10.146-8.215,27.9-12.478,40-2.724,10.728,8.61,10.7,21.591,10.636,23.712-4.541-.546-13.63-2.808-13.63-2.808Z" stroke="none"/>
        <path d="M 39.87738037109375 150.9866180419922 C 39.90414047241211 150.9866180419922 39.93067169189453 150.9862670898438 39.95753479003906 150.9864501953125 C 42.19065093994141 150.9864044189453 44.40664291381836 150.5921478271484 46.50277709960938 149.8218688964844 C 55.30606460571289 153.0139923095703 65.12534332275391 149.361328125 69.70475769042969 141.1909942626953 C 75.82492828369141 138.1913909912109 79.76805877685547 132.0342407226562 79.93357849121094 125.2186660766602 C 82.38845062255859 123.6115798950195 84.40364837646484 121.4170379638672 85.79643249511719 118.8338851928711 C 87.51358032226562 115.5954284667969 88.19573211669922 111.9076690673828 87.75070953369141 108.2689056396484 C 90.35184478759766 105.762321472168 91.94245147705078 102.3876266479492 92.22064971923828 98.78538513183594 C 92.35027313232422 96.65181732177734 91.98747253417969 94.51703643798828 91.16031646728516 92.54621124267578 C 92.45256042480469 89.66527557373047 93.28060150146484 86.59783935546875 93.61357879638672 83.45780181884766 C 94.13519287109375 78.23023223876953 91.67723083496094 68.81123352050781 91.24349212646484 68.13023376464844 C 90.80973815917969 67.44915008544922 91.98361206054688 68.98303985595703 92.38694763183594 69.37808227539062 C 92.79910278320312 69.77362823486328 93.23662567138672 70.14182281494141 93.69673156738281 70.48032379150391 C 94.78866577148438 71.40010070800781 96.09890747070312 72.02320861816406 97.50136566162109 72.28968811035156 C 101.3707504272461 72.75614929199219 105.074104309082 70.57597351074219 106.5451278686523 66.96558380126953 C 107.8336029052734 63.73347091674805 107.7914047241211 58.51366806030273 107.7914047241211 58.51366806030273 C 107.7914047241211 58.51366806030273 111.725471496582 55.02412414550781 112.2832794189453 51.57562255859375 C 112.9612579345703 47.88197326660156 108.6288452148438 45.19823455810547 108.4446716308594 42.36425399780273 C 108.2604904174805 39.53027725219727 107.3767318725586 36.31045150756836 106.6282958984375 35.33295059204102 C 105.0482330322266 33.2740364074707 102.4910125732422 33.37801742553711 94.02936553955078 31.7142333984375 C 91.24349212646484 31.17351531982422 88.97734069824219 30.67438507080078 87.52204132080078 30.32081985473633 C 86.63079833984375 33.40499496459961 86.35525512695312 36.63451385498047 86.71118927001953 39.82514572143555 C 86.75279998779297 40.13712310791016 87.12699127197266 43.02795028686523 87.45964813232422 46.37629699707031 C 87.62596893310547 47.10420989990234 87.62596893310547 47.93610382080078 87.62596893310547 48.99675369262695 C 87.59199523925781 51.4090576171875 87.36953735351562 53.81499481201172 86.960693359375 56.19262313842773 C 76.60711669921875 73.97429656982422 70.66114044189453 77.55134582519531 67.0435791015625 76.67788696289062 C 63.80029678344727 75.86679840087891 63.50923156738281 71.76975250244141 58.72747421264648 70.60512542724609 C 56.60112380981445 70.18645477294922 54.40073394775391 70.35910034179688 52.36564636230469 71.10425567626953 C 50.0531005859375 72.00890350341797 47.48475646972656 72.00890350341797 45.17221069335938 71.10425567626953 C 44.11190795898438 70.68830108642578 43.30108261108398 70.16836547851562 40.61914443969727 69.02449035644531 C 38.54010391235352 68.17179870605469 37.64651489257812 68.91566467285156 36.11323165893555 66.83592987060547 C 34.57995223999023 64.75621032714844 35.61023330688477 62.66960144042969 34.48601531982422 60.70562362670898 C 28.73669052124023 65.71036529541016 24.93153762817383 72.57960510253906 23.73745155334473 80.10945129394531 C 18.52203750610352 84.66277313232422 15.7052116394043 91.37321472167969 16.10740661621094 98.2862548828125 C 11.98042869567871 105.0414733886719 11.21275520324707 113.3275833129883 14.02838516235352 120.7264709472656 C 13.81962490081787 128.7533874511719 17.51673316955566 136.3827362060547 23.94534111022949 141.1909942626953 C 25.89851570129395 144.8958892822266 29.05012512207031 147.8286437988281 32.88516998291016 149.5098571777344 C 35.08806610107422 150.4837799072266 37.4694938659668 150.9866180419922 39.87738037109375 150.9866180419922 M 40.86862564086914 65.86334228515625 C 42.69818878173828 60.93438720703125 44.54851531982422 56.13021087646484 46.37805938720703 51.30523300170898 C 46.01992797851562 49.06647109985352 44.72745132446289 47.08549499511719 42.82292938232422 45.85636520385742 C 40.53599166870117 44.52534103393555 37.1056022644043 44.48375701904297 36.3779296875 45.75238418579102 C 35.65027618408203 47.02101516723633 38.08273315429688 48.04008102416992 38.103515625 51.30523300170898 C 38.12432098388672 54.57040786743164 35.40077590942383 55.98462295532227 36.27397155761719 58.58427810668945 C 36.58581924438477 59.52016830444336 37.043212890625 59.68653869628906 37.41744995117188 61.01758193969727 C 37.73281860351562 62.19225311279297 36.65860366821289 63.40406036376953 37.52140808105469 64.61549377441406 C 38.38418960571289 65.82695007324219 40.86862564086914 65.86334228515625 40.86862564086914 65.86334228515625 M 41.12468338012695 48.1910400390625 C 41.31814575195312 48.1910400390625 41.55384063720703 48.20363616943359 41.63353729248047 48.20801544189453 C 43.48388671875 48.20801544189453 45.66814804077148 51.69008255004883 45.29390716552734 52.16840744018555 C 45.18996810913086 52.31398391723633 45.02669143676758 52.38668823242188 44.1950798034668 52.03316879272461 C 43.51044845581055 52.45024871826172 42.69297027587891 52.59148406982422 41.90812301635742 52.42829895019531 C 41.7418212890625 52.38668823242188 39.62121200561523 51.61875534057617 39.37171173095703 50.51649475097656 C 39.21777725219727 49.47957992553711 39.8593635559082 48.49014663696289 40.86862564086914 48.20801544189453 C 40.91341018676758 48.1953239440918 41.01186752319336 48.1910400390625 41.12468338012695 48.1910400390625 M 34.1949462890625 45.6640739440918 C 34.2231559753418 45.6640739440918 34.25137329101562 45.65885162353516 34.27812576293945 45.64840698242188 C 35.00577545166016 45.29484176635742 33.52964782714844 42.19606018066406 33.94547271728516 37.45429992675781 C 34.46523284912109 31.25671195983887 36.74353790283203 28.69825553894043 37.27190780639648 27.51321220397949 C 35.8736686706543 28.09864616394043 29.35082054138184 32.79568862915039 30.20321083068848 39.43003845214844 C 30.66062355041504 42.86157989501953 33.15547943115234 45.71076965332031 34.11179733276367 45.64840698242188 C 34.13852691650391 45.65885162353516 34.16673278808594 45.6640739440918 34.1949462890625 45.6640739440918 M 101.256233215332 30.32081985473633 C 101.3185806274414 28.19949340820312 101.3475570678711 15.21897220611572 90.61977386474609 6.608907222747803 C 78.51982116699219 -3.145000219345093 60.76491165161133 1.118425488471985 50.61927795410156 9.333341598510742 C 45.28886413574219 13.81316757202148 39.97464752197266 24.83595085144043 39.97464752197266 24.83595085144043 C 39.97464752197266 24.83595085144043 48.12888717651367 19.75647163391113 53.5299072265625 18.73371124267578 C 61.18071746826172 17.44427680969238 67.91680145263672 20.25190734863281 75.73394775390625 23.47547149658203 C 81.16020965576172 25.72158050537109 87.62596893310547 27.51321220397949 87.62596893310547 27.51321220397949 C 87.62596893310547 27.51321220397949 96.71571350097656 29.77501487731934 101.256233215332 30.32081985473633 M 39.87738418579102 153.9866180419922 C 37.03685760498047 153.9866180419922 34.27914047241211 153.4048614501953 31.68066787719727 152.2574462890625 L 31.68066787719727 152.2574462890625 C 27.44962120056152 150.4026336669922 23.89937400817871 147.196533203125 21.618408203125 143.1866760253906 C 18.32298278808594 140.5939636230469 15.62725353240967 137.24853515625 13.79814624786377 133.4739990234375 C 11.95791149139404 129.676513671875 11.00192165374756 125.4590606689453 11.02042961120605 121.239631652832 C 9.628419876098633 117.3363494873047 9.095019340515137 113.1135940551758 9.477211952209473 108.9882354736328 C 9.848990440368652 104.975456237793 11.08894443511963 101.0318908691406 13.07563400268555 97.52397918701172 C 13.0026969909668 93.98261260986328 13.67943859100342 90.41603088378906 15.04964637756348 87.15180206298828 C 16.39996337890625 83.93498992919922 18.43153953552246 80.99342346191406 20.9581127166748 78.58521270751953 C 22.43881797790527 70.78547668457031 26.5160026550293 63.66604614257812 32.51627731323242 58.44284057617188 L 33.11141967773438 57.92477798461914 C 33.00302886962891 56.09333419799805 33.77379989624023 54.63195419311523 34.32438659667969 53.58797073364258 C 34.82519149780273 52.63838577270508 35.10829925537109 52.06503677368164 35.10358047485352 51.3243408203125 C 35.09792709350586 50.43760299682617 34.77114486694336 49.92584228515625 34.31884384155273 49.21755981445312 C 34.20584487915039 49.04061126708984 34.08705902099609 48.85459518432617 33.97126007080078 48.65640640258789 C 33.90039825439453 48.65152740478516 33.82984924316406 48.64432144165039 33.75970077514648 48.63480758666992 C 31.9127197265625 48.46663284301758 30.42654991149902 46.87701797485352 29.4859733581543 45.53177642822266 C 28.29405975341797 43.82706069946289 27.49271202087402 41.80086517333984 27.22951507568359 39.8264274597168 L 27.22766876220703 39.81234359741211 C 26.76121139526367 36.18177795410156 27.91751670837402 32.54795074462891 30.57158088684082 29.3037109375 C 32.61418914794922 26.806884765625 35.00477600097656 25.21010208129883 36.11327743530273 24.7459716796875 L 36.8328742980957 24.44468116760254 L 37.27229690551758 23.53312492370605 C 37.32901763916016 23.41549491882324 38.6845817565918 20.61345100402832 40.72745132446289 17.21799468994141 C 43.54584121704102 12.5334939956665 46.22453689575195 9.108016014099121 48.68912506103516 7.0367112159729 L 48.73143005371094 7.001798152923584 C 52.03123474121094 4.329950332641602 56.01521301269531 2.089081048965454 60.25260162353516 0.5214070677757263 C 64.73488616943359 -1.136875510215759 69.45588684082031 -2.013375520706177 73.90523529052734 -2.013375520706177 C 77.28525543212891 -2.013375520706177 80.53001403808594 -1.520636439323425 83.54940795898438 -0.5488320589065552 C 86.830322265625 0.5071499347686768 89.8416748046875 2.128801584243774 92.50003051757812 4.271242618560791 C 95.2353515625 6.467075347900391 97.54863739013672 9.095253944396973 99.37564849853516 12.08281993865967 C 100.8644943237305 14.5174503326416 102.0389251708984 17.20303726196289 102.8662948608398 20.06497192382812 C 104.2530364990234 24.86188507080078 104.2993850708008 28.89682006835938 104.2549285888672 30.40895080566406 L 104.2488174438477 30.61687088012695 C 104.5265884399414 30.69028091430664 104.790641784668 30.76686859130859 105.0429534912109 30.8482551574707 C 106.8124923706055 31.41905975341797 108.0354309082031 32.23888397216797 109.0082321166992 33.50651550292969 C 109.6344909667969 34.32442855834961 110.1858825683594 35.62955856323242 110.6491241455078 37.38829803466797 C 111.0587539672852 38.94342803955078 111.3390350341797 40.64151763916016 111.438362121582 42.16971206665039 C 111.475341796875 42.55351638793945 112.2324295043945 43.62727737426758 112.6847763061523 44.26884078979492 C 114.0166168212891 46.1577033996582 115.8391036987305 48.74237060546875 115.2396697998047 52.08580780029297 C 114.7011260986328 55.33589935302734 112.2068099975586 58.31636047363281 110.7682495117188 59.80377578735352 C 110.696662902832 61.74431610107422 110.4144973754883 65.36072540283203 109.3318405151367 68.07651519775391 L 109.3233642578125 68.0975341796875 C 108.4427108764648 70.25899505615234 106.9523239135742 72.08712768554688 105.0133438110352 73.38430023193359 C 103.0891494750977 74.67156219482422 100.8508834838867 75.35203552246094 98.54051971435547 75.35218811035156 C 98.07562255859375 75.35221099853516 97.60518646240234 75.32392883300781 97.14225769042969 75.26812744140625 L 97.04127502441406 75.25595092773438 L 96.94136047363281 75.23695373535156 C 96.62648010253906 75.1771240234375 96.31466674804688 75.10388946533203 96.00689697265625 75.01770782470703 C 96.47542572021484 77.75236511230469 96.86384582519531 81.09883117675781 96.5987548828125 83.75566864013672 L 96.59686279296875 83.77414703369141 C 96.27400970458984 86.81863403320312 95.53225708007812 89.78874969482422 94.388671875 92.62109375 C 95.06047058105469 94.658447265625 95.34510803222656 96.82780456542969 95.21512603759766 98.96732330322266 L 95.21173095703125 99.01638793945312 C 94.91477203369141 102.8616180419922 93.38133239746094 106.4815521240234 90.85575103759766 109.3573608398438 C 91.05587768554688 113.1362915039062 90.23310089111328 116.8705520629883 88.44688415527344 120.2392578125 L 88.43705749511719 120.2576446533203 C 87.05783843994141 122.8156433105469 85.13954925537109 125.0641174316406 82.83934783935547 126.8319931030273 C 82.51442718505859 130.179443359375 81.40019226074219 133.4091491699219 79.57851409912109 136.2537078857422 C 77.64614105224609 139.2711029052734 74.98744964599609 141.7463073730469 71.85137176513672 143.4571990966797 C 67.83677673339844 149.9644165039062 60.70416259765625 153.9692535400391 53.01712417602539 153.9697723388672 C 50.80664443969727 153.9699249267578 48.62233352661133 153.6398162841797 46.50902557373047 152.9873657226562 C 44.38799667358398 153.6506958007812 42.18915176391602 153.9864196777344 39.95760345458984 153.9864501953125 L 39.87738418579102 153.9866180419922 Z M 67.75998687744141 73.76459503173828 C 67.85868835449219 73.78736877441406 67.96052551269531 73.79846954345703 68.07086181640625 73.79846954345703 C 68.63212585449219 73.79846954345703 70.258056640625 73.47334289550781 73.22677612304688 70.46177673339844 C 76.32499694824219 67.31881713867188 79.97921752929688 62.17082977294922 84.09139251708984 55.15676879882812 C 84.41620635986328 53.11589431762695 84.59588623046875 51.03952026367188 84.62596893310547 48.97565078735352 C 84.62596893310547 48.15065383911133 84.62520599365234 47.43925094604492 84.53501892089844 47.04455947875977 L 84.49299621582031 46.86062622070312 L 84.47434234619141 46.67288589477539 C 84.12901306152344 43.19697189331055 83.74127960205078 40.24992752075195 83.73751831054688 40.22175598144531 L 83.72969055175781 40.15775299072266 C 83.33791351318359 36.6458854675293 83.61981201171875 33.1435546875 84.56740570068359 29.74356269836426 C 82.14827728271484 29.01014137268066 78.17719268798828 27.73366165161133 74.58656311035156 26.24738502502441 L 74.43495178222656 26.18486404418945 C 68.22638702392578 23.62447166442871 62.86447143554688 21.41323280334473 57.37131881713867 21.41323280334473 C 56.26092910766602 21.41323280334473 55.14661026000977 21.50530052185059 54.05868911743164 21.68692970275879 C 50.08963012695312 22.45020866394043 43.69448852539062 26.05489540100098 41.56012344360352 27.38275527954102 L 40.25185012817383 28.19668197631836 L 40.01188659667969 28.73488616943359 C 39.83832168579102 29.12416839599609 39.62449264526367 29.48273277282715 39.37690734863281 29.89790725708008 C 38.59908294677734 31.20221138000488 37.29725646972656 33.38523483276367 36.93497085571289 37.70501708984375 L 36.93399429321289 37.71638488769531 C 36.78741073608398 39.38790512084961 36.91735458374023 40.83359527587891 37.08400344848633 42.01642608642578 C 37.64563751220703 41.8923454284668 38.25732803344727 41.82873153686523 38.91251754760742 41.82873153686523 C 40.78997421264648 41.82873153686523 42.76529693603516 42.35168838500977 44.33199310302734 43.2635383605957 L 44.39166641235352 43.29827499389648 L 44.44968795776367 43.33571243286133 C 47.06586456298828 45.02414703369141 48.84847259521484 47.75619125366211 49.34038543701172 50.83136367797852 L 49.46673202514648 51.6210823059082 L 49.18316650390625 52.3688850402832 C 48.64090728759766 53.79897308349609 48.08775329589844 55.25103759765625 47.55282211303711 56.65530014038086 C 46.28044891357422 59.99531936645508 44.96477508544922 63.44908142089844 43.68112564086914 66.90729522705078 L 43.61977005004883 67.07259368896484 C 44.2049560546875 67.34249114990234 44.66252899169922 67.56485748291016 45.04414749145508 67.75032043457031 C 45.56545257568359 68.00366973876953 45.90986251831055 68.17103576660156 46.26781845092773 68.31147003173828 C 47.06631851196289 68.62384033203125 47.90873336791992 68.78275299072266 48.76892852783203 68.78275299072266 C 49.62914657592773 68.78275299072266 50.47153854370117 68.62384033203125 51.27271270751953 68.31043243408203 L 51.33414459228516 68.28717041015625 C 52.97458267211914 67.68651580810547 54.69208145141602 67.38195037841797 56.43897247314453 67.38195037841797 C 57.39955902099609 67.38195037841797 58.36451721191406 67.47605895996094 59.30706024169922 67.66164398193359 L 59.37253952026367 67.67453765869141 L 59.43738555908203 67.69033813476562 C 63.0240592956543 68.56388854980469 64.789794921875 70.6802978515625 66.07907867431641 72.22562408447266 C 66.91027069091797 73.22190856933594 67.29848480224609 73.6439208984375 67.75998687744141 73.76459503173828 Z" stroke="none" fill="#304b45"/>
      </g>
      <path id="Path_89055" data-name="Path 89055" d="M1932.665-13098.466a32.532,32.532,0,0,1,11.243,0,28.875,28.875,0,0,1,12.039,4.987" transform="translate(-1480.279 13992.398)" fill="none" stroke="#304b45" stroke-linecap="round" stroke-linejoin="round" stroke-width="3"/>
    </g>
    <g id="Path_89129" data-name="Path 89129" transform="translate(-1482.327 13991.377)" fill="none">
      <path d="M1715.752-13126.143s-3.965-5.088-7.115-6-5.934,3.316-5.934,3.316a18.82,18.82,0,0,0,4.5,1.526c1.862.242,4.377-1.526,4.377-1.526Z" stroke="none"/>
      <path d="M 1715.751953125 -13126.142578125 L 1711.584716796875 -13128.826171875 C 1711.584716796875 -13128.826171875 1709.381713867188 -13127.27734375 1707.572509765625 -13127.27734375 C 1707.44873046875 -13127.27734375 1707.326538085938 -13127.2841796875 1707.207275390625 -13127.2998046875 C 1705.344970703125 -13127.5419921875 1702.703369140625 -13128.826171875 1702.703369140625 -13128.826171875 C 1702.703369140625 -13128.826171875 1704.971801757812 -13132.271484375 1707.72998046875 -13132.271484375 C 1708.027465820312 -13132.271484375 1708.33056640625 -13132.2314453125 1708.63720703125 -13132.142578125 C 1711.78662109375 -13131.23046875 1715.751953125 -13126.142578125 1715.751953125 -13126.142578125 Z" stroke="none" fill="#304b45"/>
    </g>
    <path id="Path_89130" data-name="Path 89130" d="M1702.268-13134.519a26.81,26.81,0,0,1,8.026-1.47c3.755.063,5.392,1.886,5.392,1.886" transform="translate(-1482 13992)" fill="none" stroke="#304b45" stroke-linecap="round" stroke-width="3"/>
  </g>
</svg>
