<svg xmlns="http://www.w3.org/2000/svg" width="110" height="115" viewBox="0 0 110 115">
  <g id="Daily_Tehillim" data-name="Daily Tehillim" transform="translate(-108.499 -56.249)">
    <g id="Path_89131" data-name="Path 89131" transform="translate(-4 0)" fill="none">
      <path d="M138.113,59.422a1.97,1.97,0,0,0-.254-2.657,2.011,2.011,0,0,0-1.347-.516H114.5a2.011,2.011,0,0,0-1.347.516,1.97,1.97,0,0,0-.254,2.657l5.8,7.535,22.211,88.435h14.207L132.709,66.56Z" stroke="none"/>
      <path d="M 116.5534362792969 59.24909973144531 L 121.4605102539062 65.62049865722656 L 143.2539672851562 152.3916320800781 L 151.2704467773438 152.3916320800781 L 129.4481964111328 65.89750671386719 L 134.4812774658203 59.24909973144531 L 116.5534362792969 59.24909973144531 M 114.5006408691406 56.24909973144531 L 136.5124359130859 56.24909973144531 C 137.0106048583984 56.24909973144531 137.4904327392578 56.43292236328125 137.8589630126953 56.76506042480469 C 138.2274932861328 57.09722900390625 138.4576263427734 57.55328369140625 138.5047302246094 58.04486083984375 C 138.5514373779297 58.53608703613281 138.4121856689453 59.02682495117188 138.1132659912109 59.4217529296875 L 132.7093505859375 66.56001281738281 L 155.1213531494141 155.3916320800781 L 140.9142761230469 155.3916320800781 L 118.7029113769531 66.95658874511719 L 112.8997955322266 59.4217529296875 C 112.6008911132812 59.02679443359375 112.4616394042969 58.53602600097656 112.5083312988281 58.04486083984375 C 112.5554351806641 57.55323791503906 112.7855682373047 57.09718322753906 113.1541137695312 56.76506042480469 C 113.5226135253906 56.43292236328125 114.00244140625 56.24909973144531 114.5006408691406 56.24909973144531 Z" stroke="none" fill="#003652"/>
    </g>
    <g id="Path_89133" data-name="Path 89133" transform="translate(-150.341 -871.848)" fill="none">
      <path d="M283.251,1031.2h42.023a2.14,2.14,0,0,1,2,1.983v7.932a1.992,1.992,0,0,1-2,1.983H283.251a2.14,2.14,0,0,1-2-1.983v-7.932A1.992,1.992,0,0,1,283.251,1031.2Z" stroke="none"/>
      <path d="M 284.2499694824219 1034.199951171875 L 284.2499694824219 1040.097045898438 L 324.274658203125 1040.097045898438 L 324.274658203125 1034.199951171875 L 284.2499694824219 1034.199951171875 M 283.2510375976562 1031.199951171875 L 325.2735595703125 1031.199951171875 C 326.3786926269531 1031.199951171875 327.274658203125 1032.295043945312 327.274658203125 1033.182861328125 L 327.274658203125 1041.114379882812 C 327.274658203125 1042.209350585938 326.3787536621094 1043.097045898438 325.2735595703125 1043.097045898438 L 283.2510375976562 1043.097045898438 C 282.1459045410156 1043.097045898438 281.2499694824219 1042.002075195312 281.2499694824219 1041.114379882812 L 281.2499694824219 1033.182861328125 C 281.2499694824219 1032.087768554688 282.1458740234375 1031.199951171875 283.2510375976562 1031.199951171875 Z" stroke="none" fill="#003652"/>
    </g>
    <g id="Path_89134" data-name="Path 89134" transform="translate(-210.024 -67.069)" fill="none" stroke-linejoin="round">
      <path d="M425.183,159.605,405.4,179.389l-9.232-15.184s10.367,3.532,15.207,3.926l9.2-9.518-8.2-.595a32.706,32.706,0,0,1-23.813-12.492,37.142,37.142,0,0,0-29.016-14.277H345.539l-2.4,3.371,2,6.543,24.813,73.762-7.6,7.535h21.035l44.8-60.278a1.967,1.967,0,0,0,.2-1.83,2.009,2.009,0,0,0-3.2-.748Zm-52.929,53.082-24.239-71.523h7.927l27.339,60.093Zm13.108-13.227-25.816-58.3,7.87,1.513L393.5,190.84Zm10.806-10.905-24.443-44.237s4.727,4.382,9.773,8.877c3.555,3.167,7.39,6.479,9.067,7.6l12.407,21.018Z" stroke="none"/>
      <path d="M 347.0855407714844 134.25 L 346.439208984375 135.1573181152344 L 347.3795776367188 138.2324066162109 C 347.5865173339844 138.1875152587891 347.7994995117188 138.1642761230469 348.0155029296875 138.1642761230469 L 355.9427490234375 138.1642761230469 C 356.6061401367188 138.1642761230469 357.2350769042969 138.3829650878906 357.7447204589844 138.7657318115234 C 358.4124145507812 138.2641296386719 359.2706604003906 138.0561828613281 360.1133728027344 138.21826171875 L 367.9830627441406 139.7317199707031 C 368.8660583496094 139.9015350341797 369.6263122558594 140.4584503173828 370.0545043945312 141.2491149902344 L 370.2898864746094 141.6837463378906 C 371.404296875 141.0755767822266 372.807373046875 141.2306671142578 373.7648315429688 142.1182403564453 C 373.8118896484375 142.1618804931641 378.5298461914062 146.5332641601562 383.4943237304688 150.955810546875 C 389.3794250488281 156.1988372802734 391.4951171875 157.8085632324219 392.2324523925781 158.3014526367188 C 392.6067199707031 158.5516510009766 392.9198913574219 158.8828582763672 393.1487426757812 159.2705383300781 L 394.5647583007812 161.6694488525391 C 395.3172607421875 161.1937255859375 396.2603149414062 161.0672760009766 397.1354370117188 161.3652648925781 C 399.6155700683594 162.2097930908203 406.251220703125 164.3048400878906 410.2625427246094 164.9662780761719 L 413.9617919921875 161.1413421630859 L 412.1766967773438 161.0119018554688 C 407.0871887207031 160.7007446289062 402.2210083007812 159.3441467285156 397.7130432128906 156.9795379638672 C 393.1970825195312 154.6101226806641 389.3226928710938 151.3776245117188 386.1955871582031 147.3693695068359 C 384.6286010742188 145.3564605712891 382.8284912109375 143.5179748535156 380.8453369140625 141.9049835205078 C 378.8613586425781 140.2913665771484 376.6895141601562 138.8996276855469 374.3898010253906 137.7682952880859 C 372.0899047851562 136.6365509033203 369.6571960449219 135.762939453125 367.1592407226562 135.1717376708984 C 364.6649780273438 134.5814208984375 362.0999450683594 134.2713317871094 359.5351867675781 134.25 L 347.0855407714844 134.25 M 417.4918823242188 171.5393218994141 L 407.521240234375 181.5099945068359 C 407.0819091796875 181.9493255615234 406.52294921875 182.236083984375 405.9249267578125 182.3423919677734 C 405.8189086914062 182.9350128173828 405.5347290039062 183.4975891113281 405.0833740234375 183.9448089599609 L 398.2797241210938 190.6859588623047 C 397.7733764648438 191.1876525878906 397.111083984375 191.4873809814453 396.4147033691406 191.5447692871094 C 396.2948608398438 192.0410919189453 396.0478210449219 192.5096893310547 395.6803283691406 192.8990478515625 L 387.5440979003906 201.5192260742188 C 387.1385803222656 201.9488677978516 386.62255859375 202.2423553466797 386.0647583007812 202.3766784667969 C 385.9234008789062 202.7282104492188 385.7141723632812 203.0560760498047 385.4405822753906 203.3396911621094 L 374.4134826660156 214.7703552246094 C 373.9892883300781 215.2100830078125 373.4494323730469 215.5021514892578 372.8701477050781 215.6236572265625 C 372.7426147460938 216.1572265625 372.4689331054688 216.6559448242188 372.0639343261719 217.0572662353516 L 369.6380004882812 219.4610900878906 L 381.8750915527344 219.4610900878906 L 417.4918823242188 171.5393218994141 M 345.5392456054688 131.25 L 359.5468139648438 131.25 C 365.1591796875 131.2946472167969 370.6875 132.6029052734375 375.71435546875 135.0765380859375 C 380.7415771484375 137.5496520996094 385.134765625 141.1229095458984 388.5628662109375 145.5265350341797 C 391.40478515625 149.1692657470703 395.0001220703125 152.1682739257812 399.1068725585938 154.3229827880859 C 403.2138061523438 156.4772491455078 407.737548828125 157.7371520996094 412.3758544921875 158.0184783935547 L 420.5802612304688 158.6133422851562 L 411.3753051757812 168.1310119628906 C 406.5355834960938 167.7368774414062 396.168212890625 164.205078125 396.168212890625 164.205078125 L 405.39990234375 179.388671875 L 425.1832275390625 159.6053009033203 L 425.1820068359375 159.6053009033203 C 425.6697082519531 159.1694641113281 426.3421936035156 158.9984893798828 426.9812622070312 159.1475982666016 C 427.620361328125 159.2970733642578 428.1452026367188 159.7473754882812 428.3848876953125 160.3529510498047 C 428.6250610351562 160.9590148925781 428.549560546875 161.6426696777344 428.18359375 162.1829986572266 L 383.3832397460938 222.4610900878906 L 362.3482666015625 222.4610900878906 L 369.9523315429688 214.9262542724609 L 345.1390380859375 141.1642761230469 L 343.1380004882812 134.6208801269531 L 345.5392456054688 131.25 Z M 348.0155029296875 141.1642761230469 L 372.25439453125 212.6875 L 383.281494140625 201.2568359375 L 355.9427490234375 141.1642761230469 L 348.0155029296875 141.1642761230469 Z M 359.5468139648438 141.1642761230469 L 385.3624267578125 199.4600372314453 L 393.4986572265625 190.83984375 L 367.41650390625 142.677734375 L 359.5468139648438 141.1642761230469 Z M 371.725341796875 144.318359375 L 396.168212890625 188.5548706054688 L 402.9718627929688 181.813720703125 L 390.5652465820312 160.7955322265625 C 388.8886413574219 159.6747741699219 385.0532531738281 156.362548828125 381.4987182617188 153.1958160400391 C 376.4526977539062 148.7005920410156 371.725341796875 144.318359375 371.725341796875 144.318359375 Z" stroke="none" fill="#003652"/>
    </g>
  </g>
</svg>
