<svg xmlns="http://www.w3.org/2000/svg" width="60" height="59.994" viewBox="0 0 60 59.994">
  <path id="Union_481" data-name="Union 481" d="M55.474,59.994H43.6a4.523,4.523,0,0,1-4.137-6.351L44.189,42.9a4.522,4.522,0,1,1,8.275,3.651l-1.924,4.4h4.706a4.843,4.843,0,0,1,3.517,1.531,4.313,4.313,0,0,1,1.231,3.258A4.5,4.5,0,0,1,55.5,59.994Zm-4.79-2.069h4.79a2.461,2.461,0,0,0,2.451-2.317,2.337,2.337,0,0,0-.569-1.717,2.8,2.8,0,0,0-2.069-.88h-4.6Zm-3.289,0h1.22V55.4S47.581,57.729,47.4,57.925Zm-3.893,0a2.453,2.453,0,0,0,2.3-1.464l1.945-4.406-4.489-1.975-1.945,4.406a2.452,2.452,0,0,0,0,1.872h-.042A2.453,2.453,0,0,0,43.5,57.92Zm2.58-14.156-1.955,4.417,4.489,1.975,2.007-4.417a2.451,2.451,0,0,0-1.252-3.227,2.415,2.415,0,0,0-1.034-.218h-.009A2.452,2.452,0,0,0,46.082,43.764ZM5.172,59.994A5.172,5.172,0,0,1,0,54.822V18.216a5.172,5.172,0,0,1,5.172-5.172H7.53V8.6H5.1A1.034,1.034,0,0,1,4.065,7.561V1.034A1.034,1.034,0,0,1,5.1,0H33.648a1.035,1.035,0,0,1,1.035,1.034V7.561A1.035,1.035,0,0,1,33.648,8.6H31.217v4.448h2.359a5.172,5.172,0,0,1,5.171,5.172V54.822a5.171,5.171,0,0,1-5.171,5.171Zm-3.1-5.171a3.1,3.1,0,0,0,3.1,3.1h28.4a3.1,3.1,0,0,0,3.1-3.1V48.006H2.069Zm0-8.886H36.679V27.1H2.069Zm0-27.721v6.816H36.679V18.216a3.1,3.1,0,0,0-3.1-3.1H5.172A3.1,3.1,0,0,0,2.069,18.216ZM9.6,13.043h19.55V8.6H9.6ZM6.134,6.527h26.48V2.069H6.134Zm10.54,36.42a1.035,1.035,0,0,1-.724-1.769l3.62-3.62h-2.9a1.035,1.035,0,0,1-.724-1.769l5.348-5.4a1.035,1.035,0,1,1,1.458,1.469l-3.619,3.62h2.9a1.026,1.026,0,0,1,.723,1.759l-5.347,5.41a1.034,1.034,0,0,1-.728.3Z" fill="#003652"/>
</svg>
