<svg xmlns="http://www.w3.org/2000/svg" width="60" height="52.5" viewBox="0 0 60 52.5">
  <path id="Union_482" data-name="Union 482" d="M13.062,54.055l-1.381-3.707L7.889,49a1.864,1.864,0,0,1,0-3.529l3.792-1.35,1.381-3.707a1.937,1.937,0,0,1,3.611,0l1.381,3.707,3.792,1.35a1.864,1.864,0,0,1,0,3.529l-3.792,1.351-1.381,3.707a1.937,1.937,0,0,1-3.611,0Zm.547-9.069a1.693,1.693,0,0,1-.4.621,1.75,1.75,0,0,1-.635.4l-3.452,1.23,3.452,1.23a1.75,1.75,0,0,1,.635.4,1.693,1.693,0,0,1,.4.621l1.258,3.375,1.258-3.375a1.7,1.7,0,0,1,.406-.621,1.746,1.746,0,0,1,.634-.4l3.453-1.23L17.166,46a1.746,1.746,0,0,1-.634-.4,1.7,1.7,0,0,1-.406-.621l-1.258-3.375Zm35.229,3.079-1.381-3.706-3.792-1.351a1.864,1.864,0,0,1,0-3.529l3.792-1.351,1.381-3.706a1.937,1.937,0,0,1,3.611,0l1.381,3.706,3.792,1.351a1.864,1.864,0,0,1,0,3.529l-3.792,1.351-1.381,3.706a1.937,1.937,0,0,1-3.611,0ZM49.385,39a1.715,1.715,0,0,1-.406.621,1.74,1.74,0,0,1-.635.4l-3.452,1.23,3.452,1.231a1.74,1.74,0,0,1,.635.4,1.715,1.715,0,0,1,.406.621l1.257,3.375L51.9,43.49a1.7,1.7,0,0,1,.406-.621,1.74,1.74,0,0,1,.635-.4l3.452-1.231-3.452-1.23a1.74,1.74,0,0,1-.635-.4A1.7,1.7,0,0,1,51.9,39L50.643,35.62Zm-20.458.614-2.478-6.646a.1.1,0,0,0-.026-.041.115.115,0,0,0-.042-.026l-6.8-2.422a2.466,2.466,0,0,1,0-4.668l6.8-2.422a.115.115,0,0,0,.042-.026.1.1,0,0,0,.026-.041l2.478-6.646a2.562,2.562,0,0,1,4.775,0l2.478,6.646a.1.1,0,0,0,.026.041.115.115,0,0,0,.042.026l6.8,2.422a2.466,2.466,0,0,1,0,4.668l-6.8,2.422a.115.115,0,0,0-.042.026.1.1,0,0,0-.026.041L33.7,39.61a2.563,2.563,0,0,1-4.775,0Zm1.989-22.23-2.477,6.644a2.159,2.159,0,0,1-.52.8,2.212,2.212,0,0,1-.816.509l-6.8,2.421a.412.412,0,0,0,0,.779l6.8,2.422a2.212,2.212,0,0,1,.816.509,2.159,2.159,0,0,1,.52.8L30.916,38.9a.428.428,0,0,0,.8,0l2.477-6.644a2.149,2.149,0,0,1,.521-.8,2.208,2.208,0,0,1,.815-.509l6.8-2.422a.412.412,0,0,0,0-.779l-6.8-2.421a2.208,2.208,0,0,1-.815-.509,2.15,2.15,0,0,1-.521-.8l-2.477-6.644a.428.428,0,0,0-.8,0ZM6.437,22.9,5.056,19.189,1.264,17.839a1.864,1.864,0,0,1,0-3.529l3.792-1.35L6.437,9.253a1.937,1.937,0,0,1,3.611,0l1.381,3.707,3.792,1.35a1.864,1.864,0,0,1,0,3.529l-3.792,1.351L10.047,22.9a1.937,1.937,0,0,1-3.611,0Zm.547-9.069a1.7,1.7,0,0,1-.406.621,1.742,1.742,0,0,1-.635.4l-3.452,1.23L5.943,17.3a1.742,1.742,0,0,1,.635.4,1.7,1.7,0,0,1,.406.621L8.242,21.7,9.5,18.322a1.7,1.7,0,0,1,.406-.621,1.742,1.742,0,0,1,.635-.4l3.452-1.23-3.452-1.23a1.742,1.742,0,0,1-.635-.4,1.7,1.7,0,0,1-.406-.621L8.242,10.453Zm41.729,5.935L47.092,15.41l-4.453-1.585a1.994,1.994,0,0,1,0-3.776l4.453-1.585L48.713,4.11a2.072,2.072,0,0,1,3.862,0L54.2,8.463l4.453,1.585a1.994,1.994,0,0,1,0,3.776L54.2,15.41l-1.622,4.352a2.071,2.071,0,0,1-3.862,0Zm.324-10.476a1.81,1.81,0,0,1-.43.658,1.862,1.862,0,0,1-.674.421l-4.411,1.571,4.411,1.571a1.85,1.85,0,0,1,.674.421,1.81,1.81,0,0,1,.43.658L50.644,18.9l1.608-4.312a1.81,1.81,0,0,1,.43-.658,1.85,1.85,0,0,1,.674-.421l4.411-1.571-4.411-1.571a1.862,1.862,0,0,1-.674-.421,1.81,1.81,0,0,1-.43-.658L50.644,4.974Z" transform="translate(-0.001 -2.789)" fill="#003652"/>
</svg>
