<svg xmlns="http://www.w3.org/2000/svg" width="60" height="43.5" viewBox="0 0 60 43.5">
  <g id="Group_5008" data-name="Group 5008" transform="translate(-0.164 -5.976)">
    <path id="Path_89905" data-name="Path 89905" d="M60.1,29.19l-2.877-7.6a1.017,1.017,0,0,0-.679-.612l-2.1-.572L52.211,15.3c-.008-.017-.025-.027-.035-.045a.651.651,0,0,0-.028-.075.9.9,0,0,0-.17-.182.873.873,0,0,0-.081-.087.99.99,0,0,0-.4-.184c-.008,0-.013-.007-.018-.007l-14.2-2.9-2.762-1.8c-.008,0-.02-.007-.028-.012s-.01-.012-.02-.017-.051-.012-.073-.025a.909.909,0,0,0-.175-.077L19.656,6.01a1.024,1.024,0,0,0-1.123.43L.631,34.383c-.013.022-.01.05-.023.072a.607.607,0,0,0-.061.095.9.9,0,0,0-.043.244c0,.027-.025.052-.025.08l-.314,7.4a.994.994,0,0,0,.661.975L17.9,49.414a1.054,1.054,0,0,0,.347.062h0a.927.927,0,0,0,.246-.032,1.21,1.21,0,0,0,.152-.072.86.86,0,0,0,.137-.065,1.023,1.023,0,0,0,.335-.321L23.9,41.144l14.081,4.529a1.024,1.024,0,0,0,.3.047c.005,0,.01,0,.018,0h0a.8.8,0,0,0,.109-.007.994.994,0,0,0,.451-.174c.013-.007.03,0,.043-.015L59.753,30.334A.982.982,0,0,0,60.1,29.19ZM48.361,33.458,46.07,31.217,47.791,29.9ZM18.63,45.91l-1.318-5.139L34.3,12.258l2,1.3.015.01,1.46.95L34.921,19.2a.019.019,0,0,0-.005.01ZM36.307,20.8l5.591.791,1.386,8.2-10.812-2.7Zm6.257-1.124-5.127-.726,2.572-4.219a1,1,0,0,0,.112-.3l8.422,1.716ZM31.386,28.871,41.505,31.4l-4.438,1.995L29.66,31.7Zm6.873,6.174,6.062-2.726L48.3,36.2l-9.182,6.691Zm7-5.728-1.371-8.1,6.921-4.087L53.415,23.1ZM19.852,8.122l12.565,3.345L15.792,39.38,3,34.428ZM2.443,36.353l12.928,5,1.422,5.537L2.22,41.629ZM28.565,33.5l7.679,1.751.879,8.059L24.966,39.4Zm22.024,1.037-.966-6.027L55.277,24.2a.979.979,0,0,0,.309-1.177l-.117-.269.035.012,2.43,6.42Z" transform="translate(0 0)" fill="#003652"/>
  </g>
</svg>
