<svg xmlns="http://www.w3.org/2000/svg" width="28.061" height="30" viewBox="0 0 28.061 30">
  <path id="free_cancellation_FILL0_wght400_GRAD0_opsz48" d="M139.829-850l-5.2-5.2,1.537-1.537,3.622,3.622,6.732-6.732,1.537,1.573Zm-13.646-8.3-1.537-1.537,2.6-2.6-2.6-2.6,1.537-1.537,2.6,2.6,2.6-2.6,1.537,1.537-2.6,2.6,2.6,2.6-1.537,1.537-2.6-2.6Zm-3.988,7.573a2.106,2.106,0,0,1-1.537-.659,2.106,2.106,0,0,1-.659-1.537V-875.61a2.106,2.106,0,0,1,.659-1.537,2.106,2.106,0,0,1,1.537-.659h2.378V-880h2.378v2.2H139.39V-880h2.378v2.2h2.378a2.106,2.106,0,0,1,1.537.659,2.106,2.106,0,0,1,.659,1.537v12.878l-2.2,2.2v-8.122H122.2v15.732h11.6l2.2,2.2Zm0-20.122h21.951v-4.756H122.2Zm0,0v0Z" transform="translate(-120 880)" fill="#003652"/>
</svg>
