<svg xmlns="http://www.w3.org/2000/svg" width="30" height="30" viewBox="0 0 30 30">
  <path id="tips_and_updates_FILL0_wght400_GRAD0_opsz48" d="M87.567-946.6l-.767-1.7-1.667-.784,1.667-.784.767-1.7.767,1.7,1.667.784-1.667.784Zm-4.233-5.966-1.167-2.523L79.7-956.284l2.467-1.193L83.333-960l1.167,2.523,2.467,1.193L84.5-955.091ZM70-930a2.578,2.578,0,0,1-1.917-.8,2.7,2.7,0,0,1-.783-1.96h5.4a2.7,2.7,0,0,1-.783,1.96A2.578,2.578,0,0,1,70-930Zm-5.4-4.875v-2.045H75.4v2.045ZM64.767-939a11.076,11.076,0,0,1-3.483-3.665A9.657,9.657,0,0,1,60-947.625a9.941,9.941,0,0,1,2.967-7.193A9.507,9.507,0,0,1,70-957.852a9.507,9.507,0,0,1,7.033,3.034A9.941,9.941,0,0,1,80-947.625a9.756,9.756,0,0,1-1.267,4.96,10.8,10.8,0,0,1-3.5,3.665Zm.733-2.045h9.033a7.881,7.881,0,0,0,2.533-2.83,7.806,7.806,0,0,0,.933-3.75,7.969,7.969,0,0,0-2.35-5.778,7.619,7.619,0,0,0-5.65-2.4,7.619,7.619,0,0,0-5.65,2.4A7.969,7.969,0,0,0,62-947.625a7.806,7.806,0,0,0,.933,3.75A7.77,7.77,0,0,0,65.5-941.045ZM70-941.045Z" transform="translate(-60 960)" fill="#003652"/>
</svg>
