<svg xmlns="http://www.w3.org/2000/svg" width="30" height="24" viewBox="0 0 30 24">
  <path id="mail_FILL0_wght400_GRAD0_opsz48_2_" data-name="mail_FILL0_wght400_GRAD0_opsz48 (2)" d="M82.25-776a2.159,2.159,0,0,1-1.575-.675A2.159,2.159,0,0,1,80-778.25v-19.5a2.159,2.159,0,0,1,.675-1.575A2.159,2.159,0,0,1,82.25-800h25.5a2.159,2.159,0,0,1,1.575.675A2.159,2.159,0,0,1,110-797.75v19.5a2.159,2.159,0,0,1-.675,1.575,2.159,2.159,0,0,1-1.575.675ZM95-787.325l-12.75-8.362v17.438h25.5v-17.437Zm0-2.25,12.6-8.175H82.438Zm-12.75-6.112v0Z" transform="translate(-80 800)" fill="#003652"/>
</svg>
