<svg xmlns="http://www.w3.org/2000/svg" width="30" height="21.818" viewBox="0 0 30 21.818">
  <path id="menu_book_FILL0_wght400_GRAD0_opsz48" d="M57.727-792.3v-1.636a11.98,11.98,0,0,1,2.3-.716,12.41,12.41,0,0,1,2.472-.239,10.984,10.984,0,0,1,1.739.136q.852.136,1.67.341v1.5a9.683,9.683,0,0,0-1.653-.46,9.705,9.705,0,0,0-1.756-.153,9.46,9.46,0,0,0-2.489.324A10.992,10.992,0,0,0,57.727-792.3Zm0,7.5v-1.67a12.3,12.3,0,0,1,2.3-.69,12.849,12.849,0,0,1,2.472-.23,10.984,10.984,0,0,1,1.739.136q.852.136,1.67.341v1.5a9.683,9.683,0,0,0-1.653-.46,9.705,9.705,0,0,0-1.756-.153,9.955,9.955,0,0,0-2.489.307A9.432,9.432,0,0,0,57.727-784.8Zm0-3.75v-1.636a11.98,11.98,0,0,1,2.3-.716,12.41,12.41,0,0,1,2.472-.239,10.984,10.984,0,0,1,1.739.136q.852.136,1.67.341v1.5a9.683,9.683,0,0,0-1.653-.46,9.705,9.705,0,0,0-1.756-.153,9.46,9.46,0,0,0-2.489.324A10.992,10.992,0,0,0,57.727-788.545Zm-10.636,5.591a14.8,14.8,0,0,1,3.555.426,15.775,15.775,0,0,1,3.4,1.278v-14.557a12.953,12.953,0,0,0-3.328-1.585,12.056,12.056,0,0,0-3.627-.562,10.041,10.041,0,0,0-2.54.324,24.56,24.56,0,0,0-2.506.8v14.8a9.62,9.62,0,0,1,2.4-.7A16.258,16.258,0,0,1,47.091-782.955Zm9,1.7a17.157,17.157,0,0,1,3.341-1.278,13.753,13.753,0,0,1,3.477-.426,18.253,18.253,0,0,1,2.676.2,13.344,13.344,0,0,1,2.369.545V-796.83a10.146,10.146,0,0,0-2.448-.852,12.516,12.516,0,0,0-2.6-.273,11.4,11.4,0,0,0-3.562.563,13.283,13.283,0,0,0-3.256,1.585Zm-1.023,3.068a13.72,13.72,0,0,0-3.784-1.994,12.883,12.883,0,0,0-4.193-.7,9.844,9.844,0,0,0-2.447.307,23.763,23.763,0,0,0-2.394.75,1.463,1.463,0,0,1-1.519-.1A1.534,1.534,0,0,1,40-781.284v-15.784a1.886,1.886,0,0,1,.239-.937,1.628,1.628,0,0,1,.716-.665,13.19,13.19,0,0,1,2.979-1.006A15.368,15.368,0,0,1,47.091-800a15.127,15.127,0,0,1,4.176.58,13.326,13.326,0,0,1,3.8,1.773A12.943,12.943,0,0,1,58.8-799.42a14.647,14.647,0,0,1,4.108-.58,15.151,15.151,0,0,1,3.134.324,13.227,13.227,0,0,1,2.968,1.006,1.736,1.736,0,0,1,.733.665,1.788,1.788,0,0,1,.256.938v15.784a1.617,1.617,0,0,1-.767,1.447,1.3,1.3,0,0,1-1.517.019,16.114,16.114,0,0,0-2.36-.767,10.4,10.4,0,0,0-2.447-.29,12.023,12.023,0,0,0-4.125.716A15,15,0,0,0,55.068-778.182ZM48.045-789.4Z" transform="translate(-40 800)" fill="#003652"/>
</svg>
