<svg xmlns="http://www.w3.org/2000/svg" width="30" height="30" viewBox="0 0 30 30">
  <path id="verified_FILL0_wght400_GRAD0_opsz48" d="M50.432-870l-2.591-4.643-5.148-1.107.58-5.25L40-885l3.273-3.964-.58-5.25,5.148-1.107L50.432-900,55-897.786,59.568-900l2.625,4.679,5.114,1.107-.58,5.25L70-885l-3.273,4,.58,5.25-5.114,1.107L59.568-870,55-872.214Zm.92-2.821L55-874.429l3.75,1.607,2.284-3.571,3.989-1.071-.409-4.25L67.375-885l-2.761-3.357.409-4.25-3.989-1-2.352-3.571L55-895.571l-3.75-1.607-2.284,3.571-3.989,1,.409,4.25L42.625-885l2.761,3.286-.409,4.321,3.989,1ZM55-885Zm-1.466,4.75,7.739-8.036-1.534-1.464-6.2,6.429L50.3-886.857l-1.568,1.607Z" transform="translate(-40 900)" fill="#003652"/>
</svg>
