<svg xmlns="http://www.w3.org/2000/svg" width="29.325" height="30" viewBox="0 0 29.325 30">
  <path id="inventory_FILL0_wght400_GRAD0_opsz48" d="M138.75-891.463l-6-6,1.613-1.612,4.387,4.388,8.962-8.963,1.613,1.613ZM147-906.987h-2.25v-7.763H142.5v3.375h-18v-3.375h-2.25v22.5h9.413V-890H122.25a2.185,2.185,0,0,1-1.613-.638A2.185,2.185,0,0,1,120-892.25v-22.5a2.185,2.185,0,0,1,.637-1.612A2.185,2.185,0,0,1,122.25-917h7.575a3.624,3.624,0,0,1,1.294-2.156A3.651,3.651,0,0,1,133.5-920a3.651,3.651,0,0,1,2.381.844A3.624,3.624,0,0,1,137.175-917h7.575a2.186,2.186,0,0,1,1.613.638A2.185,2.185,0,0,1,147-914.75Zm-13.5-7.763a1.451,1.451,0,0,0,1.069-.431A1.451,1.451,0,0,0,135-916.25a1.451,1.451,0,0,0-.431-1.069,1.451,1.451,0,0,0-1.069-.431,1.451,1.451,0,0,0-1.069.431A1.451,1.451,0,0,0,132-916.25a1.451,1.451,0,0,0,.431,1.069A1.451,1.451,0,0,0,133.5-914.75Z" transform="translate(-120 920)" fill="#003652"/>
</svg>
